0
SECTION
2
HEADER
9
$INSUNITS
70
1
0
ENDSEC
0
SECTION
2
TABLES
0
TABLE
2
LAYER
0
ENDTAB
0
ENDSEC
0
SECTION
2
ENTITIES
0
LINE
8
front_outsideCutPath
10
1.056879
20
0.1279301
11
1.056879
21
0.243
0
LINE
8
front_outsideCutPath
10
1.056879
20
0.243
11
1.563125
21
0.243
0
LINE
8
front_outsideCutPath
10
1.563125
20
0.243
11
1.563125
21
0.1279301
0
LINE
8
front_outsideCutPath
10
1.563125
20
0.1279301
11
1.5660551
21
0.125
0
LINE
8
front_outsideCutPath
10
1.5660551
20
0.125
11
2.0864489
21
0.125
0
LINE
8
front_outsideCutPath
10
2.0864489
20
0.125
11
2.089379
21
0.1279301
0
LINE
8
front_outsideCutPath
10
2.089379
20
0.1279301
11
2.089379
21
0.243
0
LINE
8
front_outsideCutPath
10
2.089379
20
0.243
11
2.595625
21
0.243
0
LINE
8
front_outsideCutPath
10
2.595625
20
0.243
11
2.595625
21
0.1279301
0
LINE
8
front_outsideCutPath
10
2.595625
20
0.1279301
11
2.5985551
21
0.125
0
LINE
8
front_outsideCutPath
10
2.5985551
20
0.125
11
3.1189489
21
0.125
0
LINE
8
front_outsideCutPath
10
3.1189489
20
0.125
11
3.121879
21
0.1279301
0
LINE
8
front_outsideCutPath
10
3.121879
20
0.1279301
11
3.121879
21
0.243
0
LINE
8
front_outsideCutPath
10
3.121879
20
0.243
11
3.628125
21
0.243
0
LINE
8
front_outsideCutPath
10
3.628125
20
0.243
11
3.628125
21
0.1279301
0
LINE
8
front_outsideCutPath
10
3.628125
20
0.1279301
11
3.6310551
21
0.125
0
LINE
8
front_outsideCutPath
10
3.6310551
20
0.125
11
4.1514489
21
0.125
0
LINE
8
front_outsideCutPath
10
4.1514489
20
0.125
11
4.154379
21
0.1279301
0
LINE
8
front_outsideCutPath
10
4.154379
20
0.1279301
11
4.154379
21
0.243
0
LINE
8
front_outsideCutPath
10
4.154379
20
0.243
11
4.660625
21
0.243
0
LINE
8
front_outsideCutPath
10
4.660625
20
0.243
11
4.660625
21
0.1279301
0
LINE
8
front_outsideCutPath
10
4.660625
20
0.1279301
11
4.6635551
21
0.125
0
LINE
8
front_outsideCutPath
10
4.6635551
20
0.125
11
5.1839489
21
0.125
0
LINE
8
front_outsideCutPath
10
5.1839489
20
0.125
11
5.186879
21
0.1279301
0
LINE
8
front_outsideCutPath
10
5.186879
20
0.1279301
11
5.186879
21
0.243
0
LINE
8
front_outsideCutPath
10
5.186879
20
0.243
11
5.693125
21
0.243
0
LINE
8
front_outsideCutPath
10
5.693125
20
0.243
11
5.693125
21
0.1279301
0
LINE
8
front_outsideCutPath
10
5.693125
20
0.1279301
11
5.6960551
21
0.125
0
LINE
8
front_outsideCutPath
10
5.6960551
20
0.125
11
6.2164489
21
0.125
0
LINE
8
front_outsideCutPath
10
6.2164489
20
0.125
11
6.219379
21
0.1279301
0
LINE
8
front_outsideCutPath
10
6.219379
20
0.1279301
11
6.219379
21
0.243
0
LINE
8
front_outsideCutPath
10
6.219379
20
0.243
11
6.725625
21
0.243
0
LINE
8
front_outsideCutPath
10
6.725625
20
0.243
11
6.725625
21
0.1279301
0
LINE
8
front_outsideCutPath
10
6.725625
20
0.1279301
11
6.7285551
21
0.125
0
LINE
8
front_outsideCutPath
10
6.7285551
20
0.125
11
7.2489489
21
0.125
0
LINE
8
front_outsideCutPath
10
7.2489489
20
0.125
11
7.251879
21
0.1279301
0
LINE
8
front_outsideCutPath
10
7.251879
20
0.1279301
11
7.251879
21
0.243
0
LINE
8
front_outsideCutPath
10
7.251879
20
0.243
11
7.758125
21
0.243
0
LINE
8
front_outsideCutPath
10
7.758125
20
0.243
11
7.758125
21
0.1279301
0
LINE
8
front_outsideCutPath
10
7.758125
20
0.1279301
11
7.7610551
21
0.125
0
LINE
8
front_outsideCutPath
10
7.7610551
20
0.125
11
8.2814489
21
0.125
0
LINE
8
front_outsideCutPath
10
8.2814489
20
0.125
11
8.284379
21
0.1279301
0
LINE
8
front_outsideCutPath
10
8.284379
20
0.1279301
11
8.284379
21
0.243
0
LINE
8
front_outsideCutPath
10
8.284379
20
0.243
11
8.790625
21
0.243
0
LINE
8
front_outsideCutPath
10
8.790625
20
0.243
11
8.790625
21
0.1279301
0
LINE
8
front_outsideCutPath
10
8.790625
20
0.1279301
11
8.7935551
21
0.125
0
LINE
8
front_outsideCutPath
10
8.7935551
20
0.125
11
9.3139489
21
0.125
0
LINE
8
front_outsideCutPath
10
9.3139489
20
0.125
11
9.316879
21
0.1279301
0
LINE
8
front_outsideCutPath
10
9.316879
20
0.1279301
11
9.316879
21
0.243
0
LINE
8
front_outsideCutPath
10
9.316879
20
0.243
11
9.823125
21
0.243
0
LINE
8
front_outsideCutPath
10
9.823125
20
0.243
11
9.823125
21
0.1279301
0
LINE
8
front_outsideCutPath
10
9.823125
20
0.1279301
11
9.8260551
21
0.125
0
LINE
8
front_outsideCutPath
10
9.8260551
20
0.125
11
10.3464489
21
0.125
0
LINE
8
front_outsideCutPath
10
10.3464489
20
0.125
11
10.349379
21
0.1279301
0
LINE
8
front_outsideCutPath
10
10.349379
20
0.1279301
11
10.349379
21
0.243
0
LINE
8
front_outsideCutPath
10
10.349379
20
0.243
11
10.855625
21
0.243
0
LINE
8
front_outsideCutPath
10
10.855625
20
0.243
11
10.855625
21
0.1279301
0
LINE
8
front_outsideCutPath
10
10.855625
20
0.1279301
11
10.8585551
21
0.125
0
LINE
8
front_outsideCutPath
10
10.8585551
20
0.125
11
11.3789489
21
0.125
0
LINE
8
front_outsideCutPath
10
11.3789489
20
0.125
11
11.381879
21
0.1279301
0
LINE
8
front_outsideCutPath
10
11.381879
20
0.1279301
11
11.381879
21
0.243
0
LINE
8
front_outsideCutPath
10
11.381879
20
0.243
11
11.888125
21
0.243
0
LINE
8
front_outsideCutPath
10
11.888125
20
0.243
11
11.888125
21
0.1279301
0
LINE
8
front_outsideCutPath
10
11.888125
20
0.1279301
11
11.8910551
21
0.125
0
LINE
8
front_outsideCutPath
10
11.8910551
20
0.125
11
12.4114489
21
0.125
0
LINE
8
front_outsideCutPath
10
12.4114489
20
0.125
11
12.414379
21
0.1279301
0
LINE
8
front_outsideCutPath
10
12.414379
20
0.1279301
11
12.414379
21
0.243
0
LINE
8
front_outsideCutPath
10
12.414379
20
0.243
11
12.920625
21
0.243
0
LINE
8
front_outsideCutPath
10
12.920625
20
0.243
11
12.920625
21
0.1279301
0
LINE
8
front_outsideCutPath
10
12.920625
20
0.1279301
11
12.9235551
21
0.125
0
LINE
8
front_outsideCutPath
10
12.9235551
20
0.125
11
13.4439489
21
0.125
0
LINE
8
front_outsideCutPath
10
13.4439489
20
0.125
11
13.446879
21
0.1279301
0
LINE
8
front_outsideCutPath
10
13.446879
20
0.1279301
11
13.446879
21
0.243
0
LINE
8
front_outsideCutPath
10
13.446879
20
0.243
11
13.953125
21
0.243
0
LINE
8
front_outsideCutPath
10
13.953125
20
0.243
11
13.953125
21
0.1279301
0
LINE
8
front_outsideCutPath
10
13.953125
20
0.1279301
11
13.9560551
21
0.125
0
LINE
8
front_outsideCutPath
10
13.9560551
20
0.125
11
15.0070739
21
0.125
0
LINE
8
front_outsideCutPath
10
15.0070739
20
0.125
11
15.010004
21
0.1279301
0
LINE
8
front_outsideCutPath
10
15.010004
20
0.1279301
11
15.010004
21
0.9014489
0
LINE
8
front_outsideCutPath
10
15.010004
20
0.9014489
11
15.0070739
21
0.904379
0
LINE
8
front_outsideCutPath
10
15.0070739
20
0.904379
11
14.892004
21
0.904379
0
LINE
8
front_outsideCutPath
10
14.892004
20
0.904379
11
14.892004
21
1.410625
0
LINE
8
front_outsideCutPath
10
14.892004
20
1.410625
11
15.0070739
21
1.410625
0
LINE
8
front_outsideCutPath
10
15.0070739
20
1.410625
11
15.010004
21
1.4135551
0
LINE
8
front_outsideCutPath
10
15.010004
20
1.4135551
11
15.010004
21
1.9339489
0
LINE
8
front_outsideCutPath
10
15.010004
20
1.9339489
11
15.0070739
21
1.936879
0
LINE
8
front_outsideCutPath
10
15.0070739
20
1.936879
11
14.892004
21
1.936879
0
LINE
8
front_outsideCutPath
10
14.892004
20
1.936879
11
14.892004
21
2.443125
0
LINE
8
front_outsideCutPath
10
14.892004
20
2.443125
11
15.0070739
21
2.443125
0
LINE
8
front_outsideCutPath
10
15.0070739
20
2.443125
11
15.010004
21
2.4460551
0
LINE
8
front_outsideCutPath
10
15.010004
20
2.4460551
11
15.010004
21
2.9664489
0
LINE
8
front_outsideCutPath
10
15.010004
20
2.9664489
11
15.0070739
21
2.969379
0
LINE
8
front_outsideCutPath
10
15.0070739
20
2.969379
11
14.892004
21
2.969379
0
LINE
8
front_outsideCutPath
10
14.892004
20
2.969379
11
14.892004
21
3.475625
0
LINE
8
front_outsideCutPath
10
14.892004
20
3.475625
11
15.0070739
21
3.475625
0
LINE
8
front_outsideCutPath
10
15.0070739
20
3.475625
11
15.010004
21
3.4785551
0
LINE
8
front_outsideCutPath
10
15.010004
20
3.4785551
11
15.010004
21
3.9989489
0
LINE
8
front_outsideCutPath
10
15.010004
20
3.9989489
11
15.0070739
21
4.001879
0
LINE
8
front_outsideCutPath
10
15.0070739
20
4.001879
11
14.892004
21
4.001879
0
LINE
8
front_outsideCutPath
10
14.892004
20
4.001879
11
14.892004
21
4.508125
0
LINE
8
front_outsideCutPath
10
14.892004
20
4.508125
11
15.0070739
21
4.508125
0
LINE
8
front_outsideCutPath
10
15.0070739
20
4.508125
11
15.010004
21
4.5110551
0
LINE
8
front_outsideCutPath
10
15.010004
20
4.5110551
11
15.010004
21
5.0314489
0
LINE
8
front_outsideCutPath
10
15.010004
20
5.0314489
11
15.0070739
21
5.034379
0
LINE
8
front_outsideCutPath
10
15.0070739
20
5.034379
11
14.892004
21
5.034379
0
LINE
8
front_outsideCutPath
10
14.892004
20
5.034379
11
14.892004
21
5.540625
0
LINE
8
front_outsideCutPath
10
14.892004
20
5.540625
11
15.0070739
21
5.540625
0
LINE
8
front_outsideCutPath
10
15.0070739
20
5.540625
11
15.010004
21
5.5435551
0
LINE
8
front_outsideCutPath
10
15.010004
20
5.5435551
11
15.010004
21
6.0639489
0
LINE
8
front_outsideCutPath
10
15.010004
20
6.0639489
11
15.0070739
21
6.066879
0
LINE
8
front_outsideCutPath
10
15.0070739
20
6.066879
11
14.892004
21
6.066879
0
LINE
8
front_outsideCutPath
10
14.892004
20
6.066879
11
14.892004
21
6.573125
0
LINE
8
front_outsideCutPath
10
14.892004
20
6.573125
11
15.0070739
21
6.573125
0
LINE
8
front_outsideCutPath
10
15.0070739
20
6.573125
11
15.010004
21
6.5760551
0
LINE
8
front_outsideCutPath
10
15.010004
20
6.5760551
11
15.010004
21
7.0964489
0
LINE
8
front_outsideCutPath
10
15.010004
20
7.0964489
11
15.0070739
21
7.099379
0
LINE
8
front_outsideCutPath
10
15.0070739
20
7.099379
11
14.892004
21
7.099379
0
LINE
8
front_outsideCutPath
10
14.892004
20
7.099379
11
14.892004
21
7.605625
0
LINE
8
front_outsideCutPath
10
14.892004
20
7.605625
11
15.0070739
21
7.605625
0
LINE
8
front_outsideCutPath
10
15.0070739
20
7.605625
11
15.010004
21
7.6085551
0
LINE
8
front_outsideCutPath
10
15.010004
20
7.6085551
11
15.010004
21
8.3820739
0
LINE
8
front_outsideCutPath
10
15.010004
20
8.3820739
11
15.0070739
21
8.385004
0
LINE
8
front_outsideCutPath
10
15.0070739
20
8.385004
11
13.9560551
21
8.385004
0
LINE
8
front_outsideCutPath
10
13.9560551
20
8.385004
11
13.953125
21
8.3820739
0
LINE
8
front_outsideCutPath
10
13.953125
20
8.3820739
11
13.953125
21
8.267004
0
LINE
8
front_outsideCutPath
10
13.953125
20
8.267004
11
13.446879
21
8.267004
0
LINE
8
front_outsideCutPath
10
13.446879
20
8.267004
11
13.446879
21
8.3820739
0
LINE
8
front_outsideCutPath
10
13.446879
20
8.3820739
11
13.4439489
21
8.385004
0
LINE
8
front_outsideCutPath
10
13.4439489
20
8.385004
11
12.9235551
21
8.385004
0
LINE
8
front_outsideCutPath
10
12.9235551
20
8.385004
11
12.920625
21
8.3820739
0
LINE
8
front_outsideCutPath
10
12.920625
20
8.3820739
11
12.920625
21
8.267004
0
LINE
8
front_outsideCutPath
10
12.920625
20
8.267004
11
12.414379
21
8.267004
0
LINE
8
front_outsideCutPath
10
12.414379
20
8.267004
11
12.414379
21
8.3820739
0
LINE
8
front_outsideCutPath
10
12.414379
20
8.3820739
11
12.4114489
21
8.385004
0
LINE
8
front_outsideCutPath
10
12.4114489
20
8.385004
11
11.8910551
21
8.385004
0
LINE
8
front_outsideCutPath
10
11.8910551
20
8.385004
11
11.888125
21
8.3820739
0
LINE
8
front_outsideCutPath
10
11.888125
20
8.3820739
11
11.888125
21
8.267004
0
LINE
8
front_outsideCutPath
10
11.888125
20
8.267004
11
11.381879
21
8.267004
0
LINE
8
front_outsideCutPath
10
11.381879
20
8.267004
11
11.381879
21
8.3820739
0
LINE
8
front_outsideCutPath
10
11.381879
20
8.3820739
11
11.3789489
21
8.385004
0
LINE
8
front_outsideCutPath
10
11.3789489
20
8.385004
11
10.8585551
21
8.385004
0
LINE
8
front_outsideCutPath
10
10.8585551
20
8.385004
11
10.855625
21
8.3820739
0
LINE
8
front_outsideCutPath
10
10.855625
20
8.3820739
11
10.855625
21
8.267004
0
LINE
8
front_outsideCutPath
10
10.855625
20
8.267004
11
10.349379
21
8.267004
0
LINE
8
front_outsideCutPath
10
10.349379
20
8.267004
11
10.349379
21
8.3820739
0
LINE
8
front_outsideCutPath
10
10.349379
20
8.3820739
11
10.3464489
21
8.385004
0
LINE
8
front_outsideCutPath
10
10.3464489
20
8.385004
11
9.8260551
21
8.385004
0
LINE
8
front_outsideCutPath
10
9.8260551
20
8.385004
11
9.823125
21
8.3820739
0
LINE
8
front_outsideCutPath
10
9.823125
20
8.3820739
11
9.823125
21
8.267004
0
LINE
8
front_outsideCutPath
10
9.823125
20
8.267004
11
9.316879
21
8.267004
0
LINE
8
front_outsideCutPath
10
9.316879
20
8.267004
11
9.316879
21
8.3820739
0
LINE
8
front_outsideCutPath
10
9.316879
20
8.3820739
11
9.3139489
21
8.385004
0
LINE
8
front_outsideCutPath
10
9.3139489
20
8.385004
11
8.7935551
21
8.385004
0
LINE
8
front_outsideCutPath
10
8.7935551
20
8.385004
11
8.790625
21
8.3820739
0
LINE
8
front_outsideCutPath
10
8.790625
20
8.3820739
11
8.790625
21
8.267004
0
LINE
8
front_outsideCutPath
10
8.790625
20
8.267004
11
8.284379
21
8.267004
0
LINE
8
front_outsideCutPath
10
8.284379
20
8.267004
11
8.284379
21
8.3820739
0
LINE
8
front_outsideCutPath
10
8.284379
20
8.3820739
11
8.2814489
21
8.385004
0
LINE
8
front_outsideCutPath
10
8.2814489
20
8.385004
11
7.7610551
21
8.385004
0
LINE
8
front_outsideCutPath
10
7.7610551
20
8.385004
11
7.758125
21
8.3820739
0
LINE
8
front_outsideCutPath
10
7.758125
20
8.3820739
11
7.758125
21
8.267004
0
LINE
8
front_outsideCutPath
10
7.758125
20
8.267004
11
7.251879
21
8.267004
0
LINE
8
front_outsideCutPath
10
7.251879
20
8.267004
11
7.251879
21
8.3820739
0
LINE
8
front_outsideCutPath
10
7.251879
20
8.3820739
11
7.2489489
21
8.385004
0
LINE
8
front_outsideCutPath
10
7.2489489
20
8.385004
11
6.7285551
21
8.385004
0
LINE
8
front_outsideCutPath
10
6.7285551
20
8.385004
11
6.725625
21
8.3820739
0
LINE
8
front_outsideCutPath
10
6.725625
20
8.3820739
11
6.725625
21
8.267004
0
LINE
8
front_outsideCutPath
10
6.725625
20
8.267004
11
6.219379
21
8.267004
0
LINE
8
front_outsideCutPath
10
6.219379
20
8.267004
11
6.219379
21
8.3820739
0
LINE
8
front_outsideCutPath
10
6.219379
20
8.3820739
11
6.2164489
21
8.385004
0
LINE
8
front_outsideCutPath
10
6.2164489
20
8.385004
11
5.6960551
21
8.385004
0
LINE
8
front_outsideCutPath
10
5.6960551
20
8.385004
11
5.693125
21
8.3820739
0
LINE
8
front_outsideCutPath
10
5.693125
20
8.3820739
11
5.693125
21
8.267004
0
LINE
8
front_outsideCutPath
10
5.693125
20
8.267004
11
5.186879
21
8.267004
0
LINE
8
front_outsideCutPath
10
5.186879
20
8.267004
11
5.186879
21
8.3820739
0
LINE
8
front_outsideCutPath
10
5.186879
20
8.3820739
11
5.1839489
21
8.385004
0
LINE
8
front_outsideCutPath
10
5.1839489
20
8.385004
11
4.6635551
21
8.385004
0
LINE
8
front_outsideCutPath
10
4.6635551
20
8.385004
11
4.660625
21
8.3820739
0
LINE
8
front_outsideCutPath
10
4.660625
20
8.3820739
11
4.660625
21
8.267004
0
LINE
8
front_outsideCutPath
10
4.660625
20
8.267004
11
4.154379
21
8.267004
0
LINE
8
front_outsideCutPath
10
4.154379
20
8.267004
11
4.154379
21
8.3820739
0
LINE
8
front_outsideCutPath
10
4.154379
20
8.3820739
11
4.1514489
21
8.385004
0
LINE
8
front_outsideCutPath
10
4.1514489
20
8.385004
11
3.6310551
21
8.385004
0
LINE
8
front_outsideCutPath
10
3.6310551
20
8.385004
11
3.628125
21
8.3820739
0
LINE
8
front_outsideCutPath
10
3.628125
20
8.3820739
11
3.628125
21
8.267004
0
LINE
8
front_outsideCutPath
10
3.628125
20
8.267004
11
3.121879
21
8.267004
0
LINE
8
front_outsideCutPath
10
3.121879
20
8.267004
11
3.121879
21
8.3820739
0
LINE
8
front_outsideCutPath
10
3.121879
20
8.3820739
11
3.1189489
21
8.385004
0
LINE
8
front_outsideCutPath
10
3.1189489
20
8.385004
11
2.5985551
21
8.385004
0
LINE
8
front_outsideCutPath
10
2.5985551
20
8.385004
11
2.595625
21
8.3820739
0
LINE
8
front_outsideCutPath
10
2.595625
20
8.3820739
11
2.595625
21
8.267004
0
LINE
8
front_outsideCutPath
10
2.595625
20
8.267004
11
2.089379
21
8.267004
0
LINE
8
front_outsideCutPath
10
2.089379
20
8.267004
11
2.089379
21
8.3820739
0
LINE
8
front_outsideCutPath
10
2.089379
20
8.3820739
11
2.0864489
21
8.385004
0
LINE
8
front_outsideCutPath
10
2.0864489
20
8.385004
11
1.5660551
21
8.385004
0
LINE
8
front_outsideCutPath
10
1.5660551
20
8.385004
11
1.563125
21
8.3820739
0
LINE
8
front_outsideCutPath
10
1.563125
20
8.3820739
11
1.563125
21
8.267004
0
LINE
8
front_outsideCutPath
10
1.563125
20
8.267004
11
1.056879
21
8.267004
0
LINE
8
front_outsideCutPath
10
1.056879
20
8.267004
11
1.056879
21
8.3820739
0
LINE
8
front_outsideCutPath
10
1.056879
20
8.3820739
11
1.0539489
21
8.385004
0
LINE
8
front_outsideCutPath
10
1.0539489
20
8.385004
11
0.0029301
21
8.385004
0
LINE
8
front_outsideCutPath
10
0.0029301
20
8.385004
11
0
21
8.3820739
0
LINE
8
front_outsideCutPath
10
0
20
8.3820739
11
0
21
7.6085551
0
LINE
8
front_outsideCutPath
10
0
20
7.6085551
11
0.0029301
21
7.605625
0
LINE
8
front_outsideCutPath
10
0.0029301
20
7.605625
11
0.118
21
7.605625
0
LINE
8
front_outsideCutPath
10
0.118
20
7.605625
11
0.118
21
7.099379
0
LINE
8
front_outsideCutPath
10
0.118
20
7.099379
11
0.0029301
21
7.099379
0
LINE
8
front_outsideCutPath
10
0.0029301
20
7.099379
11
0
21
7.0964489
0
LINE
8
front_outsideCutPath
10
0
20
7.0964489
11
0
21
6.5760551
0
LINE
8
front_outsideCutPath
10
0
20
6.5760551
11
0.0029301
21
6.573125
0
LINE
8
front_outsideCutPath
10
0.0029301
20
6.573125
11
0.118
21
6.573125
0
LINE
8
front_outsideCutPath
10
0.118
20
6.573125
11
0.118
21
6.066879
0
LINE
8
front_outsideCutPath
10
0.118
20
6.066879
11
0.0029301
21
6.066879
0
LINE
8
front_outsideCutPath
10
0.0029301
20
6.066879
11
0
21
6.0639489
0
LINE
8
front_outsideCutPath
10
0
20
6.0639489
11
0
21
5.5435551
0
LINE
8
front_outsideCutPath
10
0
20
5.5435551
11
0.0029301
21
5.540625
0
LINE
8
front_outsideCutPath
10
0.0029301
20
5.540625
11
0.118
21
5.540625
0
LINE
8
front_outsideCutPath
10
0.118
20
5.540625
11
0.118
21
5.034379
0
LINE
8
front_outsideCutPath
10
0.118
20
5.034379
11
0.0029301
21
5.034379
0
LINE
8
front_outsideCutPath
10
0.0029301
20
5.034379
11
0
21
5.0314489
0
LINE
8
front_outsideCutPath
10
0
20
5.0314489
11
0
21
4.5110551
0
LINE
8
front_outsideCutPath
10
0
20
4.5110551
11
0.0029301
21
4.508125
0
LINE
8
front_outsideCutPath
10
0.0029301
20
4.508125
11
0.118
21
4.508125
0
LINE
8
front_outsideCutPath
10
0.118
20
4.508125
11
0.118
21
4.001879
0
LINE
8
front_outsideCutPath
10
0.118
20
4.001879
11
0.0029301
21
4.001879
0
LINE
8
front_outsideCutPath
10
0.0029301
20
4.001879
11
0
21
3.9989489
0
LINE
8
front_outsideCutPath
10
0
20
3.9989489
11
0
21
3.4785551
0
LINE
8
front_outsideCutPath
10
0
20
3.4785551
11
0.0029301
21
3.475625
0
LINE
8
front_outsideCutPath
10
0.0029301
20
3.475625
11
0.118
21
3.475625
0
LINE
8
front_outsideCutPath
10
0.118
20
3.475625
11
0.118
21
2.969379
0
LINE
8
front_outsideCutPath
10
0.118
20
2.969379
11
0.0029301
21
2.969379
0
LINE
8
front_outsideCutPath
10
0.0029301
20
2.969379
11
0
21
2.9664489
0
LINE
8
front_outsideCutPath
10
0
20
2.9664489
11
0
21
2.4460551
0
LINE
8
front_outsideCutPath
10
0
20
2.4460551
11
0.0029301
21
2.443125
0
LINE
8
front_outsideCutPath
10
0.0029301
20
2.443125
11
0.118
21
2.443125
0
LINE
8
front_outsideCutPath
10
0.118
20
2.443125
11
0.118
21
1.936879
0
LINE
8
front_outsideCutPath
10
0.118
20
1.936879
11
0.0029301
21
1.936879
0
LINE
8
front_outsideCutPath
10
0.0029301
20
1.936879
11
0
21
1.9339489
0
LINE
8
front_outsideCutPath
10
0
20
1.9339489
11
0
21
1.4135551
0
LINE
8
front_outsideCutPath
10
0
20
1.4135551
11
0.0029301
21
1.410625
0
LINE
8
front_outsideCutPath
10
0.0029301
20
1.410625
11
0.118
21
1.410625
0
LINE
8
front_outsideCutPath
10
0.118
20
1.410625
11
0.118
21
0.904379
0
LINE
8
front_outsideCutPath
10
0.118
20
0.904379
11
0.0029301
21
0.904379
0
LINE
8
front_outsideCutPath
10
0.0029301
20
0.904379
11
0
21
0.9014489
0
LINE
8
front_outsideCutPath
10
0
20
0.9014489
11
0
21
0.1279301
0
LINE
8
front_outsideCutPath
10
0
20
0.1279301
11
0.0029301
21
0.125
0
LINE
8
front_outsideCutPath
10
0.0029301
20
0.125
11
1.0539489
21
0.125
0
LINE
8
front_outsideCutPath
10
1.0539489
20
0.125
11
1.056879
21
0.1279301
0
LINE
8
left_outsideCutPath
10
15.696883
20
0.1279301
11
15.696883
21
0.243
0
LINE
8
left_outsideCutPath
10
15.696883
20
0.243
11
16.203129
21
0.243
0
LINE
8
left_outsideCutPath
10
16.203129
20
0.243
11
16.203129
21
0.1279301
0
LINE
8
left_outsideCutPath
10
16.203129
20
0.1279301
11
16.2060591
21
0.125
0
LINE
8
left_outsideCutPath
10
16.2060591
20
0.125
11
16.7264529
21
0.125
0
LINE
8
left_outsideCutPath
10
16.7264529
20
0.125
11
16.729383
21
0.1279301
0
LINE
8
left_outsideCutPath
10
16.729383
20
0.1279301
11
16.729383
21
0.243
0
LINE
8
left_outsideCutPath
10
16.729383
20
0.243
11
17.235629
21
0.243
0
LINE
8
left_outsideCutPath
10
17.235629
20
0.243
11
17.235629
21
0.1279301
0
LINE
8
left_outsideCutPath
10
17.235629
20
0.1279301
11
17.2385591
21
0.125
0
LINE
8
left_outsideCutPath
10
17.2385591
20
0.125
11
17.7589529
21
0.125
0
LINE
8
left_outsideCutPath
10
17.7589529
20
0.125
11
17.761883
21
0.1279301
0
LINE
8
left_outsideCutPath
10
17.761883
20
0.1279301
11
17.761883
21
0.243
0
LINE
8
left_outsideCutPath
10
17.761883
20
0.243
11
18.268129
21
0.243
0
LINE
8
left_outsideCutPath
10
18.268129
20
0.243
11
18.268129
21
0.1279301
0
LINE
8
left_outsideCutPath
10
18.268129
20
0.1279301
11
18.2710591
21
0.125
0
LINE
8
left_outsideCutPath
10
18.2710591
20
0.125
11
18.7914529
21
0.125
0
LINE
8
left_outsideCutPath
10
18.7914529
20
0.125
11
18.794383
21
0.1279301
0
LINE
8
left_outsideCutPath
10
18.794383
20
0.1279301
11
18.794383
21
0.243
0
LINE
8
left_outsideCutPath
10
18.794383
20
0.243
11
19.300629
21
0.243
0
LINE
8
left_outsideCutPath
10
19.300629
20
0.243
11
19.300629
21
0.1279301
0
LINE
8
left_outsideCutPath
10
19.300629
20
0.1279301
11
19.3035591
21
0.125
0
LINE
8
left_outsideCutPath
10
19.3035591
20
0.125
11
19.8239529
21
0.125
0
LINE
8
left_outsideCutPath
10
19.8239529
20
0.125
11
19.826883
21
0.1279301
0
LINE
8
left_outsideCutPath
10
19.826883
20
0.1279301
11
19.826883
21
0.243
0
LINE
8
left_outsideCutPath
10
19.826883
20
0.243
11
20.333129
21
0.243
0
LINE
8
left_outsideCutPath
10
20.333129
20
0.243
11
20.333129
21
0.1279301
0
LINE
8
left_outsideCutPath
10
20.333129
20
0.1279301
11
20.3360591
21
0.125
0
LINE
8
left_outsideCutPath
10
20.3360591
20
0.125
11
20.7740779
21
0.125
0
LINE
8
left_outsideCutPath
10
20.7740779
20
0.125
11
20.777008
21
0.1279301
0
LINE
8
left_outsideCutPath
10
20.777008
20
0.1279301
11
20.777008
21
0.894375
0
LINE
8
left_outsideCutPath
10
20.777008
20
0.894375
11
20.8920779
21
0.894375
0
LINE
8
left_outsideCutPath
10
20.8920779
20
0.894375
11
20.895008
21
0.8973051
0
LINE
8
left_outsideCutPath
10
20.895008
20
0.8973051
11
20.895008
21
1.4176989
0
LINE
8
left_outsideCutPath
10
20.895008
20
1.4176989
11
20.8920779
21
1.420629
0
LINE
8
left_outsideCutPath
10
20.8920779
20
1.420629
11
20.777008
21
1.420629
0
LINE
8
left_outsideCutPath
10
20.777008
20
1.420629
11
20.777008
21
1.926875
0
LINE
8
left_outsideCutPath
10
20.777008
20
1.926875
11
20.8920779
21
1.926875
0
LINE
8
left_outsideCutPath
10
20.8920779
20
1.926875
11
20.895008
21
1.9298051
0
LINE
8
left_outsideCutPath
10
20.895008
20
1.9298051
11
20.895008
21
2.4501989
0
LINE
8
left_outsideCutPath
10
20.895008
20
2.4501989
11
20.8920779
21
2.453129
0
LINE
8
left_outsideCutPath
10
20.8920779
20
2.453129
11
20.777008
21
2.453129
0
LINE
8
left_outsideCutPath
10
20.777008
20
2.453129
11
20.777008
21
2.959375
0
LINE
8
left_outsideCutPath
10
20.777008
20
2.959375
11
20.8920779
21
2.959375
0
LINE
8
left_outsideCutPath
10
20.8920779
20
2.959375
11
20.895008
21
2.9623051
0
LINE
8
left_outsideCutPath
10
20.895008
20
2.9623051
11
20.895008
21
3.4826989
0
LINE
8
left_outsideCutPath
10
20.895008
20
3.4826989
11
20.8920779
21
3.485629
0
LINE
8
left_outsideCutPath
10
20.8920779
20
3.485629
11
20.777008
21
3.485629
0
LINE
8
left_outsideCutPath
10
20.777008
20
3.485629
11
20.777008
21
3.991875
0
LINE
8
left_outsideCutPath
10
20.777008
20
3.991875
11
20.8920779
21
3.991875
0
LINE
8
left_outsideCutPath
10
20.8920779
20
3.991875
11
20.895008
21
3.9948051
0
LINE
8
left_outsideCutPath
10
20.895008
20
3.9948051
11
20.895008
21
4.5151989
0
LINE
8
left_outsideCutPath
10
20.895008
20
4.5151989
11
20.8920779
21
4.518129
0
LINE
8
left_outsideCutPath
10
20.8920779
20
4.518129
11
20.777008
21
4.518129
0
LINE
8
left_outsideCutPath
10
20.777008
20
4.518129
11
20.777008
21
5.024375
0
LINE
8
left_outsideCutPath
10
20.777008
20
5.024375
11
20.8920779
21
5.024375
0
LINE
8
left_outsideCutPath
10
20.8920779
20
5.024375
11
20.895008
21
5.0273051
0
LINE
8
left_outsideCutPath
10
20.895008
20
5.0273051
11
20.895008
21
5.5476989
0
LINE
8
left_outsideCutPath
10
20.895008
20
5.5476989
11
20.8920779
21
5.550629
0
LINE
8
left_outsideCutPath
10
20.8920779
20
5.550629
11
20.777008
21
5.550629
0
LINE
8
left_outsideCutPath
10
20.777008
20
5.550629
11
20.777008
21
6.056875
0
LINE
8
left_outsideCutPath
10
20.777008
20
6.056875
11
20.8920779
21
6.056875
0
LINE
8
left_outsideCutPath
10
20.8920779
20
6.056875
11
20.895008
21
6.0598051
0
LINE
8
left_outsideCutPath
10
20.895008
20
6.0598051
11
20.895008
21
6.5801989
0
LINE
8
left_outsideCutPath
10
20.895008
20
6.5801989
11
20.8920779
21
6.583129
0
LINE
8
left_outsideCutPath
10
20.8920779
20
6.583129
11
20.777008
21
6.583129
0
LINE
8
left_outsideCutPath
10
20.777008
20
6.583129
11
20.777008
21
7.089375
0
LINE
8
left_outsideCutPath
10
20.777008
20
7.089375
11
20.8920779
21
7.089375
0
LINE
8
left_outsideCutPath
10
20.8920779
20
7.089375
11
20.895008
21
7.0923051
0
LINE
8
left_outsideCutPath
10
20.895008
20
7.0923051
11
20.895008
21
7.6126989
0
LINE
8
left_outsideCutPath
10
20.895008
20
7.6126989
11
20.8920779
21
7.615629
0
LINE
8
left_outsideCutPath
10
20.8920779
20
7.615629
11
20.777008
21
7.615629
0
LINE
8
left_outsideCutPath
10
20.777008
20
7.615629
11
20.777008
21
8.3820739
0
LINE
8
left_outsideCutPath
10
20.777008
20
8.3820739
11
20.7740779
21
8.385004
0
LINE
8
left_outsideCutPath
10
20.7740779
20
8.385004
11
20.3360591
21
8.385004
0
LINE
8
left_outsideCutPath
10
20.3360591
20
8.385004
11
20.333129
21
8.3820739
0
LINE
8
left_outsideCutPath
10
20.333129
20
8.3820739
11
20.333129
21
8.267004
0
LINE
8
left_outsideCutPath
10
20.333129
20
8.267004
11
19.826883
21
8.267004
0
LINE
8
left_outsideCutPath
10
19.826883
20
8.267004
11
19.826883
21
8.3820739
0
LINE
8
left_outsideCutPath
10
19.826883
20
8.3820739
11
19.8239529
21
8.385004
0
LINE
8
left_outsideCutPath
10
19.8239529
20
8.385004
11
19.3035591
21
8.385004
0
LINE
8
left_outsideCutPath
10
19.3035591
20
8.385004
11
19.300629
21
8.3820739
0
LINE
8
left_outsideCutPath
10
19.300629
20
8.3820739
11
19.300629
21
8.267004
0
LINE
8
left_outsideCutPath
10
19.300629
20
8.267004
11
18.794383
21
8.267004
0
LINE
8
left_outsideCutPath
10
18.794383
20
8.267004
11
18.794383
21
8.3820739
0
LINE
8
left_outsideCutPath
10
18.794383
20
8.3820739
11
18.7914529
21
8.385004
0
LINE
8
left_outsideCutPath
10
18.7914529
20
8.385004
11
18.2710591
21
8.385004
0
LINE
8
left_outsideCutPath
10
18.2710591
20
8.385004
11
18.268129
21
8.3820739
0
LINE
8
left_outsideCutPath
10
18.268129
20
8.3820739
11
18.268129
21
8.267004
0
LINE
8
left_outsideCutPath
10
18.268129
20
8.267004
11
17.761883
21
8.267004
0
LINE
8
left_outsideCutPath
10
17.761883
20
8.267004
11
17.761883
21
8.3820739
0
LINE
8
left_outsideCutPath
10
17.761883
20
8.3820739
11
17.7589529
21
8.385004
0
LINE
8
left_outsideCutPath
10
17.7589529
20
8.385004
11
17.2385591
21
8.385004
0
LINE
8
left_outsideCutPath
10
17.2385591
20
8.385004
11
17.235629
21
8.3820739
0
LINE
8
left_outsideCutPath
10
17.235629
20
8.3820739
11
17.235629
21
8.267004
0
LINE
8
left_outsideCutPath
10
17.235629
20
8.267004
11
16.729383
21
8.267004
0
LINE
8
left_outsideCutPath
10
16.729383
20
8.267004
11
16.729383
21
8.3820739
0
LINE
8
left_outsideCutPath
10
16.729383
20
8.3820739
11
16.7264529
21
8.385004
0
LINE
8
left_outsideCutPath
10
16.7264529
20
8.385004
11
16.2060591
21
8.385004
0
LINE
8
left_outsideCutPath
10
16.2060591
20
8.385004
11
16.203129
21
8.3820739
0
LINE
8
left_outsideCutPath
10
16.203129
20
8.3820739
11
16.203129
21
8.267004
0
LINE
8
left_outsideCutPath
10
16.203129
20
8.267004
11
15.696883
21
8.267004
0
LINE
8
left_outsideCutPath
10
15.696883
20
8.267004
11
15.696883
21
8.3820739
0
LINE
8
left_outsideCutPath
10
15.696883
20
8.3820739
11
15.6939529
21
8.385004
0
LINE
8
left_outsideCutPath
10
15.6939529
20
8.385004
11
15.2559341
21
8.385004
0
LINE
8
left_outsideCutPath
10
15.2559341
20
8.385004
11
15.253004
21
8.3820739
0
LINE
8
left_outsideCutPath
10
15.253004
20
8.3820739
11
15.253004
21
7.615629
0
LINE
8
left_outsideCutPath
10
15.253004
20
7.615629
11
15.1379341
21
7.615629
0
LINE
8
left_outsideCutPath
10
15.1379341
20
7.615629
11
15.135004
21
7.6126989
0
LINE
8
left_outsideCutPath
10
15.135004
20
7.6126989
11
15.135004
21
7.0923051
0
LINE
8
left_outsideCutPath
10
15.135004
20
7.0923051
11
15.1379341
21
7.089375
0
LINE
8
left_outsideCutPath
10
15.1379341
20
7.089375
11
15.253004
21
7.089375
0
LINE
8
left_outsideCutPath
10
15.253004
20
7.089375
11
15.253004
21
6.583129
0
LINE
8
left_outsideCutPath
10
15.253004
20
6.583129
11
15.1379341
21
6.583129
0
LINE
8
left_outsideCutPath
10
15.1379341
20
6.583129
11
15.135004
21
6.5801989
0
LINE
8
left_outsideCutPath
10
15.135004
20
6.5801989
11
15.135004
21
6.0598051
0
LINE
8
left_outsideCutPath
10
15.135004
20
6.0598051
11
15.1379341
21
6.056875
0
LINE
8
left_outsideCutPath
10
15.1379341
20
6.056875
11
15.253004
21
6.056875
0
LINE
8
left_outsideCutPath
10
15.253004
20
6.056875
11
15.253004
21
5.550629
0
LINE
8
left_outsideCutPath
10
15.253004
20
5.550629
11
15.1379341
21
5.550629
0
LINE
8
left_outsideCutPath
10
15.1379341
20
5.550629
11
15.135004
21
5.5476989
0
LINE
8
left_outsideCutPath
10
15.135004
20
5.5476989
11
15.135004
21
5.0273051
0
LINE
8
left_outsideCutPath
10
15.135004
20
5.0273051
11
15.1379341
21
5.024375
0
LINE
8
left_outsideCutPath
10
15.1379341
20
5.024375
11
15.253004
21
5.024375
0
LINE
8
left_outsideCutPath
10
15.253004
20
5.024375
11
15.253004
21
4.518129
0
LINE
8
left_outsideCutPath
10
15.253004
20
4.518129
11
15.1379341
21
4.518129
0
LINE
8
left_outsideCutPath
10
15.1379341
20
4.518129
11
15.135004
21
4.5151989
0
LINE
8
left_outsideCutPath
10
15.135004
20
4.5151989
11
15.135004
21
3.9948051
0
LINE
8
left_outsideCutPath
10
15.135004
20
3.9948051
11
15.1379341
21
3.991875
0
LINE
8
left_outsideCutPath
10
15.1379341
20
3.991875
11
15.253004
21
3.991875
0
LINE
8
left_outsideCutPath
10
15.253004
20
3.991875
11
15.253004
21
3.485629
0
LINE
8
left_outsideCutPath
10
15.253004
20
3.485629
11
15.1379341
21
3.485629
0
LINE
8
left_outsideCutPath
10
15.1379341
20
3.485629
11
15.135004
21
3.4826989
0
LINE
8
left_outsideCutPath
10
15.135004
20
3.4826989
11
15.135004
21
2.9623051
0
LINE
8
left_outsideCutPath
10
15.135004
20
2.9623051
11
15.1379341
21
2.959375
0
LINE
8
left_outsideCutPath
10
15.1379341
20
2.959375
11
15.253004
21
2.959375
0
LINE
8
left_outsideCutPath
10
15.253004
20
2.959375
11
15.253004
21
2.453129
0
LINE
8
left_outsideCutPath
10
15.253004
20
2.453129
11
15.1379341
21
2.453129
0
LINE
8
left_outsideCutPath
10
15.1379341
20
2.453129
11
15.135004
21
2.4501989
0
LINE
8
left_outsideCutPath
10
15.135004
20
2.4501989
11
15.135004
21
1.9298051
0
LINE
8
left_outsideCutPath
10
15.135004
20
1.9298051
11
15.1379341
21
1.926875
0
LINE
8
left_outsideCutPath
10
15.1379341
20
1.926875
11
15.253004
21
1.926875
0
LINE
8
left_outsideCutPath
10
15.253004
20
1.926875
11
15.253004
21
1.420629
0
LINE
8
left_outsideCutPath
10
15.253004
20
1.420629
11
15.1379341
21
1.420629
0
LINE
8
left_outsideCutPath
10
15.1379341
20
1.420629
11
15.135004
21
1.4176989
0
LINE
8
left_outsideCutPath
10
15.135004
20
1.4176989
11
15.135004
21
0.8973051
0
LINE
8
left_outsideCutPath
10
15.135004
20
0.8973051
11
15.1379341
21
0.894375
0
LINE
8
left_outsideCutPath
10
15.1379341
20
0.894375
11
15.253004
21
0.894375
0
LINE
8
left_outsideCutPath
10
15.253004
20
0.894375
11
15.253004
21
0.1279301
0
LINE
8
left_outsideCutPath
10
15.253004
20
0.1279301
11
15.2559341
21
0.125
0
LINE
8
left_outsideCutPath
10
15.2559341
20
0.125
11
15.6939529
21
0.125
0
LINE
8
left_outsideCutPath
10
15.6939529
20
0.125
11
15.696883
21
0.1279301
0
LINE
8
top_outsideCutPath
10
22.593137
20
0.1279301
11
22.593137
21
0.243
0
LINE
8
top_outsideCutPath
10
22.593137
20
0.243
11
23.099383
21
0.243
0
LINE
8
top_outsideCutPath
10
23.099383
20
0.243
11
23.099383
21
0.1279301
0
LINE
8
top_outsideCutPath
10
23.099383
20
0.1279301
11
23.1023131
21
0.125
0
LINE
8
top_outsideCutPath
10
23.1023131
20
0.125
11
23.6227069
21
0.125
0
LINE
8
top_outsideCutPath
10
23.6227069
20
0.125
11
23.625637
21
0.1279301
0
LINE
8
top_outsideCutPath
10
23.625637
20
0.1279301
11
23.625637
21
0.243
0
LINE
8
top_outsideCutPath
10
23.625637
20
0.243
11
24.131883
21
0.243
0
LINE
8
top_outsideCutPath
10
24.131883
20
0.243
11
24.131883
21
0.1279301
0
LINE
8
top_outsideCutPath
10
24.131883
20
0.1279301
11
24.1348131
21
0.125
0
LINE
8
top_outsideCutPath
10
24.1348131
20
0.125
11
24.6552069
21
0.125
0
LINE
8
top_outsideCutPath
10
24.6552069
20
0.125
11
24.658137
21
0.1279301
0
LINE
8
top_outsideCutPath
10
24.658137
20
0.1279301
11
24.658137
21
0.243
0
LINE
8
top_outsideCutPath
10
24.658137
20
0.243
11
25.164383
21
0.243
0
LINE
8
top_outsideCutPath
10
25.164383
20
0.243
11
25.164383
21
0.1279301
0
LINE
8
top_outsideCutPath
10
25.164383
20
0.1279301
11
25.1673131
21
0.125
0
LINE
8
top_outsideCutPath
10
25.1673131
20
0.125
11
25.6877069
21
0.125
0
LINE
8
top_outsideCutPath
10
25.6877069
20
0.125
11
25.690637
21
0.1279301
0
LINE
8
top_outsideCutPath
10
25.690637
20
0.1279301
11
25.690637
21
0.243
0
LINE
8
top_outsideCutPath
10
25.690637
20
0.243
11
26.196883
21
0.243
0
LINE
8
top_outsideCutPath
10
26.196883
20
0.243
11
26.196883
21
0.1279301
0
LINE
8
top_outsideCutPath
10
26.196883
20
0.1279301
11
26.1998131
21
0.125
0
LINE
8
top_outsideCutPath
10
26.1998131
20
0.125
11
26.7202069
21
0.125
0
LINE
8
top_outsideCutPath
10
26.7202069
20
0.125
11
26.723137
21
0.1279301
0
LINE
8
top_outsideCutPath
10
26.723137
20
0.1279301
11
26.723137
21
0.243
0
LINE
8
top_outsideCutPath
10
26.723137
20
0.243
11
27.229383
21
0.243
0
LINE
8
top_outsideCutPath
10
27.229383
20
0.243
11
27.229383
21
0.1279301
0
LINE
8
top_outsideCutPath
10
27.229383
20
0.1279301
11
27.2323131
21
0.125
0
LINE
8
top_outsideCutPath
10
27.2323131
20
0.125
11
27.7527069
21
0.125
0
LINE
8
top_outsideCutPath
10
27.7527069
20
0.125
11
27.755637
21
0.1279301
0
LINE
8
top_outsideCutPath
10
27.755637
20
0.1279301
11
27.755637
21
0.243
0
LINE
8
top_outsideCutPath
10
27.755637
20
0.243
11
28.261883
21
0.243
0
LINE
8
top_outsideCutPath
10
28.261883
20
0.243
11
28.261883
21
0.1279301
0
LINE
8
top_outsideCutPath
10
28.261883
20
0.1279301
11
28.2648131
21
0.125
0
LINE
8
top_outsideCutPath
10
28.2648131
20
0.125
11
28.7852069
21
0.125
0
LINE
8
top_outsideCutPath
10
28.7852069
20
0.125
11
28.788137
21
0.1279301
0
LINE
8
top_outsideCutPath
10
28.788137
20
0.1279301
11
28.788137
21
0.243
0
LINE
8
top_outsideCutPath
10
28.788137
20
0.243
11
29.294383
21
0.243
0
LINE
8
top_outsideCutPath
10
29.294383
20
0.243
11
29.294383
21
0.1279301
0
LINE
8
top_outsideCutPath
10
29.294383
20
0.1279301
11
29.2973131
21
0.125
0
LINE
8
top_outsideCutPath
10
29.2973131
20
0.125
11
29.8177069
21
0.125
0
LINE
8
top_outsideCutPath
10
29.8177069
20
0.125
11
29.820637
21
0.1279301
0
LINE
8
top_outsideCutPath
10
29.820637
20
0.1279301
11
29.820637
21
0.243
0
LINE
8
top_outsideCutPath
10
29.820637
20
0.243
11
30.326883
21
0.243
0
LINE
8
top_outsideCutPath
10
30.326883
20
0.243
11
30.326883
21
0.1279301
0
LINE
8
top_outsideCutPath
10
30.326883
20
0.1279301
11
30.3298131
21
0.125
0
LINE
8
top_outsideCutPath
10
30.3298131
20
0.125
11
30.8502069
21
0.125
0
LINE
8
top_outsideCutPath
10
30.8502069
20
0.125
11
30.853137
21
0.1279301
0
LINE
8
top_outsideCutPath
10
30.853137
20
0.1279301
11
30.853137
21
0.243
0
LINE
8
top_outsideCutPath
10
30.853137
20
0.243
11
31.359383
21
0.243
0
LINE
8
top_outsideCutPath
10
31.359383
20
0.243
11
31.359383
21
0.1279301
0
LINE
8
top_outsideCutPath
10
31.359383
20
0.1279301
11
31.3623131
21
0.125
0
LINE
8
top_outsideCutPath
10
31.3623131
20
0.125
11
31.8827069
21
0.125
0
LINE
8
top_outsideCutPath
10
31.8827069
20
0.125
11
31.885637
21
0.1279301
0
LINE
8
top_outsideCutPath
10
31.885637
20
0.1279301
11
31.885637
21
0.243
0
LINE
8
top_outsideCutPath
10
31.885637
20
0.243
11
32.391883
21
0.243
0
LINE
8
top_outsideCutPath
10
32.391883
20
0.243
11
32.391883
21
0.1279301
0
LINE
8
top_outsideCutPath
10
32.391883
20
0.1279301
11
32.3948131
21
0.125
0
LINE
8
top_outsideCutPath
10
32.3948131
20
0.125
11
32.9152069
21
0.125
0
LINE
8
top_outsideCutPath
10
32.9152069
20
0.125
11
32.918137
21
0.1279301
0
LINE
8
top_outsideCutPath
10
32.918137
20
0.1279301
11
32.918137
21
0.243
0
LINE
8
top_outsideCutPath
10
32.918137
20
0.243
11
33.424383
21
0.243
0
LINE
8
top_outsideCutPath
10
33.424383
20
0.243
11
33.424383
21
0.1279301
0
LINE
8
top_outsideCutPath
10
33.424383
20
0.1279301
11
33.4273131
21
0.125
0
LINE
8
top_outsideCutPath
10
33.4273131
20
0.125
11
33.9477069
21
0.125
0
LINE
8
top_outsideCutPath
10
33.9477069
20
0.125
11
33.950637
21
0.1279301
0
LINE
8
top_outsideCutPath
10
33.950637
20
0.1279301
11
33.950637
21
0.243
0
LINE
8
top_outsideCutPath
10
33.950637
20
0.243
11
34.456883
21
0.243
0
LINE
8
top_outsideCutPath
10
34.456883
20
0.243
11
34.456883
21
0.1279301
0
LINE
8
top_outsideCutPath
10
34.456883
20
0.1279301
11
34.4598131
21
0.125
0
LINE
8
top_outsideCutPath
10
34.4598131
20
0.125
11
34.9802069
21
0.125
0
LINE
8
top_outsideCutPath
10
34.9802069
20
0.125
11
34.983137
21
0.1279301
0
LINE
8
top_outsideCutPath
10
34.983137
20
0.1279301
11
34.983137
21
0.243
0
LINE
8
top_outsideCutPath
10
34.983137
20
0.243
11
35.9090819
21
0.243
0
LINE
8
top_outsideCutPath
10
35.9090819
20
0.243
11
35.912012
21
0.2459301
0
LINE
8
top_outsideCutPath
10
35.912012
20
0.2459301
11
35.912012
21
0.676875
0
LINE
8
top_outsideCutPath
10
35.912012
20
0.676875
11
36.0270819
21
0.676875
0
LINE
8
top_outsideCutPath
10
36.0270819
20
0.676875
11
36.030012
21
0.6798051
0
LINE
8
top_outsideCutPath
10
36.030012
20
0.6798051
11
36.030012
21
1.2001989
0
LINE
8
top_outsideCutPath
10
36.030012
20
1.2001989
11
36.0270819
21
1.203129
0
LINE
8
top_outsideCutPath
10
36.0270819
20
1.203129
11
35.912012
21
1.203129
0
LINE
8
top_outsideCutPath
10
35.912012
20
1.203129
11
35.912012
21
1.709375
0
LINE
8
top_outsideCutPath
10
35.912012
20
1.709375
11
36.0270819
21
1.709375
0
LINE
8
top_outsideCutPath
10
36.0270819
20
1.709375
11
36.030012
21
1.7123051
0
LINE
8
top_outsideCutPath
10
36.030012
20
1.7123051
11
36.030012
21
2.2326989
0
LINE
8
top_outsideCutPath
10
36.030012
20
2.2326989
11
36.0270819
21
2.235629
0
LINE
8
top_outsideCutPath
10
36.0270819
20
2.235629
11
35.912012
21
2.235629
0
LINE
8
top_outsideCutPath
10
35.912012
20
2.235629
11
35.912012
21
2.741875
0
LINE
8
top_outsideCutPath
10
35.912012
20
2.741875
11
36.0270819
21
2.741875
0
LINE
8
top_outsideCutPath
10
36.0270819
20
2.741875
11
36.030012
21
2.7448051
0
LINE
8
top_outsideCutPath
10
36.030012
20
2.7448051
11
36.030012
21
3.2651989
0
LINE
8
top_outsideCutPath
10
36.030012
20
3.2651989
11
36.0270819
21
3.268129
0
LINE
8
top_outsideCutPath
10
36.0270819
20
3.268129
11
35.912012
21
3.268129
0
LINE
8
top_outsideCutPath
10
35.912012
20
3.268129
11
35.912012
21
3.774375
0
LINE
8
top_outsideCutPath
10
35.912012
20
3.774375
11
36.0270819
21
3.774375
0
LINE
8
top_outsideCutPath
10
36.0270819
20
3.774375
11
36.030012
21
3.7773051
0
LINE
8
top_outsideCutPath
10
36.030012
20
3.7773051
11
36.030012
21
4.2976989
0
LINE
8
top_outsideCutPath
10
36.030012
20
4.2976989
11
36.0270819
21
4.300629
0
LINE
8
top_outsideCutPath
10
36.0270819
20
4.300629
11
35.912012
21
4.300629
0
LINE
8
top_outsideCutPath
10
35.912012
20
4.300629
11
35.912012
21
4.806875
0
LINE
8
top_outsideCutPath
10
35.912012
20
4.806875
11
36.0270819
21
4.806875
0
LINE
8
top_outsideCutPath
10
36.0270819
20
4.806875
11
36.030012
21
4.8098051
0
LINE
8
top_outsideCutPath
10
36.030012
20
4.8098051
11
36.030012
21
5.3301989
0
LINE
8
top_outsideCutPath
10
36.030012
20
5.3301989
11
36.0270819
21
5.333129
0
LINE
8
top_outsideCutPath
10
36.0270819
20
5.333129
11
35.912012
21
5.333129
0
LINE
8
top_outsideCutPath
10
35.912012
20
5.333129
11
35.912012
21
5.7640739
0
LINE
8
top_outsideCutPath
10
35.912012
20
5.7640739
11
35.9090819
21
5.767004
0
LINE
8
top_outsideCutPath
10
35.9090819
20
5.767004
11
34.983137
21
5.767004
0
LINE
8
top_outsideCutPath
10
34.983137
20
5.767004
11
34.983137
21
5.8820739
0
LINE
8
top_outsideCutPath
10
34.983137
20
5.8820739
11
34.9802069
21
5.885004
0
LINE
8
top_outsideCutPath
10
34.9802069
20
5.885004
11
34.4598131
21
5.885004
0
LINE
8
top_outsideCutPath
10
34.4598131
20
5.885004
11
34.456883
21
5.8820739
0
LINE
8
top_outsideCutPath
10
34.456883
20
5.8820739
11
34.456883
21
5.767004
0
LINE
8
top_outsideCutPath
10
34.456883
20
5.767004
11
33.950637
21
5.767004
0
LINE
8
top_outsideCutPath
10
33.950637
20
5.767004
11
33.950637
21
5.8820739
0
LINE
8
top_outsideCutPath
10
33.950637
20
5.8820739
11
33.9477069
21
5.885004
0
LINE
8
top_outsideCutPath
10
33.9477069
20
5.885004
11
33.4273131
21
5.885004
0
LINE
8
top_outsideCutPath
10
33.4273131
20
5.885004
11
33.424383
21
5.8820739
0
LINE
8
top_outsideCutPath
10
33.424383
20
5.8820739
11
33.424383
21
5.767004
0
LINE
8
top_outsideCutPath
10
33.424383
20
5.767004
11
32.918137
21
5.767004
0
LINE
8
top_outsideCutPath
10
32.918137
20
5.767004
11
32.918137
21
5.8820739
0
LINE
8
top_outsideCutPath
10
32.918137
20
5.8820739
11
32.9152069
21
5.885004
0
LINE
8
top_outsideCutPath
10
32.9152069
20
5.885004
11
32.3948131
21
5.885004
0
LINE
8
top_outsideCutPath
10
32.3948131
20
5.885004
11
32.391883
21
5.8820739
0
LINE
8
top_outsideCutPath
10
32.391883
20
5.8820739
11
32.391883
21
5.767004
0
LINE
8
top_outsideCutPath
10
32.391883
20
5.767004
11
31.885637
21
5.767004
0
LINE
8
top_outsideCutPath
10
31.885637
20
5.767004
11
31.885637
21
5.8820739
0
LINE
8
top_outsideCutPath
10
31.885637
20
5.8820739
11
31.8827069
21
5.885004
0
LINE
8
top_outsideCutPath
10
31.8827069
20
5.885004
11
31.3623131
21
5.885004
0
LINE
8
top_outsideCutPath
10
31.3623131
20
5.885004
11
31.359383
21
5.8820739
0
LINE
8
top_outsideCutPath
10
31.359383
20
5.8820739
11
31.359383
21
5.767004
0
LINE
8
top_outsideCutPath
10
31.359383
20
5.767004
11
30.853137
21
5.767004
0
LINE
8
top_outsideCutPath
10
30.853137
20
5.767004
11
30.853137
21
5.8820739
0
LINE
8
top_outsideCutPath
10
30.853137
20
5.8820739
11
30.8502069
21
5.885004
0
LINE
8
top_outsideCutPath
10
30.8502069
20
5.885004
11
30.3298131
21
5.885004
0
LINE
8
top_outsideCutPath
10
30.3298131
20
5.885004
11
30.326883
21
5.8820739
0
LINE
8
top_outsideCutPath
10
30.326883
20
5.8820739
11
30.326883
21
5.767004
0
LINE
8
top_outsideCutPath
10
30.326883
20
5.767004
11
29.820637
21
5.767004
0
LINE
8
top_outsideCutPath
10
29.820637
20
5.767004
11
29.820637
21
5.8820739
0
LINE
8
top_outsideCutPath
10
29.820637
20
5.8820739
11
29.8177069
21
5.885004
0
LINE
8
top_outsideCutPath
10
29.8177069
20
5.885004
11
29.2973131
21
5.885004
0
LINE
8
top_outsideCutPath
10
29.2973131
20
5.885004
11
29.294383
21
5.8820739
0
LINE
8
top_outsideCutPath
10
29.294383
20
5.8820739
11
29.294383
21
5.767004
0
LINE
8
top_outsideCutPath
10
29.294383
20
5.767004
11
28.788137
21
5.767004
0
LINE
8
top_outsideCutPath
10
28.788137
20
5.767004
11
28.788137
21
5.8820739
0
LINE
8
top_outsideCutPath
10
28.788137
20
5.8820739
11
28.7852069
21
5.885004
0
LINE
8
top_outsideCutPath
10
28.7852069
20
5.885004
11
28.2648131
21
5.885004
0
LINE
8
top_outsideCutPath
10
28.2648131
20
5.885004
11
28.261883
21
5.8820739
0
LINE
8
top_outsideCutPath
10
28.261883
20
5.8820739
11
28.261883
21
5.767004
0
LINE
8
top_outsideCutPath
10
28.261883
20
5.767004
11
27.755637
21
5.767004
0
LINE
8
top_outsideCutPath
10
27.755637
20
5.767004
11
27.755637
21
5.8820739
0
LINE
8
top_outsideCutPath
10
27.755637
20
5.8820739
11
27.7527069
21
5.885004
0
LINE
8
top_outsideCutPath
10
27.7527069
20
5.885004
11
27.2323131
21
5.885004
0
LINE
8
top_outsideCutPath
10
27.2323131
20
5.885004
11
27.229383
21
5.8820739
0
LINE
8
top_outsideCutPath
10
27.229383
20
5.8820739
11
27.229383
21
5.767004
0
LINE
8
top_outsideCutPath
10
27.229383
20
5.767004
11
26.723137
21
5.767004
0
LINE
8
top_outsideCutPath
10
26.723137
20
5.767004
11
26.723137
21
5.8820739
0
LINE
8
top_outsideCutPath
10
26.723137
20
5.8820739
11
26.7202069
21
5.885004
0
LINE
8
top_outsideCutPath
10
26.7202069
20
5.885004
11
26.1998131
21
5.885004
0
LINE
8
top_outsideCutPath
10
26.1998131
20
5.885004
11
26.196883
21
5.8820739
0
LINE
8
top_outsideCutPath
10
26.196883
20
5.8820739
11
26.196883
21
5.767004
0
LINE
8
top_outsideCutPath
10
26.196883
20
5.767004
11
25.690637
21
5.767004
0
LINE
8
top_outsideCutPath
10
25.690637
20
5.767004
11
25.690637
21
5.8820739
0
LINE
8
top_outsideCutPath
10
25.690637
20
5.8820739
11
25.6877069
21
5.885004
0
LINE
8
top_outsideCutPath
10
25.6877069
20
5.885004
11
25.1673131
21
5.885004
0
LINE
8
top_outsideCutPath
10
25.1673131
20
5.885004
11
25.164383
21
5.8820739
0
LINE
8
top_outsideCutPath
10
25.164383
20
5.8820739
11
25.164383
21
5.767004
0
LINE
8
top_outsideCutPath
10
25.164383
20
5.767004
11
24.658137
21
5.767004
0
LINE
8
top_outsideCutPath
10
24.658137
20
5.767004
11
24.658137
21
5.8820739
0
LINE
8
top_outsideCutPath
10
24.658137
20
5.8820739
11
24.6552069
21
5.885004
0
LINE
8
top_outsideCutPath
10
24.6552069
20
5.885004
11
24.1348131
21
5.885004
0
LINE
8
top_outsideCutPath
10
24.1348131
20
5.885004
11
24.131883
21
5.8820739
0
LINE
8
top_outsideCutPath
10
24.131883
20
5.8820739
11
24.131883
21
5.767004
0
LINE
8
top_outsideCutPath
10
24.131883
20
5.767004
11
23.625637
21
5.767004
0
LINE
8
top_outsideCutPath
10
23.625637
20
5.767004
11
23.625637
21
5.8820739
0
LINE
8
top_outsideCutPath
10
23.625637
20
5.8820739
11
23.6227069
21
5.885004
0
LINE
8
top_outsideCutPath
10
23.6227069
20
5.885004
11
23.1023131
21
5.885004
0
LINE
8
top_outsideCutPath
10
23.1023131
20
5.885004
11
23.099383
21
5.8820739
0
LINE
8
top_outsideCutPath
10
23.099383
20
5.8820739
11
23.099383
21
5.767004
0
LINE
8
top_outsideCutPath
10
23.099383
20
5.767004
11
22.593137
21
5.767004
0
LINE
8
top_outsideCutPath
10
22.593137
20
5.767004
11
22.593137
21
5.8820739
0
LINE
8
top_outsideCutPath
10
22.593137
20
5.8820739
11
22.5902069
21
5.885004
0
LINE
8
top_outsideCutPath
10
22.5902069
20
5.885004
11
22.0698131
21
5.885004
0
LINE
8
top_outsideCutPath
10
22.0698131
20
5.885004
11
22.066883
21
5.8820739
0
LINE
8
top_outsideCutPath
10
22.066883
20
5.8820739
11
22.066883
21
5.767004
0
LINE
8
top_outsideCutPath
10
22.066883
20
5.767004
11
21.1409381
21
5.767004
0
LINE
8
top_outsideCutPath
10
21.1409381
20
5.767004
11
21.138008
21
5.7640739
0
LINE
8
top_outsideCutPath
10
21.138008
20
5.7640739
11
21.138008
21
5.333129
0
LINE
8
top_outsideCutPath
10
21.138008
20
5.333129
11
21.0229381
21
5.333129
0
LINE
8
top_outsideCutPath
10
21.0229381
20
5.333129
11
21.020008
21
5.3301989
0
LINE
8
top_outsideCutPath
10
21.020008
20
5.3301989
11
21.020008
21
4.8098051
0
LINE
8
top_outsideCutPath
10
21.020008
20
4.8098051
11
21.0229381
21
4.806875
0
LINE
8
top_outsideCutPath
10
21.0229381
20
4.806875
11
21.138008
21
4.806875
0
LINE
8
top_outsideCutPath
10
21.138008
20
4.806875
11
21.138008
21
4.300629
0
LINE
8
top_outsideCutPath
10
21.138008
20
4.300629
11
21.0229381
21
4.300629
0
LINE
8
top_outsideCutPath
10
21.0229381
20
4.300629
11
21.020008
21
4.2976989
0
LINE
8
top_outsideCutPath
10
21.020008
20
4.2976989
11
21.020008
21
3.7773051
0
LINE
8
top_outsideCutPath
10
21.020008
20
3.7773051
11
21.0229381
21
3.774375
0
LINE
8
top_outsideCutPath
10
21.0229381
20
3.774375
11
21.138008
21
3.774375
0
LINE
8
top_outsideCutPath
10
21.138008
20
3.774375
11
21.138008
21
3.268129
0
LINE
8
top_outsideCutPath
10
21.138008
20
3.268129
11
21.0229381
21
3.268129
0
LINE
8
top_outsideCutPath
10
21.0229381
20
3.268129
11
21.020008
21
3.2651989
0
LINE
8
top_outsideCutPath
10
21.020008
20
3.2651989
11
21.020008
21
2.7448051
0
LINE
8
top_outsideCutPath
10
21.020008
20
2.7448051
11
21.0229381
21
2.741875
0
LINE
8
top_outsideCutPath
10
21.0229381
20
2.741875
11
21.138008
21
2.741875
0
LINE
8
top_outsideCutPath
10
21.138008
20
2.741875
11
21.138008
21
2.235629
0
LINE
8
top_outsideCutPath
10
21.138008
20
2.235629
11
21.0229381
21
2.235629
0
LINE
8
top_outsideCutPath
10
21.0229381
20
2.235629
11
21.020008
21
2.2326989
0
LINE
8
top_outsideCutPath
10
21.020008
20
2.2326989
11
21.020008
21
1.7123051
0
LINE
8
top_outsideCutPath
10
21.020008
20
1.7123051
11
21.0229381
21
1.709375
0
LINE
8
top_outsideCutPath
10
21.0229381
20
1.709375
11
21.138008
21
1.709375
0
LINE
8
top_outsideCutPath
10
21.138008
20
1.709375
11
21.138008
21
1.203129
0
LINE
8
top_outsideCutPath
10
21.138008
20
1.203129
11
21.0229381
21
1.203129
0
LINE
8
top_outsideCutPath
10
21.0229381
20
1.203129
11
21.020008
21
1.2001989
0
LINE
8
top_outsideCutPath
10
21.020008
20
1.2001989
11
21.020008
21
0.6798051
0
LINE
8
top_outsideCutPath
10
21.020008
20
0.6798051
11
21.0229381
21
0.676875
0
LINE
8
top_outsideCutPath
10
21.0229381
20
0.676875
11
21.138008
21
0.676875
0
LINE
8
top_outsideCutPath
10
21.138008
20
0.676875
11
21.138008
21
0.2459301
0
LINE
8
top_outsideCutPath
10
21.138008
20
0.2459301
11
21.1409381
21
0.243
0
LINE
8
top_outsideCutPath
10
21.1409381
20
0.243
11
22.066883
21
0.243
0
LINE
8
top_outsideCutPath
10
22.066883
20
0.243
11
22.066883
21
0.1279301
0
LINE
8
top_outsideCutPath
10
22.066883
20
0.1279301
11
22.0698131
21
0.125
0
LINE
8
top_outsideCutPath
10
22.0698131
20
0.125
11
22.5902069
21
0.125
0
LINE
8
top_outsideCutPath
10
22.5902069
20
0.125
11
22.593137
21
0.1279301
0
LINE
8
back_outsideCutPath
10
1.056879
20
8.5129341
11
1.056879
21
8.628004
0
LINE
8
back_outsideCutPath
10
1.056879
20
8.628004
11
1.563125
21
8.628004
0
LINE
8
back_outsideCutPath
10
1.563125
20
8.628004
11
1.563125
21
8.5129341
0
LINE
8
back_outsideCutPath
10
1.563125
20
8.5129341
11
1.5660551
21
8.510004
0
LINE
8
back_outsideCutPath
10
1.5660551
20
8.510004
11
2.0864489
21
8.510004
0
LINE
8
back_outsideCutPath
10
2.0864489
20
8.510004
11
2.089379
21
8.5129341
0
LINE
8
back_outsideCutPath
10
2.089379
20
8.5129341
11
2.089379
21
8.628004
0
LINE
8
back_outsideCutPath
10
2.089379
20
8.628004
11
2.595625
21
8.628004
0
LINE
8
back_outsideCutPath
10
2.595625
20
8.628004
11
2.595625
21
8.5129341
0
LINE
8
back_outsideCutPath
10
2.595625
20
8.5129341
11
2.5985551
21
8.510004
0
LINE
8
back_outsideCutPath
10
2.5985551
20
8.510004
11
3.1189489
21
8.510004
0
LINE
8
back_outsideCutPath
10
3.1189489
20
8.510004
11
3.121879
21
8.5129341
0
LINE
8
back_outsideCutPath
10
3.121879
20
8.5129341
11
3.121879
21
8.628004
0
LINE
8
back_outsideCutPath
10
3.121879
20
8.628004
11
3.628125
21
8.628004
0
LINE
8
back_outsideCutPath
10
3.628125
20
8.628004
11
3.628125
21
8.5129341
0
LINE
8
back_outsideCutPath
10
3.628125
20
8.5129341
11
3.6310551
21
8.510004
0
LINE
8
back_outsideCutPath
10
3.6310551
20
8.510004
11
4.1514489
21
8.510004
0
LINE
8
back_outsideCutPath
10
4.1514489
20
8.510004
11
4.154379
21
8.5129341
0
LINE
8
back_outsideCutPath
10
4.154379
20
8.5129341
11
4.154379
21
8.628004
0
LINE
8
back_outsideCutPath
10
4.154379
20
8.628004
11
4.660625
21
8.628004
0
LINE
8
back_outsideCutPath
10
4.660625
20
8.628004
11
4.660625
21
8.5129341
0
LINE
8
back_outsideCutPath
10
4.660625
20
8.5129341
11
4.6635551
21
8.510004
0
LINE
8
back_outsideCutPath
10
4.6635551
20
8.510004
11
5.1839489
21
8.510004
0
LINE
8
back_outsideCutPath
10
5.1839489
20
8.510004
11
5.186879
21
8.5129341
0
LINE
8
back_outsideCutPath
10
5.186879
20
8.5129341
11
5.186879
21
8.628004
0
LINE
8
back_outsideCutPath
10
5.186879
20
8.628004
11
5.693125
21
8.628004
0
LINE
8
back_outsideCutPath
10
5.693125
20
8.628004
11
5.693125
21
8.5129341
0
LINE
8
back_outsideCutPath
10
5.693125
20
8.5129341
11
5.6960551
21
8.510004
0
LINE
8
back_outsideCutPath
10
5.6960551
20
8.510004
11
6.2164489
21
8.510004
0
LINE
8
back_outsideCutPath
10
6.2164489
20
8.510004
11
6.219379
21
8.5129341
0
LINE
8
back_outsideCutPath
10
6.219379
20
8.5129341
11
6.219379
21
8.628004
0
LINE
8
back_outsideCutPath
10
6.219379
20
8.628004
11
6.725625
21
8.628004
0
LINE
8
back_outsideCutPath
10
6.725625
20
8.628004
11
6.725625
21
8.5129341
0
LINE
8
back_outsideCutPath
10
6.725625
20
8.5129341
11
6.7285551
21
8.510004
0
LINE
8
back_outsideCutPath
10
6.7285551
20
8.510004
11
7.2489489
21
8.510004
0
LINE
8
back_outsideCutPath
10
7.2489489
20
8.510004
11
7.251879
21
8.5129341
0
LINE
8
back_outsideCutPath
10
7.251879
20
8.5129341
11
7.251879
21
8.628004
0
LINE
8
back_outsideCutPath
10
7.251879
20
8.628004
11
7.758125
21
8.628004
0
LINE
8
back_outsideCutPath
10
7.758125
20
8.628004
11
7.758125
21
8.5129341
0
LINE
8
back_outsideCutPath
10
7.758125
20
8.5129341
11
7.7610551
21
8.510004
0
LINE
8
back_outsideCutPath
10
7.7610551
20
8.510004
11
8.2814489
21
8.510004
0
LINE
8
back_outsideCutPath
10
8.2814489
20
8.510004
11
8.284379
21
8.5129341
0
LINE
8
back_outsideCutPath
10
8.284379
20
8.5129341
11
8.284379
21
8.628004
0
LINE
8
back_outsideCutPath
10
8.284379
20
8.628004
11
8.790625
21
8.628004
0
LINE
8
back_outsideCutPath
10
8.790625
20
8.628004
11
8.790625
21
8.5129341
0
LINE
8
back_outsideCutPath
10
8.790625
20
8.5129341
11
8.7935551
21
8.510004
0
LINE
8
back_outsideCutPath
10
8.7935551
20
8.510004
11
9.3139489
21
8.510004
0
LINE
8
back_outsideCutPath
10
9.3139489
20
8.510004
11
9.316879
21
8.5129341
0
LINE
8
back_outsideCutPath
10
9.316879
20
8.5129341
11
9.316879
21
8.628004
0
LINE
8
back_outsideCutPath
10
9.316879
20
8.628004
11
9.823125
21
8.628004
0
LINE
8
back_outsideCutPath
10
9.823125
20
8.628004
11
9.823125
21
8.5129341
0
LINE
8
back_outsideCutPath
10
9.823125
20
8.5129341
11
9.8260551
21
8.510004
0
LINE
8
back_outsideCutPath
10
9.8260551
20
8.510004
11
10.3464489
21
8.510004
0
LINE
8
back_outsideCutPath
10
10.3464489
20
8.510004
11
10.349379
21
8.5129341
0
LINE
8
back_outsideCutPath
10
10.349379
20
8.5129341
11
10.349379
21
8.628004
0
LINE
8
back_outsideCutPath
10
10.349379
20
8.628004
11
10.855625
21
8.628004
0
LINE
8
back_outsideCutPath
10
10.855625
20
8.628004
11
10.855625
21
8.5129341
0
LINE
8
back_outsideCutPath
10
10.855625
20
8.5129341
11
10.8585551
21
8.510004
0
LINE
8
back_outsideCutPath
10
10.8585551
20
8.510004
11
11.3789489
21
8.510004
0
LINE
8
back_outsideCutPath
10
11.3789489
20
8.510004
11
11.381879
21
8.5129341
0
LINE
8
back_outsideCutPath
10
11.381879
20
8.5129341
11
11.381879
21
8.628004
0
LINE
8
back_outsideCutPath
10
11.381879
20
8.628004
11
11.888125
21
8.628004
0
LINE
8
back_outsideCutPath
10
11.888125
20
8.628004
11
11.888125
21
8.5129341
0
LINE
8
back_outsideCutPath
10
11.888125
20
8.5129341
11
11.8910551
21
8.510004
0
LINE
8
back_outsideCutPath
10
11.8910551
20
8.510004
11
12.4114489
21
8.510004
0
LINE
8
back_outsideCutPath
10
12.4114489
20
8.510004
11
12.414379
21
8.5129341
0
LINE
8
back_outsideCutPath
10
12.414379
20
8.5129341
11
12.414379
21
8.628004
0
LINE
8
back_outsideCutPath
10
12.414379
20
8.628004
11
12.920625
21
8.628004
0
LINE
8
back_outsideCutPath
10
12.920625
20
8.628004
11
12.920625
21
8.5129341
0
LINE
8
back_outsideCutPath
10
12.920625
20
8.5129341
11
12.9235551
21
8.510004
0
LINE
8
back_outsideCutPath
10
12.9235551
20
8.510004
11
13.4439489
21
8.510004
0
LINE
8
back_outsideCutPath
10
13.4439489
20
8.510004
11
13.446879
21
8.5129341
0
LINE
8
back_outsideCutPath
10
13.446879
20
8.5129341
11
13.446879
21
8.628004
0
LINE
8
back_outsideCutPath
10
13.446879
20
8.628004
11
13.953125
21
8.628004
0
LINE
8
back_outsideCutPath
10
13.953125
20
8.628004
11
13.953125
21
8.5129341
0
LINE
8
back_outsideCutPath
10
13.953125
20
8.5129341
11
13.9560551
21
8.510004
0
LINE
8
back_outsideCutPath
10
13.9560551
20
8.510004
11
15.0070739
21
8.510004
0
LINE
8
back_outsideCutPath
10
15.0070739
20
8.510004
11
15.010004
21
8.5129341
0
LINE
8
back_outsideCutPath
10
15.010004
20
8.5129341
11
15.010004
21
9.2864529
0
LINE
8
back_outsideCutPath
10
15.010004
20
9.2864529
11
15.0070739
21
9.289383
0
LINE
8
back_outsideCutPath
10
15.0070739
20
9.289383
11
14.892004
21
9.289383
0
LINE
8
back_outsideCutPath
10
14.892004
20
9.289383
11
14.892004
21
9.795629
0
LINE
8
back_outsideCutPath
10
14.892004
20
9.795629
11
15.0070739
21
9.795629
0
LINE
8
back_outsideCutPath
10
15.0070739
20
9.795629
11
15.010004
21
9.7985591
0
LINE
8
back_outsideCutPath
10
15.010004
20
9.7985591
11
15.010004
21
10.3189529
0
LINE
8
back_outsideCutPath
10
15.010004
20
10.3189529
11
15.0070739
21
10.321883
0
LINE
8
back_outsideCutPath
10
15.0070739
20
10.321883
11
14.892004
21
10.321883
0
LINE
8
back_outsideCutPath
10
14.892004
20
10.321883
11
14.892004
21
10.828129
0
LINE
8
back_outsideCutPath
10
14.892004
20
10.828129
11
15.0070739
21
10.828129
0
LINE
8
back_outsideCutPath
10
15.0070739
20
10.828129
11
15.010004
21
10.8310591
0
LINE
8
back_outsideCutPath
10
15.010004
20
10.8310591
11
15.010004
21
11.3514529
0
LINE
8
back_outsideCutPath
10
15.010004
20
11.3514529
11
15.0070739
21
11.354383
0
LINE
8
back_outsideCutPath
10
15.0070739
20
11.354383
11
14.892004
21
11.354383
0
LINE
8
back_outsideCutPath
10
14.892004
20
11.354383
11
14.892004
21
11.860629
0
LINE
8
back_outsideCutPath
10
14.892004
20
11.860629
11
15.0070739
21
11.860629
0
LINE
8
back_outsideCutPath
10
15.0070739
20
11.860629
11
15.010004
21
11.8635591
0
LINE
8
back_outsideCutPath
10
15.010004
20
11.8635591
11
15.010004
21
12.3839529
0
LINE
8
back_outsideCutPath
10
15.010004
20
12.3839529
11
15.0070739
21
12.386883
0
LINE
8
back_outsideCutPath
10
15.0070739
20
12.386883
11
14.892004
21
12.386883
0
LINE
8
back_outsideCutPath
10
14.892004
20
12.386883
11
14.892004
21
12.893129
0
LINE
8
back_outsideCutPath
10
14.892004
20
12.893129
11
15.0070739
21
12.893129
0
LINE
8
back_outsideCutPath
10
15.0070739
20
12.893129
11
15.010004
21
12.8960591
0
LINE
8
back_outsideCutPath
10
15.010004
20
12.8960591
11
15.010004
21
13.4164529
0
LINE
8
back_outsideCutPath
10
15.010004
20
13.4164529
11
15.0070739
21
13.419383
0
LINE
8
back_outsideCutPath
10
15.0070739
20
13.419383
11
14.892004
21
13.419383
0
LINE
8
back_outsideCutPath
10
14.892004
20
13.419383
11
14.892004
21
13.925629
0
LINE
8
back_outsideCutPath
10
14.892004
20
13.925629
11
15.0070739
21
13.925629
0
LINE
8
back_outsideCutPath
10
15.0070739
20
13.925629
11
15.010004
21
13.9285591
0
LINE
8
back_outsideCutPath
10
15.010004
20
13.9285591
11
15.010004
21
14.4489529
0
LINE
8
back_outsideCutPath
10
15.010004
20
14.4489529
11
15.0070739
21
14.451883
0
LINE
8
back_outsideCutPath
10
15.0070739
20
14.451883
11
14.892004
21
14.451883
0
LINE
8
back_outsideCutPath
10
14.892004
20
14.451883
11
14.892004
21
14.958129
0
LINE
8
back_outsideCutPath
10
14.892004
20
14.958129
11
15.0070739
21
14.958129
0
LINE
8
back_outsideCutPath
10
15.0070739
20
14.958129
11
15.010004
21
14.9610591
0
LINE
8
back_outsideCutPath
10
15.010004
20
14.9610591
11
15.010004
21
15.4814529
0
LINE
8
back_outsideCutPath
10
15.010004
20
15.4814529
11
15.0070739
21
15.484383
0
LINE
8
back_outsideCutPath
10
15.0070739
20
15.484383
11
14.892004
21
15.484383
0
LINE
8
back_outsideCutPath
10
14.892004
20
15.484383
11
14.892004
21
15.990629
0
LINE
8
back_outsideCutPath
10
14.892004
20
15.990629
11
15.0070739
21
15.990629
0
LINE
8
back_outsideCutPath
10
15.0070739
20
15.990629
11
15.010004
21
15.9935591
0
LINE
8
back_outsideCutPath
10
15.010004
20
15.9935591
11
15.010004
21
16.7670779
0
LINE
8
back_outsideCutPath
10
15.010004
20
16.7670779
11
15.0070739
21
16.770008
0
LINE
8
back_outsideCutPath
10
15.0070739
20
16.770008
11
13.9560551
21
16.770008
0
LINE
8
back_outsideCutPath
10
13.9560551
20
16.770008
11
13.953125
21
16.7670779
0
LINE
8
back_outsideCutPath
10
13.953125
20
16.7670779
11
13.953125
21
16.652008
0
LINE
8
back_outsideCutPath
10
13.953125
20
16.652008
11
13.446879
21
16.652008
0
LINE
8
back_outsideCutPath
10
13.446879
20
16.652008
11
13.446879
21
16.7670779
0
LINE
8
back_outsideCutPath
10
13.446879
20
16.7670779
11
13.4439489
21
16.770008
0
LINE
8
back_outsideCutPath
10
13.4439489
20
16.770008
11
12.9235551
21
16.770008
0
LINE
8
back_outsideCutPath
10
12.9235551
20
16.770008
11
12.920625
21
16.7670779
0
LINE
8
back_outsideCutPath
10
12.920625
20
16.7670779
11
12.920625
21
16.652008
0
LINE
8
back_outsideCutPath
10
12.920625
20
16.652008
11
12.414379
21
16.652008
0
LINE
8
back_outsideCutPath
10
12.414379
20
16.652008
11
12.414379
21
16.7670779
0
LINE
8
back_outsideCutPath
10
12.414379
20
16.7670779
11
12.4114489
21
16.770008
0
LINE
8
back_outsideCutPath
10
12.4114489
20
16.770008
11
11.8910551
21
16.770008
0
LINE
8
back_outsideCutPath
10
11.8910551
20
16.770008
11
11.888125
21
16.7670779
0
LINE
8
back_outsideCutPath
10
11.888125
20
16.7670779
11
11.888125
21
16.652008
0
LINE
8
back_outsideCutPath
10
11.888125
20
16.652008
11
11.381879
21
16.652008
0
LINE
8
back_outsideCutPath
10
11.381879
20
16.652008
11
11.381879
21
16.7670779
0
LINE
8
back_outsideCutPath
10
11.381879
20
16.7670779
11
11.3789489
21
16.770008
0
LINE
8
back_outsideCutPath
10
11.3789489
20
16.770008
11
10.8585551
21
16.770008
0
LINE
8
back_outsideCutPath
10
10.8585551
20
16.770008
11
10.855625
21
16.7670779
0
LINE
8
back_outsideCutPath
10
10.855625
20
16.7670779
11
10.855625
21
16.652008
0
LINE
8
back_outsideCutPath
10
10.855625
20
16.652008
11
10.349379
21
16.652008
0
LINE
8
back_outsideCutPath
10
10.349379
20
16.652008
11
10.349379
21
16.7670779
0
LINE
8
back_outsideCutPath
10
10.349379
20
16.7670779
11
10.3464489
21
16.770008
0
LINE
8
back_outsideCutPath
10
10.3464489
20
16.770008
11
9.8260551
21
16.770008
0
LINE
8
back_outsideCutPath
10
9.8260551
20
16.770008
11
9.823125
21
16.7670779
0
LINE
8
back_outsideCutPath
10
9.823125
20
16.7670779
11
9.823125
21
16.652008
0
LINE
8
back_outsideCutPath
10
9.823125
20
16.652008
11
9.316879
21
16.652008
0
LINE
8
back_outsideCutPath
10
9.316879
20
16.652008
11
9.316879
21
16.7670779
0
LINE
8
back_outsideCutPath
10
9.316879
20
16.7670779
11
9.3139489
21
16.770008
0
LINE
8
back_outsideCutPath
10
9.3139489
20
16.770008
11
8.7935551
21
16.770008
0
LINE
8
back_outsideCutPath
10
8.7935551
20
16.770008
11
8.790625
21
16.7670779
0
LINE
8
back_outsideCutPath
10
8.790625
20
16.7670779
11
8.790625
21
16.652008
0
LINE
8
back_outsideCutPath
10
8.790625
20
16.652008
11
8.284379
21
16.652008
0
LINE
8
back_outsideCutPath
10
8.284379
20
16.652008
11
8.284379
21
16.7670779
0
LINE
8
back_outsideCutPath
10
8.284379
20
16.7670779
11
8.2814489
21
16.770008
0
LINE
8
back_outsideCutPath
10
8.2814489
20
16.770008
11
7.7610551
21
16.770008
0
LINE
8
back_outsideCutPath
10
7.7610551
20
16.770008
11
7.758125
21
16.7670779
0
LINE
8
back_outsideCutPath
10
7.758125
20
16.7670779
11
7.758125
21
16.652008
0
LINE
8
back_outsideCutPath
10
7.758125
20
16.652008
11
7.251879
21
16.652008
0
LINE
8
back_outsideCutPath
10
7.251879
20
16.652008
11
7.251879
21
16.7670779
0
LINE
8
back_outsideCutPath
10
7.251879
20
16.7670779
11
7.2489489
21
16.770008
0
LINE
8
back_outsideCutPath
10
7.2489489
20
16.770008
11
6.7285551
21
16.770008
0
LINE
8
back_outsideCutPath
10
6.7285551
20
16.770008
11
6.725625
21
16.7670779
0
LINE
8
back_outsideCutPath
10
6.725625
20
16.7670779
11
6.725625
21
16.652008
0
LINE
8
back_outsideCutPath
10
6.725625
20
16.652008
11
6.219379
21
16.652008
0
LINE
8
back_outsideCutPath
10
6.219379
20
16.652008
11
6.219379
21
16.7670779
0
LINE
8
back_outsideCutPath
10
6.219379
20
16.7670779
11
6.2164489
21
16.770008
0
LINE
8
back_outsideCutPath
10
6.2164489
20
16.770008
11
5.6960551
21
16.770008
0
LINE
8
back_outsideCutPath
10
5.6960551
20
16.770008
11
5.693125
21
16.7670779
0
LINE
8
back_outsideCutPath
10
5.693125
20
16.7670779
11
5.693125
21
16.652008
0
LINE
8
back_outsideCutPath
10
5.693125
20
16.652008
11
5.186879
21
16.652008
0
LINE
8
back_outsideCutPath
10
5.186879
20
16.652008
11
5.186879
21
16.7670779
0
LINE
8
back_outsideCutPath
10
5.186879
20
16.7670779
11
5.1839489
21
16.770008
0
LINE
8
back_outsideCutPath
10
5.1839489
20
16.770008
11
4.6635551
21
16.770008
0
LINE
8
back_outsideCutPath
10
4.6635551
20
16.770008
11
4.660625
21
16.7670779
0
LINE
8
back_outsideCutPath
10
4.660625
20
16.7670779
11
4.660625
21
16.652008
0
LINE
8
back_outsideCutPath
10
4.660625
20
16.652008
11
4.154379
21
16.652008
0
LINE
8
back_outsideCutPath
10
4.154379
20
16.652008
11
4.154379
21
16.7670779
0
LINE
8
back_outsideCutPath
10
4.154379
20
16.7670779
11
4.1514489
21
16.770008
0
LINE
8
back_outsideCutPath
10
4.1514489
20
16.770008
11
3.6310551
21
16.770008
0
LINE
8
back_outsideCutPath
10
3.6310551
20
16.770008
11
3.628125
21
16.7670779
0
LINE
8
back_outsideCutPath
10
3.628125
20
16.7670779
11
3.628125
21
16.652008
0
LINE
8
back_outsideCutPath
10
3.628125
20
16.652008
11
3.121879
21
16.652008
0
LINE
8
back_outsideCutPath
10
3.121879
20
16.652008
11
3.121879
21
16.7670779
0
LINE
8
back_outsideCutPath
10
3.121879
20
16.7670779
11
3.1189489
21
16.770008
0
LINE
8
back_outsideCutPath
10
3.1189489
20
16.770008
11
2.5985551
21
16.770008
0
LINE
8
back_outsideCutPath
10
2.5985551
20
16.770008
11
2.595625
21
16.7670779
0
LINE
8
back_outsideCutPath
10
2.595625
20
16.7670779
11
2.595625
21
16.652008
0
LINE
8
back_outsideCutPath
10
2.595625
20
16.652008
11
2.089379
21
16.652008
0
LINE
8
back_outsideCutPath
10
2.089379
20
16.652008
11
2.089379
21
16.7670779
0
LINE
8
back_outsideCutPath
10
2.089379
20
16.7670779
11
2.0864489
21
16.770008
0
LINE
8
back_outsideCutPath
10
2.0864489
20
16.770008
11
1.5660551
21
16.770008
0
LINE
8
back_outsideCutPath
10
1.5660551
20
16.770008
11
1.563125
21
16.7670779
0
LINE
8
back_outsideCutPath
10
1.563125
20
16.7670779
11
1.563125
21
16.652008
0
LINE
8
back_outsideCutPath
10
1.563125
20
16.652008
11
1.056879
21
16.652008
0
LINE
8
back_outsideCutPath
10
1.056879
20
16.652008
11
1.056879
21
16.7670779
0
LINE
8
back_outsideCutPath
10
1.056879
20
16.7670779
11
1.0539489
21
16.770008
0
LINE
8
back_outsideCutPath
10
1.0539489
20
16.770008
11
0.0029301
21
16.770008
0
LINE
8
back_outsideCutPath
10
0.0029301
20
16.770008
11
0
21
16.7670779
0
LINE
8
back_outsideCutPath
10
0
20
16.7670779
11
0
21
15.9935591
0
LINE
8
back_outsideCutPath
10
0
20
15.9935591
11
0.0029301
21
15.990629
0
LINE
8
back_outsideCutPath
10
0.0029301
20
15.990629
11
0.118
21
15.990629
0
LINE
8
back_outsideCutPath
10
0.118
20
15.990629
11
0.118
21
15.484383
0
LINE
8
back_outsideCutPath
10
0.118
20
15.484383
11
0.0029301
21
15.484383
0
LINE
8
back_outsideCutPath
10
0.0029301
20
15.484383
11
0
21
15.4814529
0
LINE
8
back_outsideCutPath
10
0
20
15.4814529
11
0
21
14.9610591
0
LINE
8
back_outsideCutPath
10
0
20
14.9610591
11
0.0029301
21
14.958129
0
LINE
8
back_outsideCutPath
10
0.0029301
20
14.958129
11
0.118
21
14.958129
0
LINE
8
back_outsideCutPath
10
0.118
20
14.958129
11
0.118
21
14.451883
0
LINE
8
back_outsideCutPath
10
0.118
20
14.451883
11
0.0029301
21
14.451883
0
LINE
8
back_outsideCutPath
10
0.0029301
20
14.451883
11
0
21
14.4489529
0
LINE
8
back_outsideCutPath
10
0
20
14.4489529
11
0
21
13.9285591
0
LINE
8
back_outsideCutPath
10
0
20
13.9285591
11
0.0029301
21
13.925629
0
LINE
8
back_outsideCutPath
10
0.0029301
20
13.925629
11
0.118
21
13.925629
0
LINE
8
back_outsideCutPath
10
0.118
20
13.925629
11
0.118
21
13.419383
0
LINE
8
back_outsideCutPath
10
0.118
20
13.419383
11
0.0029301
21
13.419383
0
LINE
8
back_outsideCutPath
10
0.0029301
20
13.419383
11
0
21
13.4164529
0
LINE
8
back_outsideCutPath
10
0
20
13.4164529
11
0
21
12.8960591
0
LINE
8
back_outsideCutPath
10
0
20
12.8960591
11
0.0029301
21
12.893129
0
LINE
8
back_outsideCutPath
10
0.0029301
20
12.893129
11
0.118
21
12.893129
0
LINE
8
back_outsideCutPath
10
0.118
20
12.893129
11
0.118
21
12.386883
0
LINE
8
back_outsideCutPath
10
0.118
20
12.386883
11
0.0029301
21
12.386883
0
LINE
8
back_outsideCutPath
10
0.0029301
20
12.386883
11
0
21
12.3839529
0
LINE
8
back_outsideCutPath
10
0
20
12.3839529
11
0
21
11.8635591
0
LINE
8
back_outsideCutPath
10
0
20
11.8635591
11
0.0029301
21
11.860629
0
LINE
8
back_outsideCutPath
10
0.0029301
20
11.860629
11
0.118
21
11.860629
0
LINE
8
back_outsideCutPath
10
0.118
20
11.860629
11
0.118
21
11.354383
0
LINE
8
back_outsideCutPath
10
0.118
20
11.354383
11
0.0029301
21
11.354383
0
LINE
8
back_outsideCutPath
10
0.0029301
20
11.354383
11
0
21
11.3514529
0
LINE
8
back_outsideCutPath
10
0
20
11.3514529
11
0
21
10.8310591
0
LINE
8
back_outsideCutPath
10
0
20
10.8310591
11
0.0029301
21
10.828129
0
LINE
8
back_outsideCutPath
10
0.0029301
20
10.828129
11
0.118
21
10.828129
0
LINE
8
back_outsideCutPath
10
0.118
20
10.828129
11
0.118
21
10.321883
0
LINE
8
back_outsideCutPath
10
0.118
20
10.321883
11
0.0029301
21
10.321883
0
LINE
8
back_outsideCutPath
10
0.0029301
20
10.321883
11
0
21
10.3189529
0
LINE
8
back_outsideCutPath
10
0
20
10.3189529
11
0
21
9.7985591
0
LINE
8
back_outsideCutPath
10
0
20
9.7985591
11
0.0029301
21
9.795629
0
LINE
8
back_outsideCutPath
10
0.0029301
20
9.795629
11
0.118
21
9.795629
0
LINE
8
back_outsideCutPath
10
0.118
20
9.795629
11
0.118
21
9.289383
0
LINE
8
back_outsideCutPath
10
0.118
20
9.289383
11
0.0029301
21
9.289383
0
LINE
8
back_outsideCutPath
10
0.0029301
20
9.289383
11
0
21
9.2864529
0
LINE
8
back_outsideCutPath
10
0
20
9.2864529
11
0
21
8.5129341
0
LINE
8
back_outsideCutPath
10
0
20
8.5129341
11
0.0029301
21
8.510004
0
LINE
8
back_outsideCutPath
10
0.0029301
20
8.510004
11
1.0539489
21
8.510004
0
LINE
8
back_outsideCutPath
10
1.0539489
20
8.510004
11
1.056879
21
8.5129341
0
LINE
8
right_outsideCutPath
10
15.696883
20
8.5129341
11
15.696883
21
8.628004
0
LINE
8
right_outsideCutPath
10
15.696883
20
8.628004
11
16.203129
21
8.628004
0
LINE
8
right_outsideCutPath
10
16.203129
20
8.628004
11
16.203129
21
8.5129341
0
LINE
8
right_outsideCutPath
10
16.203129
20
8.5129341
11
16.2060591
21
8.510004
0
LINE
8
right_outsideCutPath
10
16.2060591
20
8.510004
11
16.7264529
21
8.510004
0
LINE
8
right_outsideCutPath
10
16.7264529
20
8.510004
11
16.729383
21
8.5129341
0
LINE
8
right_outsideCutPath
10
16.729383
20
8.5129341
11
16.729383
21
8.628004
0
LINE
8
right_outsideCutPath
10
16.729383
20
8.628004
11
17.235629
21
8.628004
0
LINE
8
right_outsideCutPath
10
17.235629
20
8.628004
11
17.235629
21
8.5129341
0
LINE
8
right_outsideCutPath
10
17.235629
20
8.5129341
11
17.2385591
21
8.510004
0
LINE
8
right_outsideCutPath
10
17.2385591
20
8.510004
11
17.7589529
21
8.510004
0
LINE
8
right_outsideCutPath
10
17.7589529
20
8.510004
11
17.761883
21
8.5129341
0
LINE
8
right_outsideCutPath
10
17.761883
20
8.5129341
11
17.761883
21
8.628004
0
LINE
8
right_outsideCutPath
10
17.761883
20
8.628004
11
18.268129
21
8.628004
0
LINE
8
right_outsideCutPath
10
18.268129
20
8.628004
11
18.268129
21
8.5129341
0
LINE
8
right_outsideCutPath
10
18.268129
20
8.5129341
11
18.2710591
21
8.510004
0
LINE
8
right_outsideCutPath
10
18.2710591
20
8.510004
11
18.7914529
21
8.510004
0
LINE
8
right_outsideCutPath
10
18.7914529
20
8.510004
11
18.794383
21
8.5129341
0
LINE
8
right_outsideCutPath
10
18.794383
20
8.5129341
11
18.794383
21
8.628004
0
LINE
8
right_outsideCutPath
10
18.794383
20
8.628004
11
19.300629
21
8.628004
0
LINE
8
right_outsideCutPath
10
19.300629
20
8.628004
11
19.300629
21
8.5129341
0
LINE
8
right_outsideCutPath
10
19.300629
20
8.5129341
11
19.3035591
21
8.510004
0
LINE
8
right_outsideCutPath
10
19.3035591
20
8.510004
11
19.8239529
21
8.510004
0
LINE
8
right_outsideCutPath
10
19.8239529
20
8.510004
11
19.826883
21
8.5129341
0
LINE
8
right_outsideCutPath
10
19.826883
20
8.5129341
11
19.826883
21
8.628004
0
LINE
8
right_outsideCutPath
10
19.826883
20
8.628004
11
20.333129
21
8.628004
0
LINE
8
right_outsideCutPath
10
20.333129
20
8.628004
11
20.333129
21
8.5129341
0
LINE
8
right_outsideCutPath
10
20.333129
20
8.5129341
11
20.3360591
21
8.510004
0
LINE
8
right_outsideCutPath
10
20.3360591
20
8.510004
11
20.7740779
21
8.510004
0
LINE
8
right_outsideCutPath
10
20.7740779
20
8.510004
11
20.777008
21
8.5129341
0
LINE
8
right_outsideCutPath
10
20.777008
20
8.5129341
11
20.777008
21
9.279379
0
LINE
8
right_outsideCutPath
10
20.777008
20
9.279379
11
20.8920779
21
9.279379
0
LINE
8
right_outsideCutPath
10
20.8920779
20
9.279379
11
20.895008
21
9.2823091
0
LINE
8
right_outsideCutPath
10
20.895008
20
9.2823091
11
20.895008
21
9.8027029
0
LINE
8
right_outsideCutPath
10
20.895008
20
9.8027029
11
20.8920779
21
9.805633
0
LINE
8
right_outsideCutPath
10
20.8920779
20
9.805633
11
20.777008
21
9.805633
0
LINE
8
right_outsideCutPath
10
20.777008
20
9.805633
11
20.777008
21
10.311879
0
LINE
8
right_outsideCutPath
10
20.777008
20
10.311879
11
20.8920779
21
10.311879
0
LINE
8
right_outsideCutPath
10
20.8920779
20
10.311879
11
20.895008
21
10.3148091
0
LINE
8
right_outsideCutPath
10
20.895008
20
10.3148091
11
20.895008
21
10.8352029
0
LINE
8
right_outsideCutPath
10
20.895008
20
10.8352029
11
20.8920779
21
10.838133
0
LINE
8
right_outsideCutPath
10
20.8920779
20
10.838133
11
20.777008
21
10.838133
0
LINE
8
right_outsideCutPath
10
20.777008
20
10.838133
11
20.777008
21
11.344379
0
LINE
8
right_outsideCutPath
10
20.777008
20
11.344379
11
20.8920779
21
11.344379
0
LINE
8
right_outsideCutPath
10
20.8920779
20
11.344379
11
20.895008
21
11.3473091
0
LINE
8
right_outsideCutPath
10
20.895008
20
11.3473091
11
20.895008
21
11.8677029
0
LINE
8
right_outsideCutPath
10
20.895008
20
11.8677029
11
20.8920779
21
11.870633
0
LINE
8
right_outsideCutPath
10
20.8920779
20
11.870633
11
20.777008
21
11.870633
0
LINE
8
right_outsideCutPath
10
20.777008
20
11.870633
11
20.777008
21
12.376879
0
LINE
8
right_outsideCutPath
10
20.777008
20
12.376879
11
20.8920779
21
12.376879
0
LINE
8
right_outsideCutPath
10
20.8920779
20
12.376879
11
20.895008
21
12.3798091
0
LINE
8
right_outsideCutPath
10
20.895008
20
12.3798091
11
20.895008
21
12.9002029
0
LINE
8
right_outsideCutPath
10
20.895008
20
12.9002029
11
20.8920779
21
12.903133
0
LINE
8
right_outsideCutPath
10
20.8920779
20
12.903133
11
20.777008
21
12.903133
0
LINE
8
right_outsideCutPath
10
20.777008
20
12.903133
11
20.777008
21
13.409379
0
LINE
8
right_outsideCutPath
10
20.777008
20
13.409379
11
20.8920779
21
13.409379
0
LINE
8
right_outsideCutPath
10
20.8920779
20
13.409379
11
20.895008
21
13.4123091
0
LINE
8
right_outsideCutPath
10
20.895008
20
13.4123091
11
20.895008
21
13.9327029
0
LINE
8
right_outsideCutPath
10
20.895008
20
13.9327029
11
20.8920779
21
13.935633
0
LINE
8
right_outsideCutPath
10
20.8920779
20
13.935633
11
20.777008
21
13.935633
0
LINE
8
right_outsideCutPath
10
20.777008
20
13.935633
11
20.777008
21
14.441879
0
LINE
8
right_outsideCutPath
10
20.777008
20
14.441879
11
20.8920779
21
14.441879
0
LINE
8
right_outsideCutPath
10
20.8920779
20
14.441879
11
20.895008
21
14.4448091
0
LINE
8
right_outsideCutPath
10
20.895008
20
14.4448091
11
20.895008
21
14.9652029
0
LINE
8
right_outsideCutPath
10
20.895008
20
14.9652029
11
20.8920779
21
14.968133
0
LINE
8
right_outsideCutPath
10
20.8920779
20
14.968133
11
20.777008
21
14.968133
0
LINE
8
right_outsideCutPath
10
20.777008
20
14.968133
11
20.777008
21
15.474379
0
LINE
8
right_outsideCutPath
10
20.777008
20
15.474379
11
20.8920779
21
15.474379
0
LINE
8
right_outsideCutPath
10
20.8920779
20
15.474379
11
20.895008
21
15.4773091
0
LINE
8
right_outsideCutPath
10
20.895008
20
15.4773091
11
20.895008
21
15.9977029
0
LINE
8
right_outsideCutPath
10
20.895008
20
15.9977029
11
20.8920779
21
16.000633
0
LINE
8
right_outsideCutPath
10
20.8920779
20
16.000633
11
20.777008
21
16.000633
0
LINE
8
right_outsideCutPath
10
20.777008
20
16.000633
11
20.777008
21
16.7670779
0
LINE
8
right_outsideCutPath
10
20.777008
20
16.7670779
11
20.7740779
21
16.770008
0
LINE
8
right_outsideCutPath
10
20.7740779
20
16.770008
11
20.3360591
21
16.770008
0
LINE
8
right_outsideCutPath
10
20.3360591
20
16.770008
11
20.333129
21
16.7670779
0
LINE
8
right_outsideCutPath
10
20.333129
20
16.7670779
11
20.333129
21
16.652008
0
LINE
8
right_outsideCutPath
10
20.333129
20
16.652008
11
19.826883
21
16.652008
0
LINE
8
right_outsideCutPath
10
19.826883
20
16.652008
11
19.826883
21
16.7670779
0
LINE
8
right_outsideCutPath
10
19.826883
20
16.7670779
11
19.8239529
21
16.770008
0
LINE
8
right_outsideCutPath
10
19.8239529
20
16.770008
11
19.3035591
21
16.770008
0
LINE
8
right_outsideCutPath
10
19.3035591
20
16.770008
11
19.300629
21
16.7670779
0
LINE
8
right_outsideCutPath
10
19.300629
20
16.7670779
11
19.300629
21
16.652008
0
LINE
8
right_outsideCutPath
10
19.300629
20
16.652008
11
18.794383
21
16.652008
0
LINE
8
right_outsideCutPath
10
18.794383
20
16.652008
11
18.794383
21
16.7670779
0
LINE
8
right_outsideCutPath
10
18.794383
20
16.7670779
11
18.7914529
21
16.770008
0
LINE
8
right_outsideCutPath
10
18.7914529
20
16.770008
11
18.2710591
21
16.770008
0
LINE
8
right_outsideCutPath
10
18.2710591
20
16.770008
11
18.268129
21
16.7670779
0
LINE
8
right_outsideCutPath
10
18.268129
20
16.7670779
11
18.268129
21
16.652008
0
LINE
8
right_outsideCutPath
10
18.268129
20
16.652008
11
17.761883
21
16.652008
0
LINE
8
right_outsideCutPath
10
17.761883
20
16.652008
11
17.761883
21
16.7670779
0
LINE
8
right_outsideCutPath
10
17.761883
20
16.7670779
11
17.7589529
21
16.770008
0
LINE
8
right_outsideCutPath
10
17.7589529
20
16.770008
11
17.2385591
21
16.770008
0
LINE
8
right_outsideCutPath
10
17.2385591
20
16.770008
11
17.235629
21
16.7670779
0
LINE
8
right_outsideCutPath
10
17.235629
20
16.7670779
11
17.235629
21
16.652008
0
LINE
8
right_outsideCutPath
10
17.235629
20
16.652008
11
16.729383
21
16.652008
0
LINE
8
right_outsideCutPath
10
16.729383
20
16.652008
11
16.729383
21
16.7670779
0
LINE
8
right_outsideCutPath
10
16.729383
20
16.7670779
11
16.7264529
21
16.770008
0
LINE
8
right_outsideCutPath
10
16.7264529
20
16.770008
11
16.2060591
21
16.770008
0
LINE
8
right_outsideCutPath
10
16.2060591
20
16.770008
11
16.203129
21
16.7670779
0
LINE
8
right_outsideCutPath
10
16.203129
20
16.7670779
11
16.203129
21
16.652008
0
LINE
8
right_outsideCutPath
10
16.203129
20
16.652008
11
15.696883
21
16.652008
0
LINE
8
right_outsideCutPath
10
15.696883
20
16.652008
11
15.696883
21
16.7670779
0
LINE
8
right_outsideCutPath
10
15.696883
20
16.7670779
11
15.6939529
21
16.770008
0
LINE
8
right_outsideCutPath
10
15.6939529
20
16.770008
11
15.2559341
21
16.770008
0
LINE
8
right_outsideCutPath
10
15.2559341
20
16.770008
11
15.253004
21
16.7670779
0
LINE
8
right_outsideCutPath
10
15.253004
20
16.7670779
11
15.253004
21
16.000633
0
LINE
8
right_outsideCutPath
10
15.253004
20
16.000633
11
15.1379341
21
16.000633
0
LINE
8
right_outsideCutPath
10
15.1379341
20
16.000633
11
15.135004
21
15.9977029
0
LINE
8
right_outsideCutPath
10
15.135004
20
15.9977029
11
15.135004
21
15.4773091
0
LINE
8
right_outsideCutPath
10
15.135004
20
15.4773091
11
15.1379341
21
15.474379
0
LINE
8
right_outsideCutPath
10
15.1379341
20
15.474379
11
15.253004
21
15.474379
0
LINE
8
right_outsideCutPath
10
15.253004
20
15.474379
11
15.253004
21
14.968133
0
LINE
8
right_outsideCutPath
10
15.253004
20
14.968133
11
15.1379341
21
14.968133
0
LINE
8
right_outsideCutPath
10
15.1379341
20
14.968133
11
15.135004
21
14.9652029
0
LINE
8
right_outsideCutPath
10
15.135004
20
14.9652029
11
15.135004
21
14.4448091
0
LINE
8
right_outsideCutPath
10
15.135004
20
14.4448091
11
15.1379341
21
14.441879
0
LINE
8
right_outsideCutPath
10
15.1379341
20
14.441879
11
15.253004
21
14.441879
0
LINE
8
right_outsideCutPath
10
15.253004
20
14.441879
11
15.253004
21
13.935633
0
LINE
8
right_outsideCutPath
10
15.253004
20
13.935633
11
15.1379341
21
13.935633
0
LINE
8
right_outsideCutPath
10
15.1379341
20
13.935633
11
15.135004
21
13.9327029
0
LINE
8
right_outsideCutPath
10
15.135004
20
13.9327029
11
15.135004
21
13.4123091
0
LINE
8
right_outsideCutPath
10
15.135004
20
13.4123091
11
15.1379341
21
13.409379
0
LINE
8
right_outsideCutPath
10
15.1379341
20
13.409379
11
15.253004
21
13.409379
0
LINE
8
right_outsideCutPath
10
15.253004
20
13.409379
11
15.253004
21
12.903133
0
LINE
8
right_outsideCutPath
10
15.253004
20
12.903133
11
15.1379341
21
12.903133
0
LINE
8
right_outsideCutPath
10
15.1379341
20
12.903133
11
15.135004
21
12.9002029
0
LINE
8
right_outsideCutPath
10
15.135004
20
12.9002029
11
15.135004
21
12.3798091
0
LINE
8
right_outsideCutPath
10
15.135004
20
12.3798091
11
15.1379341
21
12.376879
0
LINE
8
right_outsideCutPath
10
15.1379341
20
12.376879
11
15.253004
21
12.376879
0
LINE
8
right_outsideCutPath
10
15.253004
20
12.376879
11
15.253004
21
11.870633
0
LINE
8
right_outsideCutPath
10
15.253004
20
11.870633
11
15.1379341
21
11.870633
0
LINE
8
right_outsideCutPath
10
15.1379341
20
11.870633
11
15.135004
21
11.8677029
0
LINE
8
right_outsideCutPath
10
15.135004
20
11.8677029
11
15.135004
21
11.3473091
0
LINE
8
right_outsideCutPath
10
15.135004
20
11.3473091
11
15.1379341
21
11.344379
0
LINE
8
right_outsideCutPath
10
15.1379341
20
11.344379
11
15.253004
21
11.344379
0
LINE
8
right_outsideCutPath
10
15.253004
20
11.344379
11
15.253004
21
10.838133
0
LINE
8
right_outsideCutPath
10
15.253004
20
10.838133
11
15.1379341
21
10.838133
0
LINE
8
right_outsideCutPath
10
15.1379341
20
10.838133
11
15.135004
21
10.8352029
0
LINE
8
right_outsideCutPath
10
15.135004
20
10.8352029
11
15.135004
21
10.3148091
0
LINE
8
right_outsideCutPath
10
15.135004
20
10.3148091
11
15.1379341
21
10.311879
0
LINE
8
right_outsideCutPath
10
15.1379341
20
10.311879
11
15.253004
21
10.311879
0
LINE
8
right_outsideCutPath
10
15.253004
20
10.311879
11
15.253004
21
9.805633
0
LINE
8
right_outsideCutPath
10
15.253004
20
9.805633
11
15.1379341
21
9.805633
0
LINE
8
right_outsideCutPath
10
15.1379341
20
9.805633
11
15.135004
21
9.8027029
0
LINE
8
right_outsideCutPath
10
15.135004
20
9.8027029
11
15.135004
21
9.2823091
0
LINE
8
right_outsideCutPath
10
15.135004
20
9.2823091
11
15.1379341
21
9.279379
0
LINE
8
right_outsideCutPath
10
15.1379341
20
9.279379
11
15.253004
21
9.279379
0
LINE
8
right_outsideCutPath
10
15.253004
20
9.279379
11
15.253004
21
8.5129341
0
LINE
8
right_outsideCutPath
10
15.253004
20
8.5129341
11
15.2559341
21
8.510004
0
LINE
8
right_outsideCutPath
10
15.2559341
20
8.510004
11
15.6939529
21
8.510004
0
LINE
8
right_outsideCutPath
10
15.6939529
20
8.510004
11
15.696883
21
8.5129341
0
LINE
8
bottom_outsideCutPath
10
22.593137
20
6.0129341
11
22.593137
21
6.128004
0
LINE
8
bottom_outsideCutPath
10
22.593137
20
6.128004
11
23.099383
21
6.128004
0
LINE
8
bottom_outsideCutPath
10
23.099383
20
6.128004
11
23.099383
21
6.0129341
0
LINE
8
bottom_outsideCutPath
10
23.099383
20
6.0129341
11
23.1023131
21
6.010004
0
LINE
8
bottom_outsideCutPath
10
23.1023131
20
6.010004
11
23.6227069
21
6.010004
0
LINE
8
bottom_outsideCutPath
10
23.6227069
20
6.010004
11
23.625637
21
6.0129341
0
LINE
8
bottom_outsideCutPath
10
23.625637
20
6.0129341
11
23.625637
21
6.128004
0
LINE
8
bottom_outsideCutPath
10
23.625637
20
6.128004
11
24.131883
21
6.128004
0
LINE
8
bottom_outsideCutPath
10
24.131883
20
6.128004
11
24.131883
21
6.0129341
0
LINE
8
bottom_outsideCutPath
10
24.131883
20
6.0129341
11
24.1348131
21
6.010004
0
LINE
8
bottom_outsideCutPath
10
24.1348131
20
6.010004
11
24.6552069
21
6.010004
0
LINE
8
bottom_outsideCutPath
10
24.6552069
20
6.010004
11
24.658137
21
6.0129341
0
LINE
8
bottom_outsideCutPath
10
24.658137
20
6.0129341
11
24.658137
21
6.128004
0
LINE
8
bottom_outsideCutPath
10
24.658137
20
6.128004
11
25.164383
21
6.128004
0
LINE
8
bottom_outsideCutPath
10
25.164383
20
6.128004
11
25.164383
21
6.0129341
0
LINE
8
bottom_outsideCutPath
10
25.164383
20
6.0129341
11
25.1673131
21
6.010004
0
LINE
8
bottom_outsideCutPath
10
25.1673131
20
6.010004
11
25.6877069
21
6.010004
0
LINE
8
bottom_outsideCutPath
10
25.6877069
20
6.010004
11
25.690637
21
6.0129341
0
LINE
8
bottom_outsideCutPath
10
25.690637
20
6.0129341
11
25.690637
21
6.128004
0
LINE
8
bottom_outsideCutPath
10
25.690637
20
6.128004
11
26.196883
21
6.128004
0
LINE
8
bottom_outsideCutPath
10
26.196883
20
6.128004
11
26.196883
21
6.0129341
0
LINE
8
bottom_outsideCutPath
10
26.196883
20
6.0129341
11
26.1998131
21
6.010004
0
LINE
8
bottom_outsideCutPath
10
26.1998131
20
6.010004
11
26.7202069
21
6.010004
0
LINE
8
bottom_outsideCutPath
10
26.7202069
20
6.010004
11
26.723137
21
6.0129341
0
LINE
8
bottom_outsideCutPath
10
26.723137
20
6.0129341
11
26.723137
21
6.128004
0
LINE
8
bottom_outsideCutPath
10
26.723137
20
6.128004
11
27.229383
21
6.128004
0
LINE
8
bottom_outsideCutPath
10
27.229383
20
6.128004
11
27.229383
21
6.0129341
0
LINE
8
bottom_outsideCutPath
10
27.229383
20
6.0129341
11
27.2323131
21
6.010004
0
LINE
8
bottom_outsideCutPath
10
27.2323131
20
6.010004
11
27.7527069
21
6.010004
0
LINE
8
bottom_outsideCutPath
10
27.7527069
20
6.010004
11
27.755637
21
6.0129341
0
LINE
8
bottom_outsideCutPath
10
27.755637
20
6.0129341
11
27.755637
21
6.128004
0
LINE
8
bottom_outsideCutPath
10
27.755637
20
6.128004
11
28.261883
21
6.128004
0
LINE
8
bottom_outsideCutPath
10
28.261883
20
6.128004
11
28.261883
21
6.0129341
0
LINE
8
bottom_outsideCutPath
10
28.261883
20
6.0129341
11
28.2648131
21
6.010004
0
LINE
8
bottom_outsideCutPath
10
28.2648131
20
6.010004
11
28.7852069
21
6.010004
0
LINE
8
bottom_outsideCutPath
10
28.7852069
20
6.010004
11
28.788137
21
6.0129341
0
LINE
8
bottom_outsideCutPath
10
28.788137
20
6.0129341
11
28.788137
21
6.128004
0
LINE
8
bottom_outsideCutPath
10
28.788137
20
6.128004
11
29.294383
21
6.128004
0
LINE
8
bottom_outsideCutPath
10
29.294383
20
6.128004
11
29.294383
21
6.0129341
0
LINE
8
bottom_outsideCutPath
10
29.294383
20
6.0129341
11
29.2973131
21
6.010004
0
LINE
8
bottom_outsideCutPath
10
29.2973131
20
6.010004
11
29.8177069
21
6.010004
0
LINE
8
bottom_outsideCutPath
10
29.8177069
20
6.010004
11
29.820637
21
6.0129341
0
LINE
8
bottom_outsideCutPath
10
29.820637
20
6.0129341
11
29.820637
21
6.128004
0
LINE
8
bottom_outsideCutPath
10
29.820637
20
6.128004
11
30.326883
21
6.128004
0
LINE
8
bottom_outsideCutPath
10
30.326883
20
6.128004
11
30.326883
21
6.0129341
0
LINE
8
bottom_outsideCutPath
10
30.326883
20
6.0129341
11
30.3298131
21
6.010004
0
LINE
8
bottom_outsideCutPath
10
30.3298131
20
6.010004
11
30.8502069
21
6.010004
0
LINE
8
bottom_outsideCutPath
10
30.8502069
20
6.010004
11
30.853137
21
6.0129341
0
LINE
8
bottom_outsideCutPath
10
30.853137
20
6.0129341
11
30.853137
21
6.128004
0
LINE
8
bottom_outsideCutPath
10
30.853137
20
6.128004
11
31.359383
21
6.128004
0
LINE
8
bottom_outsideCutPath
10
31.359383
20
6.128004
11
31.359383
21
6.0129341
0
LINE
8
bottom_outsideCutPath
10
31.359383
20
6.0129341
11
31.3623131
21
6.010004
0
LINE
8
bottom_outsideCutPath
10
31.3623131
20
6.010004
11
31.8827069
21
6.010004
0
LINE
8
bottom_outsideCutPath
10
31.8827069
20
6.010004
11
31.885637
21
6.0129341
0
LINE
8
bottom_outsideCutPath
10
31.885637
20
6.0129341
11
31.885637
21
6.128004
0
LINE
8
bottom_outsideCutPath
10
31.885637
20
6.128004
11
32.391883
21
6.128004
0
LINE
8
bottom_outsideCutPath
10
32.391883
20
6.128004
11
32.391883
21
6.0129341
0
LINE
8
bottom_outsideCutPath
10
32.391883
20
6.0129341
11
32.3948131
21
6.010004
0
LINE
8
bottom_outsideCutPath
10
32.3948131
20
6.010004
11
32.9152069
21
6.010004
0
LINE
8
bottom_outsideCutPath
10
32.9152069
20
6.010004
11
32.918137
21
6.0129341
0
LINE
8
bottom_outsideCutPath
10
32.918137
20
6.0129341
11
32.918137
21
6.128004
0
LINE
8
bottom_outsideCutPath
10
32.918137
20
6.128004
11
33.424383
21
6.128004
0
LINE
8
bottom_outsideCutPath
10
33.424383
20
6.128004
11
33.424383
21
6.0129341
0
LINE
8
bottom_outsideCutPath
10
33.424383
20
6.0129341
11
33.4273131
21
6.010004
0
LINE
8
bottom_outsideCutPath
10
33.4273131
20
6.010004
11
33.9477069
21
6.010004
0
LINE
8
bottom_outsideCutPath
10
33.9477069
20
6.010004
11
33.950637
21
6.0129341
0
LINE
8
bottom_outsideCutPath
10
33.950637
20
6.0129341
11
33.950637
21
6.128004
0
LINE
8
bottom_outsideCutPath
10
33.950637
20
6.128004
11
34.456883
21
6.128004
0
LINE
8
bottom_outsideCutPath
10
34.456883
20
6.128004
11
34.456883
21
6.0129341
0
LINE
8
bottom_outsideCutPath
10
34.456883
20
6.0129341
11
34.4598131
21
6.010004
0
LINE
8
bottom_outsideCutPath
10
34.4598131
20
6.010004
11
34.9802069
21
6.010004
0
LINE
8
bottom_outsideCutPath
10
34.9802069
20
6.010004
11
34.983137
21
6.0129341
0
LINE
8
bottom_outsideCutPath
10
34.983137
20
6.0129341
11
34.983137
21
6.128004
0
LINE
8
bottom_outsideCutPath
10
34.983137
20
6.128004
11
35.9090819
21
6.128004
0
LINE
8
bottom_outsideCutPath
10
35.9090819
20
6.128004
11
35.912012
21
6.1309341
0
LINE
8
bottom_outsideCutPath
10
35.912012
20
6.1309341
11
35.912012
21
6.561879
0
LINE
8
bottom_outsideCutPath
10
35.912012
20
6.561879
11
36.0270819
21
6.561879
0
LINE
8
bottom_outsideCutPath
10
36.0270819
20
6.561879
11
36.030012
21
6.5648091
0
LINE
8
bottom_outsideCutPath
10
36.030012
20
6.5648091
11
36.030012
21
7.0852029
0
LINE
8
bottom_outsideCutPath
10
36.030012
20
7.0852029
11
36.0270819
21
7.088133
0
LINE
8
bottom_outsideCutPath
10
36.0270819
20
7.088133
11
35.912012
21
7.088133
0
LINE
8
bottom_outsideCutPath
10
35.912012
20
7.088133
11
35.912012
21
7.594379
0
LINE
8
bottom_outsideCutPath
10
35.912012
20
7.594379
11
36.0270819
21
7.594379
0
LINE
8
bottom_outsideCutPath
10
36.0270819
20
7.594379
11
36.030012
21
7.5973091
0
LINE
8
bottom_outsideCutPath
10
36.030012
20
7.5973091
11
36.030012
21
8.1177029
0
LINE
8
bottom_outsideCutPath
10
36.030012
20
8.1177029
11
36.0270819
21
8.120633
0
LINE
8
bottom_outsideCutPath
10
36.0270819
20
8.120633
11
35.912012
21
8.120633
0
LINE
8
bottom_outsideCutPath
10
35.912012
20
8.120633
11
35.912012
21
8.626879
0
LINE
8
bottom_outsideCutPath
10
35.912012
20
8.626879
11
36.0270819
21
8.626879
0
LINE
8
bottom_outsideCutPath
10
36.0270819
20
8.626879
11
36.030012
21
8.6298091
0
LINE
8
bottom_outsideCutPath
10
36.030012
20
8.6298091
11
36.030012
21
9.1502029
0
LINE
8
bottom_outsideCutPath
10
36.030012
20
9.1502029
11
36.0270819
21
9.153133
0
LINE
8
bottom_outsideCutPath
10
36.0270819
20
9.153133
11
35.912012
21
9.153133
0
LINE
8
bottom_outsideCutPath
10
35.912012
20
9.153133
11
35.912012
21
9.659379
0
LINE
8
bottom_outsideCutPath
10
35.912012
20
9.659379
11
36.0270819
21
9.659379
0
LINE
8
bottom_outsideCutPath
10
36.0270819
20
9.659379
11
36.030012
21
9.6623091
0
LINE
8
bottom_outsideCutPath
10
36.030012
20
9.6623091
11
36.030012
21
10.1827029
0
LINE
8
bottom_outsideCutPath
10
36.030012
20
10.1827029
11
36.0270819
21
10.185633
0
LINE
8
bottom_outsideCutPath
10
36.0270819
20
10.185633
11
35.912012
21
10.185633
0
LINE
8
bottom_outsideCutPath
10
35.912012
20
10.185633
11
35.912012
21
10.691879
0
LINE
8
bottom_outsideCutPath
10
35.912012
20
10.691879
11
36.0270819
21
10.691879
0
LINE
8
bottom_outsideCutPath
10
36.0270819
20
10.691879
11
36.030012
21
10.6948091
0
LINE
8
bottom_outsideCutPath
10
36.030012
20
10.6948091
11
36.030012
21
11.2152029
0
LINE
8
bottom_outsideCutPath
10
36.030012
20
11.2152029
11
36.0270819
21
11.218133
0
LINE
8
bottom_outsideCutPath
10
36.0270819
20
11.218133
11
35.912012
21
11.218133
0
LINE
8
bottom_outsideCutPath
10
35.912012
20
11.218133
11
35.912012
21
11.6490779
0
LINE
8
bottom_outsideCutPath
10
35.912012
20
11.6490779
11
35.9090819
21
11.652008
0
LINE
8
bottom_outsideCutPath
10
35.9090819
20
11.652008
11
34.983137
21
11.652008
0
LINE
8
bottom_outsideCutPath
10
34.983137
20
11.652008
11
34.983137
21
11.7670779
0
LINE
8
bottom_outsideCutPath
10
34.983137
20
11.7670779
11
34.9802069
21
11.770008
0
LINE
8
bottom_outsideCutPath
10
34.9802069
20
11.770008
11
34.4598131
21
11.770008
0
LINE
8
bottom_outsideCutPath
10
34.4598131
20
11.770008
11
34.456883
21
11.7670779
0
LINE
8
bottom_outsideCutPath
10
34.456883
20
11.7670779
11
34.456883
21
11.652008
0
LINE
8
bottom_outsideCutPath
10
34.456883
20
11.652008
11
33.950637
21
11.652008
0
LINE
8
bottom_outsideCutPath
10
33.950637
20
11.652008
11
33.950637
21
11.7670779
0
LINE
8
bottom_outsideCutPath
10
33.950637
20
11.7670779
11
33.9477069
21
11.770008
0
LINE
8
bottom_outsideCutPath
10
33.9477069
20
11.770008
11
33.4273131
21
11.770008
0
LINE
8
bottom_outsideCutPath
10
33.4273131
20
11.770008
11
33.424383
21
11.7670779
0
LINE
8
bottom_outsideCutPath
10
33.424383
20
11.7670779
11
33.424383
21
11.652008
0
LINE
8
bottom_outsideCutPath
10
33.424383
20
11.652008
11
32.918137
21
11.652008
0
LINE
8
bottom_outsideCutPath
10
32.918137
20
11.652008
11
32.918137
21
11.7670779
0
LINE
8
bottom_outsideCutPath
10
32.918137
20
11.7670779
11
32.9152069
21
11.770008
0
LINE
8
bottom_outsideCutPath
10
32.9152069
20
11.770008
11
32.3948131
21
11.770008
0
LINE
8
bottom_outsideCutPath
10
32.3948131
20
11.770008
11
32.391883
21
11.7670779
0
LINE
8
bottom_outsideCutPath
10
32.391883
20
11.7670779
11
32.391883
21
11.652008
0
LINE
8
bottom_outsideCutPath
10
32.391883
20
11.652008
11
31.885637
21
11.652008
0
LINE
8
bottom_outsideCutPath
10
31.885637
20
11.652008
11
31.885637
21
11.7670779
0
LINE
8
bottom_outsideCutPath
10
31.885637
20
11.7670779
11
31.8827069
21
11.770008
0
LINE
8
bottom_outsideCutPath
10
31.8827069
20
11.770008
11
31.3623131
21
11.770008
0
LINE
8
bottom_outsideCutPath
10
31.3623131
20
11.770008
11
31.359383
21
11.7670779
0
LINE
8
bottom_outsideCutPath
10
31.359383
20
11.7670779
11
31.359383
21
11.652008
0
LINE
8
bottom_outsideCutPath
10
31.359383
20
11.652008
11
30.853137
21
11.652008
0
LINE
8
bottom_outsideCutPath
10
30.853137
20
11.652008
11
30.853137
21
11.7670779
0
LINE
8
bottom_outsideCutPath
10
30.853137
20
11.7670779
11
30.8502069
21
11.770008
0
LINE
8
bottom_outsideCutPath
10
30.8502069
20
11.770008
11
30.3298131
21
11.770008
0
LINE
8
bottom_outsideCutPath
10
30.3298131
20
11.770008
11
30.326883
21
11.7670779
0
LINE
8
bottom_outsideCutPath
10
30.326883
20
11.7670779
11
30.326883
21
11.652008
0
LINE
8
bottom_outsideCutPath
10
30.326883
20
11.652008
11
29.820637
21
11.652008
0
LINE
8
bottom_outsideCutPath
10
29.820637
20
11.652008
11
29.820637
21
11.7670779
0
LINE
8
bottom_outsideCutPath
10
29.820637
20
11.7670779
11
29.8177069
21
11.770008
0
LINE
8
bottom_outsideCutPath
10
29.8177069
20
11.770008
11
29.2973131
21
11.770008
0
LINE
8
bottom_outsideCutPath
10
29.2973131
20
11.770008
11
29.294383
21
11.7670779
0
LINE
8
bottom_outsideCutPath
10
29.294383
20
11.7670779
11
29.294383
21
11.652008
0
LINE
8
bottom_outsideCutPath
10
29.294383
20
11.652008
11
28.788137
21
11.652008
0
LINE
8
bottom_outsideCutPath
10
28.788137
20
11.652008
11
28.788137
21
11.7670779
0
LINE
8
bottom_outsideCutPath
10
28.788137
20
11.7670779
11
28.7852069
21
11.770008
0
LINE
8
bottom_outsideCutPath
10
28.7852069
20
11.770008
11
28.2648131
21
11.770008
0
LINE
8
bottom_outsideCutPath
10
28.2648131
20
11.770008
11
28.261883
21
11.7670779
0
LINE
8
bottom_outsideCutPath
10
28.261883
20
11.7670779
11
28.261883
21
11.652008
0
LINE
8
bottom_outsideCutPath
10
28.261883
20
11.652008
11
27.755637
21
11.652008
0
LINE
8
bottom_outsideCutPath
10
27.755637
20
11.652008
11
27.755637
21
11.7670779
0
LINE
8
bottom_outsideCutPath
10
27.755637
20
11.7670779
11
27.7527069
21
11.770008
0
LINE
8
bottom_outsideCutPath
10
27.7527069
20
11.770008
11
27.2323131
21
11.770008
0
LINE
8
bottom_outsideCutPath
10
27.2323131
20
11.770008
11
27.229383
21
11.7670779
0
LINE
8
bottom_outsideCutPath
10
27.229383
20
11.7670779
11
27.229383
21
11.652008
0
LINE
8
bottom_outsideCutPath
10
27.229383
20
11.652008
11
26.723137
21
11.652008
0
LINE
8
bottom_outsideCutPath
10
26.723137
20
11.652008
11
26.723137
21
11.7670779
0
LINE
8
bottom_outsideCutPath
10
26.723137
20
11.7670779
11
26.7202069
21
11.770008
0
LINE
8
bottom_outsideCutPath
10
26.7202069
20
11.770008
11
26.1998131
21
11.770008
0
LINE
8
bottom_outsideCutPath
10
26.1998131
20
11.770008
11
26.196883
21
11.7670779
0
LINE
8
bottom_outsideCutPath
10
26.196883
20
11.7670779
11
26.196883
21
11.652008
0
LINE
8
bottom_outsideCutPath
10
26.196883
20
11.652008
11
25.690637
21
11.652008
0
LINE
8
bottom_outsideCutPath
10
25.690637
20
11.652008
11
25.690637
21
11.7670779
0
LINE
8
bottom_outsideCutPath
10
25.690637
20
11.7670779
11
25.6877069
21
11.770008
0
LINE
8
bottom_outsideCutPath
10
25.6877069
20
11.770008
11
25.1673131
21
11.770008
0
LINE
8
bottom_outsideCutPath
10
25.1673131
20
11.770008
11
25.164383
21
11.7670779
0
LINE
8
bottom_outsideCutPath
10
25.164383
20
11.7670779
11
25.164383
21
11.652008
0
LINE
8
bottom_outsideCutPath
10
25.164383
20
11.652008
11
24.658137
21
11.652008
0
LINE
8
bottom_outsideCutPath
10
24.658137
20
11.652008
11
24.658137
21
11.7670779
0
LINE
8
bottom_outsideCutPath
10
24.658137
20
11.7670779
11
24.6552069
21
11.770008
0
LINE
8
bottom_outsideCutPath
10
24.6552069
20
11.770008
11
24.1348131
21
11.770008
0
LINE
8
bottom_outsideCutPath
10
24.1348131
20
11.770008
11
24.131883
21
11.7670779
0
LINE
8
bottom_outsideCutPath
10
24.131883
20
11.7670779
11
24.131883
21
11.652008
0
LINE
8
bottom_outsideCutPath
10
24.131883
20
11.652008
11
23.625637
21
11.652008
0
LINE
8
bottom_outsideCutPath
10
23.625637
20
11.652008
11
23.625637
21
11.7670779
0
LINE
8
bottom_outsideCutPath
10
23.625637
20
11.7670779
11
23.6227069
21
11.770008
0
LINE
8
bottom_outsideCutPath
10
23.6227069
20
11.770008
11
23.1023131
21
11.770008
0
LINE
8
bottom_outsideCutPath
10
23.1023131
20
11.770008
11
23.099383
21
11.7670779
0
LINE
8
bottom_outsideCutPath
10
23.099383
20
11.7670779
11
23.099383
21
11.652008
0
LINE
8
bottom_outsideCutPath
10
23.099383
20
11.652008
11
22.593137
21
11.652008
0
LINE
8
bottom_outsideCutPath
10
22.593137
20
11.652008
11
22.593137
21
11.7670779
0
LINE
8
bottom_outsideCutPath
10
22.593137
20
11.7670779
11
22.5902069
21
11.770008
0
LINE
8
bottom_outsideCutPath
10
22.5902069
20
11.770008
11
22.0698131
21
11.770008
0
LINE
8
bottom_outsideCutPath
10
22.0698131
20
11.770008
11
22.066883
21
11.7670779
0
LINE
8
bottom_outsideCutPath
10
22.066883
20
11.7670779
11
22.066883
21
11.652008
0
LINE
8
bottom_outsideCutPath
10
22.066883
20
11.652008
11
21.1409381
21
11.652008
0
LINE
8
bottom_outsideCutPath
10
21.1409381
20
11.652008
11
21.138008
21
11.6490779
0
LINE
8
bottom_outsideCutPath
10
21.138008
20
11.6490779
11
21.138008
21
11.218133
0
LINE
8
bottom_outsideCutPath
10
21.138008
20
11.218133
11
21.0229381
21
11.218133
0
LINE
8
bottom_outsideCutPath
10
21.0229381
20
11.218133
11
21.020008
21
11.2152029
0
LINE
8
bottom_outsideCutPath
10
21.020008
20
11.2152029
11
21.020008
21
10.6948091
0
LINE
8
bottom_outsideCutPath
10
21.020008
20
10.6948091
11
21.0229381
21
10.691879
0
LINE
8
bottom_outsideCutPath
10
21.0229381
20
10.691879
11
21.138008
21
10.691879
0
LINE
8
bottom_outsideCutPath
10
21.138008
20
10.691879
11
21.138008
21
10.185633
0
LINE
8
bottom_outsideCutPath
10
21.138008
20
10.185633
11
21.0229381
21
10.185633
0
LINE
8
bottom_outsideCutPath
10
21.0229381
20
10.185633
11
21.020008
21
10.1827029
0
LINE
8
bottom_outsideCutPath
10
21.020008
20
10.1827029
11
21.020008
21
9.6623091
0
LINE
8
bottom_outsideCutPath
10
21.020008
20
9.6623091
11
21.0229381
21
9.659379
0
LINE
8
bottom_outsideCutPath
10
21.0229381
20
9.659379
11
21.138008
21
9.659379
0
LINE
8
bottom_outsideCutPath
10
21.138008
20
9.659379
11
21.138008
21
9.153133
0
LINE
8
bottom_outsideCutPath
10
21.138008
20
9.153133
11
21.0229381
21
9.153133
0
LINE
8
bottom_outsideCutPath
10
21.0229381
20
9.153133
11
21.020008
21
9.1502029
0
LINE
8
bottom_outsideCutPath
10
21.020008
20
9.1502029
11
21.020008
21
8.6298091
0
LINE
8
bottom_outsideCutPath
10
21.020008
20
8.6298091
11
21.0229381
21
8.626879
0
LINE
8
bottom_outsideCutPath
10
21.0229381
20
8.626879
11
21.138008
21
8.626879
0
LINE
8
bottom_outsideCutPath
10
21.138008
20
8.626879
11
21.138008
21
8.120633
0
LINE
8
bottom_outsideCutPath
10
21.138008
20
8.120633
11
21.0229381
21
8.120633
0
LINE
8
bottom_outsideCutPath
10
21.0229381
20
8.120633
11
21.020008
21
8.1177029
0
LINE
8
bottom_outsideCutPath
10
21.020008
20
8.1177029
11
21.020008
21
7.5973091
0
LINE
8
bottom_outsideCutPath
10
21.020008
20
7.5973091
11
21.0229381
21
7.594379
0
LINE
8
bottom_outsideCutPath
10
21.0229381
20
7.594379
11
21.138008
21
7.594379
0
LINE
8
bottom_outsideCutPath
10
21.138008
20
7.594379
11
21.138008
21
7.088133
0
LINE
8
bottom_outsideCutPath
10
21.138008
20
7.088133
11
21.0229381
21
7.088133
0
LINE
8
bottom_outsideCutPath
10
21.0229381
20
7.088133
11
21.020008
21
7.0852029
0
LINE
8
bottom_outsideCutPath
10
21.020008
20
7.0852029
11
21.020008
21
6.5648091
0
LINE
8
bottom_outsideCutPath
10
21.020008
20
6.5648091
11
21.0229381
21
6.561879
0
LINE
8
bottom_outsideCutPath
10
21.0229381
20
6.561879
11
21.138008
21
6.561879
0
LINE
8
bottom_outsideCutPath
10
21.138008
20
6.561879
11
21.138008
21
6.1309341
0
LINE
8
bottom_outsideCutPath
10
21.138008
20
6.1309341
11
21.1409381
21
6.128004
0
LINE
8
bottom_outsideCutPath
10
21.1409381
20
6.128004
11
22.066883
21
6.128004
0
LINE
8
bottom_outsideCutPath
10
22.066883
20
6.128004
11
22.066883
21
6.0129341
0
LINE
8
bottom_outsideCutPath
10
22.066883
20
6.0129341
11
22.0698131
21
6.010004
0
LINE
8
bottom_outsideCutPath
10
22.0698131
20
6.010004
11
22.5902069
21
6.010004
0
LINE
8
bottom_outsideCutPath
10
22.5902069
20
6.010004
11
22.593137
21
6.0129341
0
ENDSEC
0
EOF