<svg width="36.03in" height="16.645in" viewBox="0 0 36.03 16.645" xmlns="http://www.w3.org/2000/svg" version="1.1" preserveAspectRatio="xMidYMid meet"><g id="svgGroup" stroke-linecap="round" fill-rule="evenodd" font-size="9pt" stroke="#000" stroke-width="0.25mm" fill="none" style="stroke:#000;stroke-width:0.25mm;fill:none"><path d="M 1.057 16.642 L 1.057 16.527 L 1.563 16.527 L 1.563 16.642 L 1.566 16.645 L 2.086 16.645 L 2.089 16.642 L 2.089 16.527 L 2.596 16.527 L 2.596 16.642 L 2.599 16.645 L 3.119 16.645 L 3.122 16.642 L 3.122 16.527 L 3.628 16.527 L 3.628 16.642 L 3.631 16.645 L 4.151 16.645 L 4.154 16.642 L 4.154 16.527 L 4.661 16.527 L 4.661 16.642 L 4.664 16.645 L 5.184 16.645 L 5.187 16.642 L 5.187 16.527 L 5.693 16.527 L 5.693 16.642 L 5.696 16.645 L 6.216 16.645 L 6.219 16.642 L 6.219 16.527 L 6.726 16.527 L 6.726 16.642 L 6.729 16.645 L 7.249 16.645 L 7.252 16.642 L 7.252 16.527 L 7.758 16.527 L 7.758 16.642 L 7.761 16.645 L 8.281 16.645 L 8.284 16.642 L 8.284 16.527 L 8.791 16.527 L 8.791 16.642 L 8.794 16.645 L 9.314 16.645 L 9.317 16.642 L 9.317 16.527 L 9.823 16.527 L 9.823 16.642 L 9.826 16.645 L 10.346 16.645 L 10.349 16.642 L 10.349 16.527 L 10.856 16.527 L 10.856 16.642 L 10.859 16.645 L 11.379 16.645 L 11.382 16.642 L 11.382 16.527 L 11.888 16.527 L 11.888 16.642 L 11.891 16.645 L 12.411 16.645 L 12.414 16.642 L 12.414 16.527 L 12.921 16.527 L 12.921 16.642 L 12.924 16.645 L 13.444 16.645 L 13.447 16.642 L 13.447 16.527 L 13.953 16.527 L 13.953 16.642 L 13.956 16.645 L 15.007 16.645 L 15.01 16.642 L 15.01 15.869 L 15.007 15.866 L 14.892 15.866 L 14.892 15.359 L 15.007 15.359 L 15.01 15.356 L 15.01 14.836 L 15.007 14.833 L 14.892 14.833 L 14.892 14.327 L 15.007 14.327 L 15.01 14.324 L 15.01 13.804 L 15.007 13.801 L 14.892 13.801 L 14.892 13.294 L 15.007 13.294 L 15.01 13.291 L 15.01 12.771 L 15.007 12.768 L 14.892 12.768 L 14.892 12.262 L 15.007 12.262 L 15.01 12.259 L 15.01 11.739 L 15.007 11.736 L 14.892 11.736 L 14.892 11.229 L 15.007 11.229 L 15.01 11.226 L 15.01 10.706 L 15.007 10.703 L 14.892 10.703 L 14.892 10.197 L 15.007 10.197 L 15.01 10.194 L 15.01 9.674 L 15.007 9.671 L 14.892 9.671 L 14.892 9.164 L 15.007 9.164 L 15.01 9.161 L 15.01 8.388 L 15.007 8.385 L 13.956 8.385 L 13.953 8.388 L 13.953 8.503 L 13.447 8.503 L 13.447 8.388 L 13.444 8.385 L 12.924 8.385 L 12.921 8.388 L 12.921 8.503 L 12.414 8.503 L 12.414 8.388 L 12.411 8.385 L 11.891 8.385 L 11.888 8.388 L 11.888 8.503 L 11.382 8.503 L 11.382 8.388 L 11.379 8.385 L 10.859 8.385 L 10.856 8.388 L 10.856 8.503 L 10.349 8.503 L 10.349 8.388 L 10.346 8.385 L 9.826 8.385 L 9.823 8.388 L 9.823 8.503 L 9.317 8.503 L 9.317 8.388 L 9.314 8.385 L 8.794 8.385 L 8.791 8.388 L 8.791 8.503 L 8.284 8.503 L 8.284 8.388 L 8.281 8.385 L 7.761 8.385 L 7.758 8.388 L 7.758 8.503 L 7.252 8.503 L 7.252 8.388 L 7.249 8.385 L 6.729 8.385 L 6.726 8.388 L 6.726 8.503 L 6.219 8.503 L 6.219 8.388 L 6.216 8.385 L 5.696 8.385 L 5.693 8.388 L 5.693 8.503 L 5.187 8.503 L 5.187 8.388 L 5.184 8.385 L 4.664 8.385 L 4.661 8.388 L 4.661 8.503 L 4.154 8.503 L 4.154 8.388 L 4.151 8.385 L 3.631 8.385 L 3.628 8.388 L 3.628 8.503 L 3.122 8.503 L 3.122 8.388 L 3.119 8.385 L 2.599 8.385 L 2.596 8.388 L 2.596 8.503 L 2.089 8.503 L 2.089 8.388 L 2.086 8.385 L 1.566 8.385 L 1.563 8.388 L 1.563 8.503 L 1.057 8.503 L 1.057 8.388 L 1.054 8.385 L 0.003 8.385 L 0 8.388 L 0 9.161 L 0.003 9.164 L 0.118 9.164 L 0.118 9.671 L 0.003 9.671 L 0 9.674 L 0 10.194 L 0.003 10.197 L 0.118 10.197 L 0.118 10.703 L 0.003 10.703 L 0 10.706 L 0 11.226 L 0.003 11.229 L 0.118 11.229 L 0.118 11.736 L 0.003 11.736 L 0 11.739 L 0 12.259 L 0.003 12.262 L 0.118 12.262 L 0.118 12.768 L 0.003 12.768 L 0 12.771 L 0 13.291 L 0.003 13.294 L 0.118 13.294 L 0.118 13.801 L 0.003 13.801 L 0 13.804 L 0 14.324 L 0.003 14.327 L 0.118 14.327 L 0.118 14.833 L 0.003 14.833 L 0 14.836 L 0 15.356 L 0.003 15.359 L 0.118 15.359 L 0.118 15.866 L 0.003 15.866 L 0 15.869 L 0 16.642 L 0.003 16.645 L 1.054 16.645 L 1.057 16.642 Z" id="front_outsideCutPath" stroke="#000000" stroke-width="0.001" style="stroke:#000000;stroke-width:0.001" vector-effect="non-scaling-stroke"/><path d="M 15.697 16.642 L 15.697 16.527 L 16.203 16.527 L 16.203 16.642 L 16.206 16.645 L 16.726 16.645 L 16.729 16.642 L 16.729 16.527 L 17.236 16.527 L 17.236 16.642 L 17.239 16.645 L 17.759 16.645 L 17.762 16.642 L 17.762 16.527 L 18.268 16.527 L 18.268 16.642 L 18.271 16.645 L 18.791 16.645 L 18.794 16.642 L 18.794 16.527 L 19.301 16.527 L 19.301 16.642 L 19.304 16.645 L 19.824 16.645 L 19.827 16.642 L 19.827 16.527 L 20.333 16.527 L 20.333 16.642 L 20.336 16.645 L 20.774 16.645 L 20.777 16.642 L 20.777 15.876 L 20.892 15.876 L 20.895 15.873 L 20.895 15.352 L 20.892 15.349 L 20.777 15.349 L 20.777 14.843 L 20.892 14.843 L 20.895 14.84 L 20.895 14.32 L 20.892 14.317 L 20.777 14.317 L 20.777 13.811 L 20.892 13.811 L 20.895 13.808 L 20.895 13.287 L 20.892 13.284 L 20.777 13.284 L 20.777 12.778 L 20.892 12.778 L 20.895 12.775 L 20.895 12.255 L 20.892 12.252 L 20.777 12.252 L 20.777 11.746 L 20.892 11.746 L 20.895 11.743 L 20.895 11.222 L 20.892 11.219 L 20.777 11.219 L 20.777 10.713 L 20.892 10.713 L 20.895 10.71 L 20.895 10.19 L 20.892 10.187 L 20.777 10.187 L 20.777 9.681 L 20.892 9.681 L 20.895 9.678 L 20.895 9.157 L 20.892 9.154 L 20.777 9.154 L 20.777 8.388 L 20.774 8.385 L 20.336 8.385 L 20.333 8.388 L 20.333 8.503 L 19.827 8.503 L 19.827 8.388 L 19.824 8.385 L 19.304 8.385 L 19.301 8.388 L 19.301 8.503 L 18.794 8.503 L 18.794 8.388 L 18.791 8.385 L 18.271 8.385 L 18.268 8.388 L 18.268 8.503 L 17.762 8.503 L 17.762 8.388 L 17.759 8.385 L 17.239 8.385 L 17.236 8.388 L 17.236 8.503 L 16.729 8.503 L 16.729 8.388 L 16.726 8.385 L 16.206 8.385 L 16.203 8.388 L 16.203 8.503 L 15.697 8.503 L 15.697 8.388 L 15.694 8.385 L 15.256 8.385 L 15.253 8.388 L 15.253 9.154 L 15.138 9.154 L 15.135 9.157 L 15.135 9.678 L 15.138 9.681 L 15.253 9.681 L 15.253 10.187 L 15.138 10.187 L 15.135 10.19 L 15.135 10.71 L 15.138 10.713 L 15.253 10.713 L 15.253 11.219 L 15.138 11.219 L 15.135 11.222 L 15.135 11.743 L 15.138 11.746 L 15.253 11.746 L 15.253 12.252 L 15.138 12.252 L 15.135 12.255 L 15.135 12.775 L 15.138 12.778 L 15.253 12.778 L 15.253 13.284 L 15.138 13.284 L 15.135 13.287 L 15.135 13.808 L 15.138 13.811 L 15.253 13.811 L 15.253 14.317 L 15.138 14.317 L 15.135 14.32 L 15.135 14.84 L 15.138 14.843 L 15.253 14.843 L 15.253 15.349 L 15.138 15.349 L 15.135 15.352 L 15.135 15.873 L 15.138 15.876 L 15.253 15.876 L 15.253 16.642 L 15.256 16.645 L 15.694 16.645 L 15.697 16.642 Z" id="left_outsideCutPath" stroke="#000000" stroke-width="0.001" style="stroke:#000000;stroke-width:0.001" vector-effect="non-scaling-stroke"/><path d="M 22.593 16.642 L 22.593 16.527 L 23.099 16.527 L 23.099 16.642 L 23.102 16.645 L 23.623 16.645 L 23.626 16.642 L 23.626 16.527 L 24.132 16.527 L 24.132 16.642 L 24.135 16.645 L 24.655 16.645 L 24.658 16.642 L 24.658 16.527 L 25.164 16.527 L 25.164 16.642 L 25.167 16.645 L 25.688 16.645 L 25.691 16.642 L 25.691 16.527 L 26.197 16.527 L 26.197 16.642 L 26.2 16.645 L 26.72 16.645 L 26.723 16.642 L 26.723 16.527 L 27.229 16.527 L 27.229 16.642 L 27.232 16.645 L 27.753 16.645 L 27.756 16.642 L 27.756 16.527 L 28.262 16.527 L 28.262 16.642 L 28.265 16.645 L 28.785 16.645 L 28.788 16.642 L 28.788 16.527 L 29.294 16.527 L 29.294 16.642 L 29.297 16.645 L 29.818 16.645 L 29.821 16.642 L 29.821 16.527 L 30.327 16.527 L 30.327 16.642 L 30.33 16.645 L 30.85 16.645 L 30.853 16.642 L 30.853 16.527 L 31.359 16.527 L 31.359 16.642 L 31.362 16.645 L 31.883 16.645 L 31.886 16.642 L 31.886 16.527 L 32.392 16.527 L 32.392 16.642 L 32.395 16.645 L 32.915 16.645 L 32.918 16.642 L 32.918 16.527 L 33.424 16.527 L 33.424 16.642 L 33.427 16.645 L 33.948 16.645 L 33.951 16.642 L 33.951 16.527 L 34.457 16.527 L 34.457 16.642 L 34.46 16.645 L 34.98 16.645 L 34.983 16.642 L 34.983 16.527 L 35.909 16.527 L 35.912 16.524 L 35.912 16.093 L 36.027 16.093 L 36.03 16.09 L 36.03 15.57 L 36.027 15.567 L 35.912 15.567 L 35.912 15.061 L 36.027 15.061 L 36.03 15.058 L 36.03 14.537 L 36.027 14.534 L 35.912 14.534 L 35.912 14.028 L 36.027 14.028 L 36.03 14.025 L 36.03 13.505 L 36.027 13.502 L 35.912 13.502 L 35.912 12.996 L 36.027 12.996 L 36.03 12.993 L 36.03 12.472 L 36.027 12.469 L 35.912 12.469 L 35.912 11.963 L 36.027 11.963 L 36.03 11.96 L 36.03 11.44 L 36.027 11.437 L 35.912 11.437 L 35.912 11.006 L 35.909 11.003 L 34.983 11.003 L 34.983 10.888 L 34.98 10.885 L 34.46 10.885 L 34.457 10.888 L 34.457 11.003 L 33.951 11.003 L 33.951 10.888 L 33.948 10.885 L 33.427 10.885 L 33.424 10.888 L 33.424 11.003 L 32.918 11.003 L 32.918 10.888 L 32.915 10.885 L 32.395 10.885 L 32.392 10.888 L 32.392 11.003 L 31.886 11.003 L 31.886 10.888 L 31.883 10.885 L 31.362 10.885 L 31.359 10.888 L 31.359 11.003 L 30.853 11.003 L 30.853 10.888 L 30.85 10.885 L 30.33 10.885 L 30.327 10.888 L 30.327 11.003 L 29.821 11.003 L 29.821 10.888 L 29.818 10.885 L 29.297 10.885 L 29.294 10.888 L 29.294 11.003 L 28.788 11.003 L 28.788 10.888 L 28.785 10.885 L 28.265 10.885 L 28.262 10.888 L 28.262 11.003 L 27.756 11.003 L 27.756 10.888 L 27.753 10.885 L 27.232 10.885 L 27.229 10.888 L 27.229 11.003 L 26.723 11.003 L 26.723 10.888 L 26.72 10.885 L 26.2 10.885 L 26.197 10.888 L 26.197 11.003 L 25.691 11.003 L 25.691 10.888 L 25.688 10.885 L 25.167 10.885 L 25.164 10.888 L 25.164 11.003 L 24.658 11.003 L 24.658 10.888 L 24.655 10.885 L 24.135 10.885 L 24.132 10.888 L 24.132 11.003 L 23.626 11.003 L 23.626 10.888 L 23.623 10.885 L 23.102 10.885 L 23.099 10.888 L 23.099 11.003 L 22.593 11.003 L 22.593 10.888 L 22.59 10.885 L 22.07 10.885 L 22.067 10.888 L 22.067 11.003 L 21.141 11.003 L 21.138 11.006 L 21.138 11.437 L 21.023 11.437 L 21.02 11.44 L 21.02 11.96 L 21.023 11.963 L 21.138 11.963 L 21.138 12.469 L 21.023 12.469 L 21.02 12.472 L 21.02 12.993 L 21.023 12.996 L 21.138 12.996 L 21.138 13.502 L 21.023 13.502 L 21.02 13.505 L 21.02 14.025 L 21.023 14.028 L 21.138 14.028 L 21.138 14.534 L 21.023 14.534 L 21.02 14.537 L 21.02 15.058 L 21.023 15.061 L 21.138 15.061 L 21.138 15.567 L 21.023 15.567 L 21.02 15.57 L 21.02 16.09 L 21.023 16.093 L 21.138 16.093 L 21.138 16.524 L 21.141 16.527 L 22.067 16.527 L 22.067 16.642 L 22.07 16.645 L 22.59 16.645 L 22.593 16.642 Z" id="top_outsideCutPath" stroke="#000000" stroke-width="0.001" style="stroke:#000000;stroke-width:0.001" vector-effect="non-scaling-stroke"/><path d="M 1.057 8.257 L 1.057 8.142 L 1.563 8.142 L 1.563 8.257 L 1.566 8.26 L 2.086 8.26 L 2.089 8.257 L 2.089 8.142 L 2.596 8.142 L 2.596 8.257 L 2.599 8.26 L 3.119 8.26 L 3.122 8.257 L 3.122 8.142 L 3.628 8.142 L 3.628 8.257 L 3.631 8.26 L 4.151 8.26 L 4.154 8.257 L 4.154 8.142 L 4.661 8.142 L 4.661 8.257 L 4.664 8.26 L 5.184 8.26 L 5.187 8.257 L 5.187 8.142 L 5.693 8.142 L 5.693 8.257 L 5.696 8.26 L 6.216 8.26 L 6.219 8.257 L 6.219 8.142 L 6.726 8.142 L 6.726 8.257 L 6.729 8.26 L 7.249 8.26 L 7.252 8.257 L 7.252 8.142 L 7.758 8.142 L 7.758 8.257 L 7.761 8.26 L 8.281 8.26 L 8.284 8.257 L 8.284 8.142 L 8.791 8.142 L 8.791 8.257 L 8.794 8.26 L 9.314 8.26 L 9.317 8.257 L 9.317 8.142 L 9.823 8.142 L 9.823 8.257 L 9.826 8.26 L 10.346 8.26 L 10.349 8.257 L 10.349 8.142 L 10.856 8.142 L 10.856 8.257 L 10.859 8.26 L 11.379 8.26 L 11.382 8.257 L 11.382 8.142 L 11.888 8.142 L 11.888 8.257 L 11.891 8.26 L 12.411 8.26 L 12.414 8.257 L 12.414 8.142 L 12.921 8.142 L 12.921 8.257 L 12.924 8.26 L 13.444 8.26 L 13.447 8.257 L 13.447 8.142 L 13.953 8.142 L 13.953 8.257 L 13.956 8.26 L 15.007 8.26 L 15.01 8.257 L 15.01 7.484 L 15.007 7.481 L 14.892 7.481 L 14.892 6.974 L 15.007 6.974 L 15.01 6.971 L 15.01 6.451 L 15.007 6.448 L 14.892 6.448 L 14.892 5.942 L 15.007 5.942 L 15.01 5.939 L 15.01 5.419 L 15.007 5.416 L 14.892 5.416 L 14.892 4.909 L 15.007 4.909 L 15.01 4.906 L 15.01 4.386 L 15.007 4.383 L 14.892 4.383 L 14.892 3.877 L 15.007 3.877 L 15.01 3.874 L 15.01 3.354 L 15.007 3.351 L 14.892 3.351 L 14.892 2.844 L 15.007 2.844 L 15.01 2.841 L 15.01 2.321 L 15.007 2.318 L 14.892 2.318 L 14.892 1.812 L 15.007 1.812 L 15.01 1.809 L 15.01 1.289 L 15.007 1.286 L 14.892 1.286 L 14.892 0.779 L 15.007 0.779 L 15.01 0.776 L 15.01 0.003 L 15.007 0 L 13.956 0 L 13.953 0.003 L 13.953 0.118 L 13.447 0.118 L 13.447 0.003 L 13.444 0 L 12.924 0 L 12.921 0.003 L 12.921 0.118 L 12.414 0.118 L 12.414 0.003 L 12.411 0 L 11.891 0 L 11.888 0.003 L 11.888 0.118 L 11.382 0.118 L 11.382 0.003 L 11.379 0 L 10.859 0 L 10.856 0.003 L 10.856 0.118 L 10.349 0.118 L 10.349 0.003 L 10.346 0 L 9.826 0 L 9.823 0.003 L 9.823 0.118 L 9.317 0.118 L 9.317 0.003 L 9.314 0 L 8.794 0 L 8.791 0.003 L 8.791 0.118 L 8.284 0.118 L 8.284 0.003 L 8.281 0 L 7.761 0 L 7.758 0.003 L 7.758 0.118 L 7.252 0.118 L 7.252 0.003 L 7.249 0 L 6.729 0 L 6.726 0.003 L 6.726 0.118 L 6.219 0.118 L 6.219 0.003 L 6.216 0 L 5.696 0 L 5.693 0.003 L 5.693 0.118 L 5.187 0.118 L 5.187 0.003 L 5.184 0 L 4.664 0 L 4.661 0.003 L 4.661 0.118 L 4.154 0.118 L 4.154 0.003 L 4.151 0 L 3.631 0 L 3.628 0.003 L 3.628 0.118 L 3.122 0.118 L 3.122 0.003 L 3.119 0 L 2.599 0 L 2.596 0.003 L 2.596 0.118 L 2.089 0.118 L 2.089 0.003 L 2.086 0 L 1.566 0 L 1.563 0.003 L 1.563 0.118 L 1.057 0.118 L 1.057 0.003 L 1.054 0 L 0.003 0 L 0 0.003 L 0 0.776 L 0.003 0.779 L 0.118 0.779 L 0.118 1.286 L 0.003 1.286 L 0 1.289 L 0 1.809 L 0.003 1.812 L 0.118 1.812 L 0.118 2.318 L 0.003 2.318 L 0 2.321 L 0 2.841 L 0.003 2.844 L 0.118 2.844 L 0.118 3.351 L 0.003 3.351 L 0 3.354 L 0 3.874 L 0.003 3.877 L 0.118 3.877 L 0.118 4.383 L 0.003 4.383 L 0 4.386 L 0 4.906 L 0.003 4.909 L 0.118 4.909 L 0.118 5.416 L 0.003 5.416 L 0 5.419 L 0 5.939 L 0.003 5.942 L 0.118 5.942 L 0.118 6.448 L 0.003 6.448 L 0 6.451 L 0 6.971 L 0.003 6.974 L 0.118 6.974 L 0.118 7.481 L 0.003 7.481 L 0 7.484 L 0 8.257 L 0.003 8.26 L 1.054 8.26 L 1.057 8.257 Z" id="back_outsideCutPath" stroke="#000000" stroke-width="0.001" style="stroke:#000000;stroke-width:0.001" vector-effect="non-scaling-stroke"/><path d="M 15.697 8.257 L 15.697 8.142 L 16.203 8.142 L 16.203 8.257 L 16.206 8.26 L 16.726 8.26 L 16.729 8.257 L 16.729 8.142 L 17.236 8.142 L 17.236 8.257 L 17.239 8.26 L 17.759 8.26 L 17.762 8.257 L 17.762 8.142 L 18.268 8.142 L 18.268 8.257 L 18.271 8.26 L 18.791 8.26 L 18.794 8.257 L 18.794 8.142 L 19.301 8.142 L 19.301 8.257 L 19.304 8.26 L 19.824 8.26 L 19.827 8.257 L 19.827 8.142 L 20.333 8.142 L 20.333 8.257 L 20.336 8.26 L 20.774 8.26 L 20.777 8.257 L 20.777 7.491 L 20.892 7.491 L 20.895 7.488 L 20.895 6.967 L 20.892 6.964 L 20.777 6.964 L 20.777 6.458 L 20.892 6.458 L 20.895 6.455 L 20.895 5.935 L 20.892 5.932 L 20.777 5.932 L 20.777 5.426 L 20.892 5.426 L 20.895 5.423 L 20.895 4.902 L 20.892 4.899 L 20.777 4.899 L 20.777 4.393 L 20.892 4.393 L 20.895 4.39 L 20.895 3.87 L 20.892 3.867 L 20.777 3.867 L 20.777 3.361 L 20.892 3.361 L 20.895 3.358 L 20.895 2.837 L 20.892 2.834 L 20.777 2.834 L 20.777 2.328 L 20.892 2.328 L 20.895 2.325 L 20.895 1.805 L 20.892 1.802 L 20.777 1.802 L 20.777 1.296 L 20.892 1.296 L 20.895 1.293 L 20.895 0.772 L 20.892 0.769 L 20.777 0.769 L 20.777 0.003 L 20.774 0 L 20.336 0 L 20.333 0.003 L 20.333 0.118 L 19.827 0.118 L 19.827 0.003 L 19.824 0 L 19.304 0 L 19.301 0.003 L 19.301 0.118 L 18.794 0.118 L 18.794 0.003 L 18.791 0 L 18.271 0 L 18.268 0.003 L 18.268 0.118 L 17.762 0.118 L 17.762 0.003 L 17.759 0 L 17.239 0 L 17.236 0.003 L 17.236 0.118 L 16.729 0.118 L 16.729 0.003 L 16.726 0 L 16.206 0 L 16.203 0.003 L 16.203 0.118 L 15.697 0.118 L 15.697 0.003 L 15.694 0 L 15.256 0 L 15.253 0.003 L 15.253 0.769 L 15.138 0.769 L 15.135 0.772 L 15.135 1.293 L 15.138 1.296 L 15.253 1.296 L 15.253 1.802 L 15.138 1.802 L 15.135 1.805 L 15.135 2.325 L 15.138 2.328 L 15.253 2.328 L 15.253 2.834 L 15.138 2.834 L 15.135 2.837 L 15.135 3.358 L 15.138 3.361 L 15.253 3.361 L 15.253 3.867 L 15.138 3.867 L 15.135 3.87 L 15.135 4.39 L 15.138 4.393 L 15.253 4.393 L 15.253 4.899 L 15.138 4.899 L 15.135 4.902 L 15.135 5.423 L 15.138 5.426 L 15.253 5.426 L 15.253 5.932 L 15.138 5.932 L 15.135 5.935 L 15.135 6.455 L 15.138 6.458 L 15.253 6.458 L 15.253 6.964 L 15.138 6.964 L 15.135 6.967 L 15.135 7.488 L 15.138 7.491 L 15.253 7.491 L 15.253 8.257 L 15.256 8.26 L 15.694 8.26 L 15.697 8.257 Z" id="right_outsideCutPath" stroke="#000000" stroke-width="0.001" style="stroke:#000000;stroke-width:0.001" vector-effect="non-scaling-stroke"/><path d="M 22.593 10.757 L 22.593 10.642 L 23.099 10.642 L 23.099 10.757 L 23.102 10.76 L 23.623 10.76 L 23.626 10.757 L 23.626 10.642 L 24.132 10.642 L 24.132 10.757 L 24.135 10.76 L 24.655 10.76 L 24.658 10.757 L 24.658 10.642 L 25.164 10.642 L 25.164 10.757 L 25.167 10.76 L 25.688 10.76 L 25.691 10.757 L 25.691 10.642 L 26.197 10.642 L 26.197 10.757 L 26.2 10.76 L 26.72 10.76 L 26.723 10.757 L 26.723 10.642 L 27.229 10.642 L 27.229 10.757 L 27.232 10.76 L 27.753 10.76 L 27.756 10.757 L 27.756 10.642 L 28.262 10.642 L 28.262 10.757 L 28.265 10.76 L 28.785 10.76 L 28.788 10.757 L 28.788 10.642 L 29.294 10.642 L 29.294 10.757 L 29.297 10.76 L 29.818 10.76 L 29.821 10.757 L 29.821 10.642 L 30.327 10.642 L 30.327 10.757 L 30.33 10.76 L 30.85 10.76 L 30.853 10.757 L 30.853 10.642 L 31.359 10.642 L 31.359 10.757 L 31.362 10.76 L 31.883 10.76 L 31.886 10.757 L 31.886 10.642 L 32.392 10.642 L 32.392 10.757 L 32.395 10.76 L 32.915 10.76 L 32.918 10.757 L 32.918 10.642 L 33.424 10.642 L 33.424 10.757 L 33.427 10.76 L 33.948 10.76 L 33.951 10.757 L 33.951 10.642 L 34.457 10.642 L 34.457 10.757 L 34.46 10.76 L 34.98 10.76 L 34.983 10.757 L 34.983 10.642 L 35.909 10.642 L 35.912 10.639 L 35.912 10.208 L 36.027 10.208 L 36.03 10.205 L 36.03 9.685 L 36.027 9.682 L 35.912 9.682 L 35.912 9.176 L 36.027 9.176 L 36.03 9.173 L 36.03 8.652 L 36.027 8.649 L 35.912 8.649 L 35.912 8.143 L 36.027 8.143 L 36.03 8.14 L 36.03 7.62 L 36.027 7.617 L 35.912 7.617 L 35.912 7.111 L 36.027 7.111 L 36.03 7.108 L 36.03 6.587 L 36.027 6.584 L 35.912 6.584 L 35.912 6.078 L 36.027 6.078 L 36.03 6.075 L 36.03 5.555 L 36.027 5.552 L 35.912 5.552 L 35.912 5.121 L 35.909 5.118 L 34.983 5.118 L 34.983 5.003 L 34.98 5 L 34.46 5 L 34.457 5.003 L 34.457 5.118 L 33.951 5.118 L 33.951 5.003 L 33.948 5 L 33.427 5 L 33.424 5.003 L 33.424 5.118 L 32.918 5.118 L 32.918 5.003 L 32.915 5 L 32.395 5 L 32.392 5.003 L 32.392 5.118 L 31.886 5.118 L 31.886 5.003 L 31.883 5 L 31.362 5 L 31.359 5.003 L 31.359 5.118 L 30.853 5.118 L 30.853 5.003 L 30.85 5 L 30.33 5 L 30.327 5.003 L 30.327 5.118 L 29.821 5.118 L 29.821 5.003 L 29.818 5 L 29.297 5 L 29.294 5.003 L 29.294 5.118 L 28.788 5.118 L 28.788 5.003 L 28.785 5 L 28.265 5 L 28.262 5.003 L 28.262 5.118 L 27.756 5.118 L 27.756 5.003 L 27.753 5 L 27.232 5 L 27.229 5.003 L 27.229 5.118 L 26.723 5.118 L 26.723 5.003 L 26.72 5 L 26.2 5 L 26.197 5.003 L 26.197 5.118 L 25.691 5.118 L 25.691 5.003 L 25.688 5 L 25.167 5 L 25.164 5.003 L 25.164 5.118 L 24.658 5.118 L 24.658 5.003 L 24.655 5 L 24.135 5 L 24.132 5.003 L 24.132 5.118 L 23.626 5.118 L 23.626 5.003 L 23.623 5 L 23.102 5 L 23.099 5.003 L 23.099 5.118 L 22.593 5.118 L 22.593 5.003 L 22.59 5 L 22.07 5 L 22.067 5.003 L 22.067 5.118 L 21.141 5.118 L 21.138 5.121 L 21.138 5.552 L 21.023 5.552 L 21.02 5.555 L 21.02 6.075 L 21.023 6.078 L 21.138 6.078 L 21.138 6.584 L 21.023 6.584 L 21.02 6.587 L 21.02 7.108 L 21.023 7.111 L 21.138 7.111 L 21.138 7.617 L 21.023 7.617 L 21.02 7.62 L 21.02 8.14 L 21.023 8.143 L 21.138 8.143 L 21.138 8.649 L 21.023 8.649 L 21.02 8.652 L 21.02 9.173 L 21.023 9.176 L 21.138 9.176 L 21.138 9.682 L 21.023 9.682 L 21.02 9.685 L 21.02 10.205 L 21.023 10.208 L 21.138 10.208 L 21.138 10.639 L 21.141 10.642 L 22.067 10.642 L 22.067 10.757 L 22.07 10.76 L 22.59 10.76 L 22.593 10.757 Z" id="bottom_outsideCutPath" stroke="#000000" stroke-width="0.001" style="stroke:#000000;stroke-width:0.001" vector-effect="non-scaling-stroke"/></g></svg>