0
SECTION
2
HEADER
9
$INSUNITS
70
1
0
ENDSEC
0
SECTION
2
TABLES
0
TABLE
2
LAYER
0
ENDTAB
0
ENDSEC
0
SECTION
2
ENTITIES
0
LINE
8
front_outsideCutPath
10
0.739754
20
0.1279301
11
0.739754
21
0.243
0
LINE
8
front_outsideCutPath
10
0.739754
20
0.243
11
1.23125
21
0.243
0
LINE
8
front_outsideCutPath
10
1.23125
20
0.243
11
1.23125
21
0.1279301
0
LINE
8
front_outsideCutPath
10
1.23125
20
0.1279301
11
1.2341801
21
0.125
0
LINE
8
front_outsideCutPath
10
1.2341801
20
0.125
11
1.7398239
21
0.125
0
LINE
8
front_outsideCutPath
10
1.7398239
20
0.125
11
1.742754
21
0.1279301
0
LINE
8
front_outsideCutPath
10
1.742754
20
0.1279301
11
1.742754
21
0.243
0
LINE
8
front_outsideCutPath
10
1.742754
20
0.243
11
2.23425
21
0.243
0
LINE
8
front_outsideCutPath
10
2.23425
20
0.243
11
2.23425
21
0.1279301
0
LINE
8
front_outsideCutPath
10
2.23425
20
0.1279301
11
2.2371801
21
0.125
0
LINE
8
front_outsideCutPath
10
2.2371801
20
0.125
11
2.7428239
21
0.125
0
LINE
8
front_outsideCutPath
10
2.7428239
20
0.125
11
2.745754
21
0.1279301
0
LINE
8
front_outsideCutPath
10
2.745754
20
0.1279301
11
2.745754
21
0.243
0
LINE
8
front_outsideCutPath
10
2.745754
20
0.243
11
3.23725
21
0.243
0
LINE
8
front_outsideCutPath
10
3.23725
20
0.243
11
3.23725
21
0.1279301
0
LINE
8
front_outsideCutPath
10
3.23725
20
0.1279301
11
3.2401801
21
0.125
0
LINE
8
front_outsideCutPath
10
3.2401801
20
0.125
11
3.7458239
21
0.125
0
LINE
8
front_outsideCutPath
10
3.7458239
20
0.125
11
3.748754
21
0.1279301
0
LINE
8
front_outsideCutPath
10
3.748754
20
0.1279301
11
3.748754
21
0.243
0
LINE
8
front_outsideCutPath
10
3.748754
20
0.243
11
4.24025
21
0.243
0
LINE
8
front_outsideCutPath
10
4.24025
20
0.243
11
4.24025
21
0.1279301
0
LINE
8
front_outsideCutPath
10
4.24025
20
0.1279301
11
4.2431801
21
0.125
0
LINE
8
front_outsideCutPath
10
4.2431801
20
0.125
11
4.7488239
21
0.125
0
LINE
8
front_outsideCutPath
10
4.7488239
20
0.125
11
4.751754
21
0.1279301
0
LINE
8
front_outsideCutPath
10
4.751754
20
0.1279301
11
4.751754
21
0.243
0
LINE
8
front_outsideCutPath
10
4.751754
20
0.243
11
5.24325
21
0.243
0
LINE
8
front_outsideCutPath
10
5.24325
20
0.243
11
5.24325
21
0.1279301
0
LINE
8
front_outsideCutPath
10
5.24325
20
0.1279301
11
5.2461801
21
0.125
0
LINE
8
front_outsideCutPath
10
5.2461801
20
0.125
11
5.7518239
21
0.125
0
LINE
8
front_outsideCutPath
10
5.7518239
20
0.125
11
5.754754
21
0.1279301
0
LINE
8
front_outsideCutPath
10
5.754754
20
0.1279301
11
5.754754
21
0.243
0
LINE
8
front_outsideCutPath
10
5.754754
20
0.243
11
6.24625
21
0.243
0
LINE
8
front_outsideCutPath
10
6.24625
20
0.243
11
6.24625
21
0.1279301
0
LINE
8
front_outsideCutPath
10
6.24625
20
0.1279301
11
6.2491801
21
0.125
0
LINE
8
front_outsideCutPath
10
6.2491801
20
0.125
11
6.7548239
21
0.125
0
LINE
8
front_outsideCutPath
10
6.7548239
20
0.125
11
6.757754
21
0.1279301
0
LINE
8
front_outsideCutPath
10
6.757754
20
0.1279301
11
6.757754
21
0.243
0
LINE
8
front_outsideCutPath
10
6.757754
20
0.243
11
7.24925
21
0.243
0
LINE
8
front_outsideCutPath
10
7.24925
20
0.243
11
7.24925
21
0.1279301
0
LINE
8
front_outsideCutPath
10
7.24925
20
0.1279301
11
7.2521801
21
0.125
0
LINE
8
front_outsideCutPath
10
7.2521801
20
0.125
11
7.7578239
21
0.125
0
LINE
8
front_outsideCutPath
10
7.7578239
20
0.125
11
7.760754
21
0.1279301
0
LINE
8
front_outsideCutPath
10
7.760754
20
0.1279301
11
7.760754
21
0.243
0
LINE
8
front_outsideCutPath
10
7.760754
20
0.243
11
8.25225
21
0.243
0
LINE
8
front_outsideCutPath
10
8.25225
20
0.243
11
8.25225
21
0.1279301
0
LINE
8
front_outsideCutPath
10
8.25225
20
0.1279301
11
8.2551801
21
0.125
0
LINE
8
front_outsideCutPath
10
8.2551801
20
0.125
11
8.7608239
21
0.125
0
LINE
8
front_outsideCutPath
10
8.7608239
20
0.125
11
8.763754
21
0.1279301
0
LINE
8
front_outsideCutPath
10
8.763754
20
0.1279301
11
8.763754
21
0.243
0
LINE
8
front_outsideCutPath
10
8.763754
20
0.243
11
9.25525
21
0.243
0
LINE
8
front_outsideCutPath
10
9.25525
20
0.243
11
9.25525
21
0.1279301
0
LINE
8
front_outsideCutPath
10
9.25525
20
0.1279301
11
9.2581801
21
0.125
0
LINE
8
front_outsideCutPath
10
9.2581801
20
0.125
11
9.7638239
21
0.125
0
LINE
8
front_outsideCutPath
10
9.7638239
20
0.125
11
9.766754
21
0.1279301
0
LINE
8
front_outsideCutPath
10
9.766754
20
0.1279301
11
9.766754
21
0.243
0
LINE
8
front_outsideCutPath
10
9.766754
20
0.243
11
10.25825
21
0.243
0
LINE
8
front_outsideCutPath
10
10.25825
20
0.243
11
10.25825
21
0.1279301
0
LINE
8
front_outsideCutPath
10
10.25825
20
0.1279301
11
10.2611801
21
0.125
0
LINE
8
front_outsideCutPath
10
10.2611801
20
0.125
11
10.7668239
21
0.125
0
LINE
8
front_outsideCutPath
10
10.7668239
20
0.125
11
10.769754
21
0.1279301
0
LINE
8
front_outsideCutPath
10
10.769754
20
0.1279301
11
10.769754
21
0.243
0
LINE
8
front_outsideCutPath
10
10.769754
20
0.243
11
11.26125
21
0.243
0
LINE
8
front_outsideCutPath
10
11.26125
20
0.243
11
11.26125
21
0.1279301
0
LINE
8
front_outsideCutPath
10
11.26125
20
0.1279301
11
11.2641801
21
0.125
0
LINE
8
front_outsideCutPath
10
11.2641801
20
0.125
11
11.7698239
21
0.125
0
LINE
8
front_outsideCutPath
10
11.7698239
20
0.125
11
11.772754
21
0.1279301
0
LINE
8
front_outsideCutPath
10
11.772754
20
0.1279301
11
11.772754
21
0.243
0
LINE
8
front_outsideCutPath
10
11.772754
20
0.243
11
12.26425
21
0.243
0
LINE
8
front_outsideCutPath
10
12.26425
20
0.243
11
12.26425
21
0.1279301
0
LINE
8
front_outsideCutPath
10
12.26425
20
0.1279301
11
12.2671801
21
0.125
0
LINE
8
front_outsideCutPath
10
12.2671801
20
0.125
11
12.7728239
21
0.125
0
LINE
8
front_outsideCutPath
10
12.7728239
20
0.125
11
12.775754
21
0.1279301
0
LINE
8
front_outsideCutPath
10
12.775754
20
0.1279301
11
12.775754
21
0.243
0
LINE
8
front_outsideCutPath
10
12.775754
20
0.243
11
13.26725
21
0.243
0
LINE
8
front_outsideCutPath
10
13.26725
20
0.243
11
13.26725
21
0.1279301
0
LINE
8
front_outsideCutPath
10
13.26725
20
0.1279301
11
13.2701801
21
0.125
0
LINE
8
front_outsideCutPath
10
13.2701801
20
0.125
11
13.7758239
21
0.125
0
LINE
8
front_outsideCutPath
10
13.7758239
20
0.125
11
13.778754
21
0.1279301
0
LINE
8
front_outsideCutPath
10
13.778754
20
0.1279301
11
13.778754
21
0.243
0
LINE
8
front_outsideCutPath
10
13.778754
20
0.243
11
14.27025
21
0.243
0
LINE
8
front_outsideCutPath
10
14.27025
20
0.243
11
14.27025
21
0.1279301
0
LINE
8
front_outsideCutPath
10
14.27025
20
0.1279301
11
14.2731801
21
0.125
0
LINE
8
front_outsideCutPath
10
14.2731801
20
0.125
11
15.0070739
21
0.125
0
LINE
8
front_outsideCutPath
10
15.0070739
20
0.125
11
15.010004
21
0.1279301
0
LINE
8
front_outsideCutPath
10
15.010004
20
0.1279301
11
15.010004
21
0.6253239
0
LINE
8
front_outsideCutPath
10
15.010004
20
0.6253239
11
15.0070739
21
0.628254
0
LINE
8
front_outsideCutPath
10
15.0070739
20
0.628254
11
14.892004
21
0.628254
0
LINE
8
front_outsideCutPath
10
14.892004
20
0.628254
11
14.892004
21
1.11975
0
LINE
8
front_outsideCutPath
10
14.892004
20
1.11975
11
15.0070739
21
1.11975
0
LINE
8
front_outsideCutPath
10
15.0070739
20
1.11975
11
15.010004
21
1.1226801
0
LINE
8
front_outsideCutPath
10
15.010004
20
1.1226801
11
15.010004
21
1.6283239
0
LINE
8
front_outsideCutPath
10
15.010004
20
1.6283239
11
15.0070739
21
1.631254
0
LINE
8
front_outsideCutPath
10
15.0070739
20
1.631254
11
14.892004
21
1.631254
0
LINE
8
front_outsideCutPath
10
14.892004
20
1.631254
11
14.892004
21
2.12275
0
LINE
8
front_outsideCutPath
10
14.892004
20
2.12275
11
15.0070739
21
2.12275
0
LINE
8
front_outsideCutPath
10
15.0070739
20
2.12275
11
15.010004
21
2.1256801
0
LINE
8
front_outsideCutPath
10
15.010004
20
2.1256801
11
15.010004
21
2.6313239
0
LINE
8
front_outsideCutPath
10
15.010004
20
2.6313239
11
15.0070739
21
2.634254
0
LINE
8
front_outsideCutPath
10
15.0070739
20
2.634254
11
14.892004
21
2.634254
0
LINE
8
front_outsideCutPath
10
14.892004
20
2.634254
11
14.892004
21
3.12575
0
LINE
8
front_outsideCutPath
10
14.892004
20
3.12575
11
15.0070739
21
3.12575
0
LINE
8
front_outsideCutPath
10
15.0070739
20
3.12575
11
15.010004
21
3.1286801
0
LINE
8
front_outsideCutPath
10
15.010004
20
3.1286801
11
15.010004
21
3.6343239
0
LINE
8
front_outsideCutPath
10
15.010004
20
3.6343239
11
15.0070739
21
3.637254
0
LINE
8
front_outsideCutPath
10
15.0070739
20
3.637254
11
14.892004
21
3.637254
0
LINE
8
front_outsideCutPath
10
14.892004
20
3.637254
11
14.892004
21
4.12875
0
LINE
8
front_outsideCutPath
10
14.892004
20
4.12875
11
15.0070739
21
4.12875
0
LINE
8
front_outsideCutPath
10
15.0070739
20
4.12875
11
15.010004
21
4.1316801
0
LINE
8
front_outsideCutPath
10
15.010004
20
4.1316801
11
15.010004
21
4.6373239
0
LINE
8
front_outsideCutPath
10
15.010004
20
4.6373239
11
15.0070739
21
4.640254
0
LINE
8
front_outsideCutPath
10
15.0070739
20
4.640254
11
14.892004
21
4.640254
0
LINE
8
front_outsideCutPath
10
14.892004
20
4.640254
11
14.892004
21
5.13175
0
LINE
8
front_outsideCutPath
10
14.892004
20
5.13175
11
15.0070739
21
5.13175
0
LINE
8
front_outsideCutPath
10
15.0070739
20
5.13175
11
15.010004
21
5.1346801
0
LINE
8
front_outsideCutPath
10
15.010004
20
5.1346801
11
15.010004
21
5.6320739
0
LINE
8
front_outsideCutPath
10
15.010004
20
5.6320739
11
15.0070739
21
5.635004
0
LINE
8
front_outsideCutPath
10
15.0070739
20
5.635004
11
14.2731801
21
5.635004
0
LINE
8
front_outsideCutPath
10
14.2731801
20
5.635004
11
14.27025
21
5.6320739
0
LINE
8
front_outsideCutPath
10
14.27025
20
5.6320739
11
14.27025
21
5.517004
0
LINE
8
front_outsideCutPath
10
14.27025
20
5.517004
11
13.778754
21
5.517004
0
LINE
8
front_outsideCutPath
10
13.778754
20
5.517004
11
13.778754
21
5.6320739
0
LINE
8
front_outsideCutPath
10
13.778754
20
5.6320739
11
13.7758239
21
5.635004
0
LINE
8
front_outsideCutPath
10
13.7758239
20
5.635004
11
13.2701801
21
5.635004
0
LINE
8
front_outsideCutPath
10
13.2701801
20
5.635004
11
13.26725
21
5.6320739
0
LINE
8
front_outsideCutPath
10
13.26725
20
5.6320739
11
13.26725
21
5.517004
0
LINE
8
front_outsideCutPath
10
13.26725
20
5.517004
11
12.775754
21
5.517004
0
LINE
8
front_outsideCutPath
10
12.775754
20
5.517004
11
12.775754
21
5.6320739
0
LINE
8
front_outsideCutPath
10
12.775754
20
5.6320739
11
12.7728239
21
5.635004
0
LINE
8
front_outsideCutPath
10
12.7728239
20
5.635004
11
12.2671801
21
5.635004
0
LINE
8
front_outsideCutPath
10
12.2671801
20
5.635004
11
12.26425
21
5.6320739
0
LINE
8
front_outsideCutPath
10
12.26425
20
5.6320739
11
12.26425
21
5.517004
0
LINE
8
front_outsideCutPath
10
12.26425
20
5.517004
11
11.772754
21
5.517004
0
LINE
8
front_outsideCutPath
10
11.772754
20
5.517004
11
11.772754
21
5.6320739
0
LINE
8
front_outsideCutPath
10
11.772754
20
5.6320739
11
11.7698239
21
5.635004
0
LINE
8
front_outsideCutPath
10
11.7698239
20
5.635004
11
11.2641801
21
5.635004
0
LINE
8
front_outsideCutPath
10
11.2641801
20
5.635004
11
11.26125
21
5.6320739
0
LINE
8
front_outsideCutPath
10
11.26125
20
5.6320739
11
11.26125
21
5.517004
0
LINE
8
front_outsideCutPath
10
11.26125
20
5.517004
11
10.769754
21
5.517004
0
LINE
8
front_outsideCutPath
10
10.769754
20
5.517004
11
10.769754
21
5.6320739
0
LINE
8
front_outsideCutPath
10
10.769754
20
5.6320739
11
10.7668239
21
5.635004
0
LINE
8
front_outsideCutPath
10
10.7668239
20
5.635004
11
10.2611801
21
5.635004
0
LINE
8
front_outsideCutPath
10
10.2611801
20
5.635004
11
10.25825
21
5.6320739
0
LINE
8
front_outsideCutPath
10
10.25825
20
5.6320739
11
10.25825
21
5.517004
0
LINE
8
front_outsideCutPath
10
10.25825
20
5.517004
11
9.766754
21
5.517004
0
LINE
8
front_outsideCutPath
10
9.766754
20
5.517004
11
9.766754
21
5.6320739
0
LINE
8
front_outsideCutPath
10
9.766754
20
5.6320739
11
9.7638239
21
5.635004
0
LINE
8
front_outsideCutPath
10
9.7638239
20
5.635004
11
9.2581801
21
5.635004
0
LINE
8
front_outsideCutPath
10
9.2581801
20
5.635004
11
9.25525
21
5.6320739
0
LINE
8
front_outsideCutPath
10
9.25525
20
5.6320739
11
9.25525
21
5.517004
0
LINE
8
front_outsideCutPath
10
9.25525
20
5.517004
11
8.763754
21
5.517004
0
LINE
8
front_outsideCutPath
10
8.763754
20
5.517004
11
8.763754
21
5.6320739
0
LINE
8
front_outsideCutPath
10
8.763754
20
5.6320739
11
8.7608239
21
5.635004
0
LINE
8
front_outsideCutPath
10
8.7608239
20
5.635004
11
8.2551801
21
5.635004
0
LINE
8
front_outsideCutPath
10
8.2551801
20
5.635004
11
8.25225
21
5.6320739
0
LINE
8
front_outsideCutPath
10
8.25225
20
5.6320739
11
8.25225
21
5.517004
0
LINE
8
front_outsideCutPath
10
8.25225
20
5.517004
11
7.760754
21
5.517004
0
LINE
8
front_outsideCutPath
10
7.760754
20
5.517004
11
7.760754
21
5.6320739
0
LINE
8
front_outsideCutPath
10
7.760754
20
5.6320739
11
7.7578239
21
5.635004
0
LINE
8
front_outsideCutPath
10
7.7578239
20
5.635004
11
7.2521801
21
5.635004
0
LINE
8
front_outsideCutPath
10
7.2521801
20
5.635004
11
7.24925
21
5.6320739
0
LINE
8
front_outsideCutPath
10
7.24925
20
5.6320739
11
7.24925
21
5.517004
0
LINE
8
front_outsideCutPath
10
7.24925
20
5.517004
11
6.757754
21
5.517004
0
LINE
8
front_outsideCutPath
10
6.757754
20
5.517004
11
6.757754
21
5.6320739
0
LINE
8
front_outsideCutPath
10
6.757754
20
5.6320739
11
6.7548239
21
5.635004
0
LINE
8
front_outsideCutPath
10
6.7548239
20
5.635004
11
6.2491801
21
5.635004
0
LINE
8
front_outsideCutPath
10
6.2491801
20
5.635004
11
6.24625
21
5.6320739
0
LINE
8
front_outsideCutPath
10
6.24625
20
5.6320739
11
6.24625
21
5.517004
0
LINE
8
front_outsideCutPath
10
6.24625
20
5.517004
11
5.754754
21
5.517004
0
LINE
8
front_outsideCutPath
10
5.754754
20
5.517004
11
5.754754
21
5.6320739
0
LINE
8
front_outsideCutPath
10
5.754754
20
5.6320739
11
5.7518239
21
5.635004
0
LINE
8
front_outsideCutPath
10
5.7518239
20
5.635004
11
5.2461801
21
5.635004
0
LINE
8
front_outsideCutPath
10
5.2461801
20
5.635004
11
5.24325
21
5.6320739
0
LINE
8
front_outsideCutPath
10
5.24325
20
5.6320739
11
5.24325
21
5.517004
0
LINE
8
front_outsideCutPath
10
5.24325
20
5.517004
11
4.751754
21
5.517004
0
LINE
8
front_outsideCutPath
10
4.751754
20
5.517004
11
4.751754
21
5.6320739
0
LINE
8
front_outsideCutPath
10
4.751754
20
5.6320739
11
4.7488239
21
5.635004
0
LINE
8
front_outsideCutPath
10
4.7488239
20
5.635004
11
4.2431801
21
5.635004
0
LINE
8
front_outsideCutPath
10
4.2431801
20
5.635004
11
4.24025
21
5.6320739
0
LINE
8
front_outsideCutPath
10
4.24025
20
5.6320739
11
4.24025
21
5.517004
0
LINE
8
front_outsideCutPath
10
4.24025
20
5.517004
11
3.748754
21
5.517004
0
LINE
8
front_outsideCutPath
10
3.748754
20
5.517004
11
3.748754
21
5.6320739
0
LINE
8
front_outsideCutPath
10
3.748754
20
5.6320739
11
3.7458239
21
5.635004
0
LINE
8
front_outsideCutPath
10
3.7458239
20
5.635004
11
3.2401801
21
5.635004
0
LINE
8
front_outsideCutPath
10
3.2401801
20
5.635004
11
3.23725
21
5.6320739
0
LINE
8
front_outsideCutPath
10
3.23725
20
5.6320739
11
3.23725
21
5.517004
0
LINE
8
front_outsideCutPath
10
3.23725
20
5.517004
11
2.745754
21
5.517004
0
LINE
8
front_outsideCutPath
10
2.745754
20
5.517004
11
2.745754
21
5.6320739
0
LINE
8
front_outsideCutPath
10
2.745754
20
5.6320739
11
2.7428239
21
5.635004
0
LINE
8
front_outsideCutPath
10
2.7428239
20
5.635004
11
2.2371801
21
5.635004
0
LINE
8
front_outsideCutPath
10
2.2371801
20
5.635004
11
2.23425
21
5.6320739
0
LINE
8
front_outsideCutPath
10
2.23425
20
5.6320739
11
2.23425
21
5.517004
0
LINE
8
front_outsideCutPath
10
2.23425
20
5.517004
11
1.742754
21
5.517004
0
LINE
8
front_outsideCutPath
10
1.742754
20
5.517004
11
1.742754
21
5.6320739
0
LINE
8
front_outsideCutPath
10
1.742754
20
5.6320739
11
1.7398239
21
5.635004
0
LINE
8
front_outsideCutPath
10
1.7398239
20
5.635004
11
1.2341801
21
5.635004
0
LINE
8
front_outsideCutPath
10
1.2341801
20
5.635004
11
1.23125
21
5.6320739
0
LINE
8
front_outsideCutPath
10
1.23125
20
5.6320739
11
1.23125
21
5.517004
0
LINE
8
front_outsideCutPath
10
1.23125
20
5.517004
11
0.739754
21
5.517004
0
LINE
8
front_outsideCutPath
10
0.739754
20
5.517004
11
0.739754
21
5.6320739
0
LINE
8
front_outsideCutPath
10
0.739754
20
5.6320739
11
0.7368239
21
5.635004
0
LINE
8
front_outsideCutPath
10
0.7368239
20
5.635004
11
0.0029301
21
5.635004
0
LINE
8
front_outsideCutPath
10
0.0029301
20
5.635004
11
0
21
5.6320739
0
LINE
8
front_outsideCutPath
10
0
20
5.6320739
11
0
21
5.1346801
0
LINE
8
front_outsideCutPath
10
0
20
5.1346801
11
0.0029301
21
5.13175
0
LINE
8
front_outsideCutPath
10
0.0029301
20
5.13175
11
0.118
21
5.13175
0
LINE
8
front_outsideCutPath
10
0.118
20
5.13175
11
0.118
21
4.640254
0
LINE
8
front_outsideCutPath
10
0.118
20
4.640254
11
0.0029301
21
4.640254
0
LINE
8
front_outsideCutPath
10
0.0029301
20
4.640254
11
0
21
4.6373239
0
LINE
8
front_outsideCutPath
10
0
20
4.6373239
11
0
21
4.1316801
0
LINE
8
front_outsideCutPath
10
0
20
4.1316801
11
0.0029301
21
4.12875
0
LINE
8
front_outsideCutPath
10
0.0029301
20
4.12875
11
0.118
21
4.12875
0
LINE
8
front_outsideCutPath
10
0.118
20
4.12875
11
0.118
21
3.637254
0
LINE
8
front_outsideCutPath
10
0.118
20
3.637254
11
0.0029301
21
3.637254
0
LINE
8
front_outsideCutPath
10
0.0029301
20
3.637254
11
0
21
3.6343239
0
LINE
8
front_outsideCutPath
10
0
20
3.6343239
11
0
21
3.1286801
0
LINE
8
front_outsideCutPath
10
0
20
3.1286801
11
0.0029301
21
3.12575
0
LINE
8
front_outsideCutPath
10
0.0029301
20
3.12575
11
0.118
21
3.12575
0
LINE
8
front_outsideCutPath
10
0.118
20
3.12575
11
0.118
21
2.634254
0
LINE
8
front_outsideCutPath
10
0.118
20
2.634254
11
0.0029301
21
2.634254
0
LINE
8
front_outsideCutPath
10
0.0029301
20
2.634254
11
0
21
2.6313239
0
LINE
8
front_outsideCutPath
10
0
20
2.6313239
11
0
21
2.1256801
0
LINE
8
front_outsideCutPath
10
0
20
2.1256801
11
0.0029301
21
2.12275
0
LINE
8
front_outsideCutPath
10
0.0029301
20
2.12275
11
0.118
21
2.12275
0
LINE
8
front_outsideCutPath
10
0.118
20
2.12275
11
0.118
21
1.631254
0
LINE
8
front_outsideCutPath
10
0.118
20
1.631254
11
0.0029301
21
1.631254
0
LINE
8
front_outsideCutPath
10
0.0029301
20
1.631254
11
0
21
1.6283239
0
LINE
8
front_outsideCutPath
10
0
20
1.6283239
11
0
21
1.1226801
0
LINE
8
front_outsideCutPath
10
0
20
1.1226801
11
0.0029301
21
1.11975
0
LINE
8
front_outsideCutPath
10
0.0029301
20
1.11975
11
0.118
21
1.11975
0
LINE
8
front_outsideCutPath
10
0.118
20
1.11975
11
0.118
21
0.628254
0
LINE
8
front_outsideCutPath
10
0.118
20
0.628254
11
0.0029301
21
0.628254
0
LINE
8
front_outsideCutPath
10
0.0029301
20
0.628254
11
0
21
0.6253239
0
LINE
8
front_outsideCutPath
10
0
20
0.6253239
11
0
21
0.1279301
0
LINE
8
front_outsideCutPath
10
0
20
0.1279301
11
0.0029301
21
0.125
0
LINE
8
front_outsideCutPath
10
0.0029301
20
0.125
11
0.7368239
21
0.125
0
LINE
8
front_outsideCutPath
10
0.7368239
20
0.125
11
0.739754
21
0.1279301
0
LINE
8
left_outsideCutPath
10
15.763258
20
0.1279301
11
15.763258
21
0.243
0
LINE
8
left_outsideCutPath
10
15.763258
20
0.243
11
16.254754
21
0.243
0
LINE
8
left_outsideCutPath
10
16.254754
20
0.243
11
16.254754
21
0.1279301
0
LINE
8
left_outsideCutPath
10
16.254754
20
0.1279301
11
16.2576841
21
0.125
0
LINE
8
left_outsideCutPath
10
16.2576841
20
0.125
11
16.7633279
21
0.125
0
LINE
8
left_outsideCutPath
10
16.7633279
20
0.125
11
16.766258
21
0.1279301
0
LINE
8
left_outsideCutPath
10
16.766258
20
0.1279301
11
16.766258
21
0.243
0
LINE
8
left_outsideCutPath
10
16.766258
20
0.243
11
17.257754
21
0.243
0
LINE
8
left_outsideCutPath
10
17.257754
20
0.243
11
17.257754
21
0.1279301
0
LINE
8
left_outsideCutPath
10
17.257754
20
0.1279301
11
17.2606841
21
0.125
0
LINE
8
left_outsideCutPath
10
17.2606841
20
0.125
11
17.7663279
21
0.125
0
LINE
8
left_outsideCutPath
10
17.7663279
20
0.125
11
17.769258
21
0.1279301
0
LINE
8
left_outsideCutPath
10
17.769258
20
0.1279301
11
17.769258
21
0.243
0
LINE
8
left_outsideCutPath
10
17.769258
20
0.243
11
18.260754
21
0.243
0
LINE
8
left_outsideCutPath
10
18.260754
20
0.243
11
18.260754
21
0.1279301
0
LINE
8
left_outsideCutPath
10
18.260754
20
0.1279301
11
18.2636841
21
0.125
0
LINE
8
left_outsideCutPath
10
18.2636841
20
0.125
11
18.7693279
21
0.125
0
LINE
8
left_outsideCutPath
10
18.7693279
20
0.125
11
18.772258
21
0.1279301
0
LINE
8
left_outsideCutPath
10
18.772258
20
0.1279301
11
18.772258
21
0.243
0
LINE
8
left_outsideCutPath
10
18.772258
20
0.243
11
19.263754
21
0.243
0
LINE
8
left_outsideCutPath
10
19.263754
20
0.243
11
19.263754
21
0.1279301
0
LINE
8
left_outsideCutPath
10
19.263754
20
0.1279301
11
19.2666841
21
0.125
0
LINE
8
left_outsideCutPath
10
19.2666841
20
0.125
11
19.7723279
21
0.125
0
LINE
8
left_outsideCutPath
10
19.7723279
20
0.125
11
19.775258
21
0.1279301
0
LINE
8
left_outsideCutPath
10
19.775258
20
0.1279301
11
19.775258
21
0.243
0
LINE
8
left_outsideCutPath
10
19.775258
20
0.243
11
20.266754
21
0.243
0
LINE
8
left_outsideCutPath
10
20.266754
20
0.243
11
20.266754
21
0.1279301
0
LINE
8
left_outsideCutPath
10
20.266754
20
0.1279301
11
20.2696841
21
0.125
0
LINE
8
left_outsideCutPath
10
20.2696841
20
0.125
11
20.7740779
21
0.125
0
LINE
8
left_outsideCutPath
10
20.7740779
20
0.125
11
20.777008
21
0.1279301
0
LINE
8
left_outsideCutPath
10
20.777008
20
0.1279301
11
20.777008
21
0.61825
0
LINE
8
left_outsideCutPath
10
20.777008
20
0.61825
11
20.8920779
21
0.61825
0
LINE
8
left_outsideCutPath
10
20.8920779
20
0.61825
11
20.895008
21
0.6211801
0
LINE
8
left_outsideCutPath
10
20.895008
20
0.6211801
11
20.895008
21
1.1268239
0
LINE
8
left_outsideCutPath
10
20.895008
20
1.1268239
11
20.8920779
21
1.129754
0
LINE
8
left_outsideCutPath
10
20.8920779
20
1.129754
11
20.777008
21
1.129754
0
LINE
8
left_outsideCutPath
10
20.777008
20
1.129754
11
20.777008
21
1.62125
0
LINE
8
left_outsideCutPath
10
20.777008
20
1.62125
11
20.8920779
21
1.62125
0
LINE
8
left_outsideCutPath
10
20.8920779
20
1.62125
11
20.895008
21
1.6241801
0
LINE
8
left_outsideCutPath
10
20.895008
20
1.6241801
11
20.895008
21
2.1298239
0
LINE
8
left_outsideCutPath
10
20.895008
20
2.1298239
11
20.8920779
21
2.132754
0
LINE
8
left_outsideCutPath
10
20.8920779
20
2.132754
11
20.777008
21
2.132754
0
LINE
8
left_outsideCutPath
10
20.777008
20
2.132754
11
20.777008
21
2.62425
0
LINE
8
left_outsideCutPath
10
20.777008
20
2.62425
11
20.8920779
21
2.62425
0
LINE
8
left_outsideCutPath
10
20.8920779
20
2.62425
11
20.895008
21
2.6271801
0
LINE
8
left_outsideCutPath
10
20.895008
20
2.6271801
11
20.895008
21
3.1328239
0
LINE
8
left_outsideCutPath
10
20.895008
20
3.1328239
11
20.8920779
21
3.135754
0
LINE
8
left_outsideCutPath
10
20.8920779
20
3.135754
11
20.777008
21
3.135754
0
LINE
8
left_outsideCutPath
10
20.777008
20
3.135754
11
20.777008
21
3.62725
0
LINE
8
left_outsideCutPath
10
20.777008
20
3.62725
11
20.8920779
21
3.62725
0
LINE
8
left_outsideCutPath
10
20.8920779
20
3.62725
11
20.895008
21
3.6301801
0
LINE
8
left_outsideCutPath
10
20.895008
20
3.6301801
11
20.895008
21
4.1358239
0
LINE
8
left_outsideCutPath
10
20.895008
20
4.1358239
11
20.8920779
21
4.138754
0
LINE
8
left_outsideCutPath
10
20.8920779
20
4.138754
11
20.777008
21
4.138754
0
LINE
8
left_outsideCutPath
10
20.777008
20
4.138754
11
20.777008
21
4.63025
0
LINE
8
left_outsideCutPath
10
20.777008
20
4.63025
11
20.8920779
21
4.63025
0
LINE
8
left_outsideCutPath
10
20.8920779
20
4.63025
11
20.895008
21
4.6331801
0
LINE
8
left_outsideCutPath
10
20.895008
20
4.6331801
11
20.895008
21
5.1388239
0
LINE
8
left_outsideCutPath
10
20.895008
20
5.1388239
11
20.8920779
21
5.141754
0
LINE
8
left_outsideCutPath
10
20.8920779
20
5.141754
11
20.777008
21
5.141754
0
LINE
8
left_outsideCutPath
10
20.777008
20
5.141754
11
20.777008
21
5.6320739
0
LINE
8
left_outsideCutPath
10
20.777008
20
5.6320739
11
20.7740779
21
5.635004
0
LINE
8
left_outsideCutPath
10
20.7740779
20
5.635004
11
20.2696841
21
5.635004
0
LINE
8
left_outsideCutPath
10
20.2696841
20
5.635004
11
20.266754
21
5.6320739
0
LINE
8
left_outsideCutPath
10
20.266754
20
5.6320739
11
20.266754
21
5.517004
0
LINE
8
left_outsideCutPath
10
20.266754
20
5.517004
11
19.775258
21
5.517004
0
LINE
8
left_outsideCutPath
10
19.775258
20
5.517004
11
19.775258
21
5.6320739
0
LINE
8
left_outsideCutPath
10
19.775258
20
5.6320739
11
19.7723279
21
5.635004
0
LINE
8
left_outsideCutPath
10
19.7723279
20
5.635004
11
19.2666841
21
5.635004
0
LINE
8
left_outsideCutPath
10
19.2666841
20
5.635004
11
19.263754
21
5.6320739
0
LINE
8
left_outsideCutPath
10
19.263754
20
5.6320739
11
19.263754
21
5.517004
0
LINE
8
left_outsideCutPath
10
19.263754
20
5.517004
11
18.772258
21
5.517004
0
LINE
8
left_outsideCutPath
10
18.772258
20
5.517004
11
18.772258
21
5.6320739
0
LINE
8
left_outsideCutPath
10
18.772258
20
5.6320739
11
18.7693279
21
5.635004
0
LINE
8
left_outsideCutPath
10
18.7693279
20
5.635004
11
18.2636841
21
5.635004
0
LINE
8
left_outsideCutPath
10
18.2636841
20
5.635004
11
18.260754
21
5.6320739
0
LINE
8
left_outsideCutPath
10
18.260754
20
5.6320739
11
18.260754
21
5.517004
0
LINE
8
left_outsideCutPath
10
18.260754
20
5.517004
11
17.769258
21
5.517004
0
LINE
8
left_outsideCutPath
10
17.769258
20
5.517004
11
17.769258
21
5.6320739
0
LINE
8
left_outsideCutPath
10
17.769258
20
5.6320739
11
17.7663279
21
5.635004
0
LINE
8
left_outsideCutPath
10
17.7663279
20
5.635004
11
17.2606841
21
5.635004
0
LINE
8
left_outsideCutPath
10
17.2606841
20
5.635004
11
17.257754
21
5.6320739
0
LINE
8
left_outsideCutPath
10
17.257754
20
5.6320739
11
17.257754
21
5.517004
0
LINE
8
left_outsideCutPath
10
17.257754
20
5.517004
11
16.766258
21
5.517004
0
LINE
8
left_outsideCutPath
10
16.766258
20
5.517004
11
16.766258
21
5.6320739
0
LINE
8
left_outsideCutPath
10
16.766258
20
5.6320739
11
16.7633279
21
5.635004
0
LINE
8
left_outsideCutPath
10
16.7633279
20
5.635004
11
16.2576841
21
5.635004
0
LINE
8
left_outsideCutPath
10
16.2576841
20
5.635004
11
16.254754
21
5.6320739
0
LINE
8
left_outsideCutPath
10
16.254754
20
5.6320739
11
16.254754
21
5.517004
0
LINE
8
left_outsideCutPath
10
16.254754
20
5.517004
11
15.763258
21
5.517004
0
LINE
8
left_outsideCutPath
10
15.763258
20
5.517004
11
15.763258
21
5.6320739
0
LINE
8
left_outsideCutPath
10
15.763258
20
5.6320739
11
15.7603279
21
5.635004
0
LINE
8
left_outsideCutPath
10
15.7603279
20
5.635004
11
15.2559341
21
5.635004
0
LINE
8
left_outsideCutPath
10
15.2559341
20
5.635004
11
15.253004
21
5.6320739
0
LINE
8
left_outsideCutPath
10
15.253004
20
5.6320739
11
15.253004
21
5.141754
0
LINE
8
left_outsideCutPath
10
15.253004
20
5.141754
11
15.1379341
21
5.141754
0
LINE
8
left_outsideCutPath
10
15.1379341
20
5.141754
11
15.135004
21
5.1388239
0
LINE
8
left_outsideCutPath
10
15.135004
20
5.1388239
11
15.135004
21
4.6331801
0
LINE
8
left_outsideCutPath
10
15.135004
20
4.6331801
11
15.1379341
21
4.63025
0
LINE
8
left_outsideCutPath
10
15.1379341
20
4.63025
11
15.253004
21
4.63025
0
LINE
8
left_outsideCutPath
10
15.253004
20
4.63025
11
15.253004
21
4.138754
0
LINE
8
left_outsideCutPath
10
15.253004
20
4.138754
11
15.1379341
21
4.138754
0
LINE
8
left_outsideCutPath
10
15.1379341
20
4.138754
11
15.135004
21
4.1358239
0
LINE
8
left_outsideCutPath
10
15.135004
20
4.1358239
11
15.135004
21
3.6301801
0
LINE
8
left_outsideCutPath
10
15.135004
20
3.6301801
11
15.1379341
21
3.62725
0
LINE
8
left_outsideCutPath
10
15.1379341
20
3.62725
11
15.253004
21
3.62725
0
LINE
8
left_outsideCutPath
10
15.253004
20
3.62725
11
15.253004
21
3.135754
0
LINE
8
left_outsideCutPath
10
15.253004
20
3.135754
11
15.1379341
21
3.135754
0
LINE
8
left_outsideCutPath
10
15.1379341
20
3.135754
11
15.135004
21
3.1328239
0
LINE
8
left_outsideCutPath
10
15.135004
20
3.1328239
11
15.135004
21
2.6271801
0
LINE
8
left_outsideCutPath
10
15.135004
20
2.6271801
11
15.1379341
21
2.62425
0
LINE
8
left_outsideCutPath
10
15.1379341
20
2.62425
11
15.253004
21
2.62425
0
LINE
8
left_outsideCutPath
10
15.253004
20
2.62425
11
15.253004
21
2.132754
0
LINE
8
left_outsideCutPath
10
15.253004
20
2.132754
11
15.1379341
21
2.132754
0
LINE
8
left_outsideCutPath
10
15.1379341
20
2.132754
11
15.135004
21
2.1298239
0
LINE
8
left_outsideCutPath
10
15.135004
20
2.1298239
11
15.135004
21
1.6241801
0
LINE
8
left_outsideCutPath
10
15.135004
20
1.6241801
11
15.1379341
21
1.62125
0
LINE
8
left_outsideCutPath
10
15.1379341
20
1.62125
11
15.253004
21
1.62125
0
LINE
8
left_outsideCutPath
10
15.253004
20
1.62125
11
15.253004
21
1.129754
0
LINE
8
left_outsideCutPath
10
15.253004
20
1.129754
11
15.1379341
21
1.129754
0
LINE
8
left_outsideCutPath
10
15.1379341
20
1.129754
11
15.135004
21
1.1268239
0
LINE
8
left_outsideCutPath
10
15.135004
20
1.1268239
11
15.135004
21
0.6211801
0
LINE
8
left_outsideCutPath
10
15.135004
20
0.6211801
11
15.1379341
21
0.61825
0
LINE
8
left_outsideCutPath
10
15.1379341
20
0.61825
11
15.253004
21
0.61825
0
LINE
8
left_outsideCutPath
10
15.253004
20
0.61825
11
15.253004
21
0.1279301
0
LINE
8
left_outsideCutPath
10
15.253004
20
0.1279301
11
15.2559341
21
0.125
0
LINE
8
left_outsideCutPath
10
15.2559341
20
0.125
11
15.7603279
21
0.125
0
LINE
8
left_outsideCutPath
10
15.7603279
20
0.125
11
15.763258
21
0.1279301
0
LINE
8
top_outsideCutPath
10
22.261262
20
0.1279301
11
22.261262
21
0.243
0
LINE
8
top_outsideCutPath
10
22.261262
20
0.243
11
22.752758
21
0.243
0
LINE
8
top_outsideCutPath
10
22.752758
20
0.243
11
22.752758
21
0.1279301
0
LINE
8
top_outsideCutPath
10
22.752758
20
0.1279301
11
22.7556881
21
0.125
0
LINE
8
top_outsideCutPath
10
22.7556881
20
0.125
11
23.2613319
21
0.125
0
LINE
8
top_outsideCutPath
10
23.2613319
20
0.125
11
23.264262
21
0.1279301
0
LINE
8
top_outsideCutPath
10
23.264262
20
0.1279301
11
23.264262
21
0.243
0
LINE
8
top_outsideCutPath
10
23.264262
20
0.243
11
23.755758
21
0.243
0
LINE
8
top_outsideCutPath
10
23.755758
20
0.243
11
23.755758
21
0.1279301
0
LINE
8
top_outsideCutPath
10
23.755758
20
0.1279301
11
23.7586881
21
0.125
0
LINE
8
top_outsideCutPath
10
23.7586881
20
0.125
11
24.2643319
21
0.125
0
LINE
8
top_outsideCutPath
10
24.2643319
20
0.125
11
24.267262
21
0.1279301
0
LINE
8
top_outsideCutPath
10
24.267262
20
0.1279301
11
24.267262
21
0.243
0
LINE
8
top_outsideCutPath
10
24.267262
20
0.243
11
24.758758
21
0.243
0
LINE
8
top_outsideCutPath
10
24.758758
20
0.243
11
24.758758
21
0.1279301
0
LINE
8
top_outsideCutPath
10
24.758758
20
0.1279301
11
24.7616881
21
0.125
0
LINE
8
top_outsideCutPath
10
24.7616881
20
0.125
11
25.2673319
21
0.125
0
LINE
8
top_outsideCutPath
10
25.2673319
20
0.125
11
25.270262
21
0.1279301
0
LINE
8
top_outsideCutPath
10
25.270262
20
0.1279301
11
25.270262
21
0.243
0
LINE
8
top_outsideCutPath
10
25.270262
20
0.243
11
25.761758
21
0.243
0
LINE
8
top_outsideCutPath
10
25.761758
20
0.243
11
25.761758
21
0.1279301
0
LINE
8
top_outsideCutPath
10
25.761758
20
0.1279301
11
25.7646881
21
0.125
0
LINE
8
top_outsideCutPath
10
25.7646881
20
0.125
11
26.2703319
21
0.125
0
LINE
8
top_outsideCutPath
10
26.2703319
20
0.125
11
26.273262
21
0.1279301
0
LINE
8
top_outsideCutPath
10
26.273262
20
0.1279301
11
26.273262
21
0.243
0
LINE
8
top_outsideCutPath
10
26.273262
20
0.243
11
26.764758
21
0.243
0
LINE
8
top_outsideCutPath
10
26.764758
20
0.243
11
26.764758
21
0.1279301
0
LINE
8
top_outsideCutPath
10
26.764758
20
0.1279301
11
26.7676881
21
0.125
0
LINE
8
top_outsideCutPath
10
26.7676881
20
0.125
11
27.2733319
21
0.125
0
LINE
8
top_outsideCutPath
10
27.2733319
20
0.125
11
27.276262
21
0.1279301
0
LINE
8
top_outsideCutPath
10
27.276262
20
0.1279301
11
27.276262
21
0.243
0
LINE
8
top_outsideCutPath
10
27.276262
20
0.243
11
27.767758
21
0.243
0
LINE
8
top_outsideCutPath
10
27.767758
20
0.243
11
27.767758
21
0.1279301
0
LINE
8
top_outsideCutPath
10
27.767758
20
0.1279301
11
27.7706881
21
0.125
0
LINE
8
top_outsideCutPath
10
27.7706881
20
0.125
11
28.2763319
21
0.125
0
LINE
8
top_outsideCutPath
10
28.2763319
20
0.125
11
28.279262
21
0.1279301
0
LINE
8
top_outsideCutPath
10
28.279262
20
0.1279301
11
28.279262
21
0.243
0
LINE
8
top_outsideCutPath
10
28.279262
20
0.243
11
28.770758
21
0.243
0
LINE
8
top_outsideCutPath
10
28.770758
20
0.243
11
28.770758
21
0.1279301
0
LINE
8
top_outsideCutPath
10
28.770758
20
0.1279301
11
28.7736881
21
0.125
0
LINE
8
top_outsideCutPath
10
28.7736881
20
0.125
11
29.2793319
21
0.125
0
LINE
8
top_outsideCutPath
10
29.2793319
20
0.125
11
29.282262
21
0.1279301
0
LINE
8
top_outsideCutPath
10
29.282262
20
0.1279301
11
29.282262
21
0.243
0
LINE
8
top_outsideCutPath
10
29.282262
20
0.243
11
29.773758
21
0.243
0
LINE
8
top_outsideCutPath
10
29.773758
20
0.243
11
29.773758
21
0.1279301
0
LINE
8
top_outsideCutPath
10
29.773758
20
0.1279301
11
29.7766881
21
0.125
0
LINE
8
top_outsideCutPath
10
29.7766881
20
0.125
11
30.2823319
21
0.125
0
LINE
8
top_outsideCutPath
10
30.2823319
20
0.125
11
30.285262
21
0.1279301
0
LINE
8
top_outsideCutPath
10
30.285262
20
0.1279301
11
30.285262
21
0.243
0
LINE
8
top_outsideCutPath
10
30.285262
20
0.243
11
30.776758
21
0.243
0
LINE
8
top_outsideCutPath
10
30.776758
20
0.243
11
30.776758
21
0.1279301
0
LINE
8
top_outsideCutPath
10
30.776758
20
0.1279301
11
30.7796881
21
0.125
0
LINE
8
top_outsideCutPath
10
30.7796881
20
0.125
11
31.2853319
21
0.125
0
LINE
8
top_outsideCutPath
10
31.2853319
20
0.125
11
31.288262
21
0.1279301
0
LINE
8
top_outsideCutPath
10
31.288262
20
0.1279301
11
31.288262
21
0.243
0
LINE
8
top_outsideCutPath
10
31.288262
20
0.243
11
31.779758
21
0.243
0
LINE
8
top_outsideCutPath
10
31.779758
20
0.243
11
31.779758
21
0.1279301
0
LINE
8
top_outsideCutPath
10
31.779758
20
0.1279301
11
31.7826881
21
0.125
0
LINE
8
top_outsideCutPath
10
31.7826881
20
0.125
11
32.2883319
21
0.125
0
LINE
8
top_outsideCutPath
10
32.2883319
20
0.125
11
32.291262
21
0.1279301
0
LINE
8
top_outsideCutPath
10
32.291262
20
0.1279301
11
32.291262
21
0.243
0
LINE
8
top_outsideCutPath
10
32.291262
20
0.243
11
32.782758
21
0.243
0
LINE
8
top_outsideCutPath
10
32.782758
20
0.243
11
32.782758
21
0.1279301
0
LINE
8
top_outsideCutPath
10
32.782758
20
0.1279301
11
32.7856881
21
0.125
0
LINE
8
top_outsideCutPath
10
32.7856881
20
0.125
11
33.2913319
21
0.125
0
LINE
8
top_outsideCutPath
10
33.2913319
20
0.125
11
33.294262
21
0.1279301
0
LINE
8
top_outsideCutPath
10
33.294262
20
0.1279301
11
33.294262
21
0.243
0
LINE
8
top_outsideCutPath
10
33.294262
20
0.243
11
33.785758
21
0.243
0
LINE
8
top_outsideCutPath
10
33.785758
20
0.243
11
33.785758
21
0.1279301
0
LINE
8
top_outsideCutPath
10
33.785758
20
0.1279301
11
33.7886881
21
0.125
0
LINE
8
top_outsideCutPath
10
33.7886881
20
0.125
11
34.2943319
21
0.125
0
LINE
8
top_outsideCutPath
10
34.2943319
20
0.125
11
34.297262
21
0.1279301
0
LINE
8
top_outsideCutPath
10
34.297262
20
0.1279301
11
34.297262
21
0.243
0
LINE
8
top_outsideCutPath
10
34.297262
20
0.243
11
34.788758
21
0.243
0
LINE
8
top_outsideCutPath
10
34.788758
20
0.243
11
34.788758
21
0.1279301
0
LINE
8
top_outsideCutPath
10
34.788758
20
0.1279301
11
34.7916881
21
0.125
0
LINE
8
top_outsideCutPath
10
34.7916881
20
0.125
11
35.2973319
21
0.125
0
LINE
8
top_outsideCutPath
10
35.2973319
20
0.125
11
35.300262
21
0.1279301
0
LINE
8
top_outsideCutPath
10
35.300262
20
0.1279301
11
35.300262
21
0.243
0
LINE
8
top_outsideCutPath
10
35.300262
20
0.243
11
35.9090819
21
0.243
0
LINE
8
top_outsideCutPath
10
35.9090819
20
0.243
11
35.912012
21
0.2459301
0
LINE
8
top_outsideCutPath
10
35.912012
20
0.2459301
11
35.912012
21
0.74325
0
LINE
8
top_outsideCutPath
10
35.912012
20
0.74325
11
36.0270819
21
0.74325
0
LINE
8
top_outsideCutPath
10
36.0270819
20
0.74325
11
36.030012
21
0.7461801
0
LINE
8
top_outsideCutPath
10
36.030012
20
0.7461801
11
36.030012
21
1.2518239
0
LINE
8
top_outsideCutPath
10
36.030012
20
1.2518239
11
36.0270819
21
1.254754
0
LINE
8
top_outsideCutPath
10
36.0270819
20
1.254754
11
35.912012
21
1.254754
0
LINE
8
top_outsideCutPath
10
35.912012
20
1.254754
11
35.912012
21
1.74625
0
LINE
8
top_outsideCutPath
10
35.912012
20
1.74625
11
36.0270819
21
1.74625
0
LINE
8
top_outsideCutPath
10
36.0270819
20
1.74625
11
36.030012
21
1.7491801
0
LINE
8
top_outsideCutPath
10
36.030012
20
1.7491801
11
36.030012
21
2.2548239
0
LINE
8
top_outsideCutPath
10
36.030012
20
2.2548239
11
36.0270819
21
2.257754
0
LINE
8
top_outsideCutPath
10
36.0270819
20
2.257754
11
35.912012
21
2.257754
0
LINE
8
top_outsideCutPath
10
35.912012
20
2.257754
11
35.912012
21
2.74925
0
LINE
8
top_outsideCutPath
10
35.912012
20
2.74925
11
36.0270819
21
2.74925
0
LINE
8
top_outsideCutPath
10
36.0270819
20
2.74925
11
36.030012
21
2.7521801
0
LINE
8
top_outsideCutPath
10
36.030012
20
2.7521801
11
36.030012
21
3.2578239
0
LINE
8
top_outsideCutPath
10
36.030012
20
3.2578239
11
36.0270819
21
3.260754
0
LINE
8
top_outsideCutPath
10
36.0270819
20
3.260754
11
35.912012
21
3.260754
0
LINE
8
top_outsideCutPath
10
35.912012
20
3.260754
11
35.912012
21
3.75225
0
LINE
8
top_outsideCutPath
10
35.912012
20
3.75225
11
36.0270819
21
3.75225
0
LINE
8
top_outsideCutPath
10
36.0270819
20
3.75225
11
36.030012
21
3.7551801
0
LINE
8
top_outsideCutPath
10
36.030012
20
3.7551801
11
36.030012
21
4.2608239
0
LINE
8
top_outsideCutPath
10
36.030012
20
4.2608239
11
36.0270819
21
4.263754
0
LINE
8
top_outsideCutPath
10
36.0270819
20
4.263754
11
35.912012
21
4.263754
0
LINE
8
top_outsideCutPath
10
35.912012
20
4.263754
11
35.912012
21
4.75525
0
LINE
8
top_outsideCutPath
10
35.912012
20
4.75525
11
36.0270819
21
4.75525
0
LINE
8
top_outsideCutPath
10
36.0270819
20
4.75525
11
36.030012
21
4.7581801
0
LINE
8
top_outsideCutPath
10
36.030012
20
4.7581801
11
36.030012
21
5.2638239
0
LINE
8
top_outsideCutPath
10
36.030012
20
5.2638239
11
36.0270819
21
5.266754
0
LINE
8
top_outsideCutPath
10
36.0270819
20
5.266754
11
35.912012
21
5.266754
0
LINE
8
top_outsideCutPath
10
35.912012
20
5.266754
11
35.912012
21
5.7640739
0
LINE
8
top_outsideCutPath
10
35.912012
20
5.7640739
11
35.9090819
21
5.767004
0
LINE
8
top_outsideCutPath
10
35.9090819
20
5.767004
11
35.300262
21
5.767004
0
LINE
8
top_outsideCutPath
10
35.300262
20
5.767004
11
35.300262
21
5.8820739
0
LINE
8
top_outsideCutPath
10
35.300262
20
5.8820739
11
35.2973319
21
5.885004
0
LINE
8
top_outsideCutPath
10
35.2973319
20
5.885004
11
34.7916881
21
5.885004
0
LINE
8
top_outsideCutPath
10
34.7916881
20
5.885004
11
34.788758
21
5.8820739
0
LINE
8
top_outsideCutPath
10
34.788758
20
5.8820739
11
34.788758
21
5.767004
0
LINE
8
top_outsideCutPath
10
34.788758
20
5.767004
11
34.297262
21
5.767004
0
LINE
8
top_outsideCutPath
10
34.297262
20
5.767004
11
34.297262
21
5.8820739
0
LINE
8
top_outsideCutPath
10
34.297262
20
5.8820739
11
34.2943319
21
5.885004
0
LINE
8
top_outsideCutPath
10
34.2943319
20
5.885004
11
33.7886881
21
5.885004
0
LINE
8
top_outsideCutPath
10
33.7886881
20
5.885004
11
33.785758
21
5.8820739
0
LINE
8
top_outsideCutPath
10
33.785758
20
5.8820739
11
33.785758
21
5.767004
0
LINE
8
top_outsideCutPath
10
33.785758
20
5.767004
11
33.294262
21
5.767004
0
LINE
8
top_outsideCutPath
10
33.294262
20
5.767004
11
33.294262
21
5.8820739
0
LINE
8
top_outsideCutPath
10
33.294262
20
5.8820739
11
33.2913319
21
5.885004
0
LINE
8
top_outsideCutPath
10
33.2913319
20
5.885004
11
32.7856881
21
5.885004
0
LINE
8
top_outsideCutPath
10
32.7856881
20
5.885004
11
32.782758
21
5.8820739
0
LINE
8
top_outsideCutPath
10
32.782758
20
5.8820739
11
32.782758
21
5.767004
0
LINE
8
top_outsideCutPath
10
32.782758
20
5.767004
11
32.291262
21
5.767004
0
LINE
8
top_outsideCutPath
10
32.291262
20
5.767004
11
32.291262
21
5.8820739
0
LINE
8
top_outsideCutPath
10
32.291262
20
5.8820739
11
32.2883319
21
5.885004
0
LINE
8
top_outsideCutPath
10
32.2883319
20
5.885004
11
31.7826881
21
5.885004
0
LINE
8
top_outsideCutPath
10
31.7826881
20
5.885004
11
31.779758
21
5.8820739
0
LINE
8
top_outsideCutPath
10
31.779758
20
5.8820739
11
31.779758
21
5.767004
0
LINE
8
top_outsideCutPath
10
31.779758
20
5.767004
11
31.288262
21
5.767004
0
LINE
8
top_outsideCutPath
10
31.288262
20
5.767004
11
31.288262
21
5.8820739
0
LINE
8
top_outsideCutPath
10
31.288262
20
5.8820739
11
31.2853319
21
5.885004
0
LINE
8
top_outsideCutPath
10
31.2853319
20
5.885004
11
30.7796881
21
5.885004
0
LINE
8
top_outsideCutPath
10
30.7796881
20
5.885004
11
30.776758
21
5.8820739
0
LINE
8
top_outsideCutPath
10
30.776758
20
5.8820739
11
30.776758
21
5.767004
0
LINE
8
top_outsideCutPath
10
30.776758
20
5.767004
11
30.285262
21
5.767004
0
LINE
8
top_outsideCutPath
10
30.285262
20
5.767004
11
30.285262
21
5.8820739
0
LINE
8
top_outsideCutPath
10
30.285262
20
5.8820739
11
30.2823319
21
5.885004
0
LINE
8
top_outsideCutPath
10
30.2823319
20
5.885004
11
29.7766881
21
5.885004
0
LINE
8
top_outsideCutPath
10
29.7766881
20
5.885004
11
29.773758
21
5.8820739
0
LINE
8
top_outsideCutPath
10
29.773758
20
5.8820739
11
29.773758
21
5.767004
0
LINE
8
top_outsideCutPath
10
29.773758
20
5.767004
11
29.282262
21
5.767004
0
LINE
8
top_outsideCutPath
10
29.282262
20
5.767004
11
29.282262
21
5.8820739
0
LINE
8
top_outsideCutPath
10
29.282262
20
5.8820739
11
29.2793319
21
5.885004
0
LINE
8
top_outsideCutPath
10
29.2793319
20
5.885004
11
28.7736881
21
5.885004
0
LINE
8
top_outsideCutPath
10
28.7736881
20
5.885004
11
28.770758
21
5.8820739
0
LINE
8
top_outsideCutPath
10
28.770758
20
5.8820739
11
28.770758
21
5.767004
0
LINE
8
top_outsideCutPath
10
28.770758
20
5.767004
11
28.279262
21
5.767004
0
LINE
8
top_outsideCutPath
10
28.279262
20
5.767004
11
28.279262
21
5.8820739
0
LINE
8
top_outsideCutPath
10
28.279262
20
5.8820739
11
28.2763319
21
5.885004
0
LINE
8
top_outsideCutPath
10
28.2763319
20
5.885004
11
27.7706881
21
5.885004
0
LINE
8
top_outsideCutPath
10
27.7706881
20
5.885004
11
27.767758
21
5.8820739
0
LINE
8
top_outsideCutPath
10
27.767758
20
5.8820739
11
27.767758
21
5.767004
0
LINE
8
top_outsideCutPath
10
27.767758
20
5.767004
11
27.276262
21
5.767004
0
LINE
8
top_outsideCutPath
10
27.276262
20
5.767004
11
27.276262
21
5.8820739
0
LINE
8
top_outsideCutPath
10
27.276262
20
5.8820739
11
27.2733319
21
5.885004
0
LINE
8
top_outsideCutPath
10
27.2733319
20
5.885004
11
26.7676881
21
5.885004
0
LINE
8
top_outsideCutPath
10
26.7676881
20
5.885004
11
26.764758
21
5.8820739
0
LINE
8
top_outsideCutPath
10
26.764758
20
5.8820739
11
26.764758
21
5.767004
0
LINE
8
top_outsideCutPath
10
26.764758
20
5.767004
11
26.273262
21
5.767004
0
LINE
8
top_outsideCutPath
10
26.273262
20
5.767004
11
26.273262
21
5.8820739
0
LINE
8
top_outsideCutPath
10
26.273262
20
5.8820739
11
26.2703319
21
5.885004
0
LINE
8
top_outsideCutPath
10
26.2703319
20
5.885004
11
25.7646881
21
5.885004
0
LINE
8
top_outsideCutPath
10
25.7646881
20
5.885004
11
25.761758
21
5.8820739
0
LINE
8
top_outsideCutPath
10
25.761758
20
5.8820739
11
25.761758
21
5.767004
0
LINE
8
top_outsideCutPath
10
25.761758
20
5.767004
11
25.270262
21
5.767004
0
LINE
8
top_outsideCutPath
10
25.270262
20
5.767004
11
25.270262
21
5.8820739
0
LINE
8
top_outsideCutPath
10
25.270262
20
5.8820739
11
25.2673319
21
5.885004
0
LINE
8
top_outsideCutPath
10
25.2673319
20
5.885004
11
24.7616881
21
5.885004
0
LINE
8
top_outsideCutPath
10
24.7616881
20
5.885004
11
24.758758
21
5.8820739
0
LINE
8
top_outsideCutPath
10
24.758758
20
5.8820739
11
24.758758
21
5.767004
0
LINE
8
top_outsideCutPath
10
24.758758
20
5.767004
11
24.267262
21
5.767004
0
LINE
8
top_outsideCutPath
10
24.267262
20
5.767004
11
24.267262
21
5.8820739
0
LINE
8
top_outsideCutPath
10
24.267262
20
5.8820739
11
24.2643319
21
5.885004
0
LINE
8
top_outsideCutPath
10
24.2643319
20
5.885004
11
23.7586881
21
5.885004
0
LINE
8
top_outsideCutPath
10
23.7586881
20
5.885004
11
23.755758
21
5.8820739
0
LINE
8
top_outsideCutPath
10
23.755758
20
5.8820739
11
23.755758
21
5.767004
0
LINE
8
top_outsideCutPath
10
23.755758
20
5.767004
11
23.264262
21
5.767004
0
LINE
8
top_outsideCutPath
10
23.264262
20
5.767004
11
23.264262
21
5.8820739
0
LINE
8
top_outsideCutPath
10
23.264262
20
5.8820739
11
23.2613319
21
5.885004
0
LINE
8
top_outsideCutPath
10
23.2613319
20
5.885004
11
22.7556881
21
5.885004
0
LINE
8
top_outsideCutPath
10
22.7556881
20
5.885004
11
22.752758
21
5.8820739
0
LINE
8
top_outsideCutPath
10
22.752758
20
5.8820739
11
22.752758
21
5.767004
0
LINE
8
top_outsideCutPath
10
22.752758
20
5.767004
11
22.261262
21
5.767004
0
LINE
8
top_outsideCutPath
10
22.261262
20
5.767004
11
22.261262
21
5.8820739
0
LINE
8
top_outsideCutPath
10
22.261262
20
5.8820739
11
22.2583319
21
5.885004
0
LINE
8
top_outsideCutPath
10
22.2583319
20
5.885004
11
21.7526881
21
5.885004
0
LINE
8
top_outsideCutPath
10
21.7526881
20
5.885004
11
21.749758
21
5.8820739
0
LINE
8
top_outsideCutPath
10
21.749758
20
5.8820739
11
21.749758
21
5.767004
0
LINE
8
top_outsideCutPath
10
21.749758
20
5.767004
11
21.1409381
21
5.767004
0
LINE
8
top_outsideCutPath
10
21.1409381
20
5.767004
11
21.138008
21
5.7640739
0
LINE
8
top_outsideCutPath
10
21.138008
20
5.7640739
11
21.138008
21
5.266754
0
LINE
8
top_outsideCutPath
10
21.138008
20
5.266754
11
21.0229381
21
5.266754
0
LINE
8
top_outsideCutPath
10
21.0229381
20
5.266754
11
21.020008
21
5.2638239
0
LINE
8
top_outsideCutPath
10
21.020008
20
5.2638239
11
21.020008
21
4.7581801
0
LINE
8
top_outsideCutPath
10
21.020008
20
4.7581801
11
21.0229381
21
4.75525
0
LINE
8
top_outsideCutPath
10
21.0229381
20
4.75525
11
21.138008
21
4.75525
0
LINE
8
top_outsideCutPath
10
21.138008
20
4.75525
11
21.138008
21
4.263754
0
LINE
8
top_outsideCutPath
10
21.138008
20
4.263754
11
21.0229381
21
4.263754
0
LINE
8
top_outsideCutPath
10
21.0229381
20
4.263754
11
21.020008
21
4.2608239
0
LINE
8
top_outsideCutPath
10
21.020008
20
4.2608239
11
21.020008
21
3.7551801
0
LINE
8
top_outsideCutPath
10
21.020008
20
3.7551801
11
21.0229381
21
3.75225
0
LINE
8
top_outsideCutPath
10
21.0229381
20
3.75225
11
21.138008
21
3.75225
0
LINE
8
top_outsideCutPath
10
21.138008
20
3.75225
11
21.138008
21
3.260754
0
LINE
8
top_outsideCutPath
10
21.138008
20
3.260754
11
21.0229381
21
3.260754
0
LINE
8
top_outsideCutPath
10
21.0229381
20
3.260754
11
21.020008
21
3.2578239
0
LINE
8
top_outsideCutPath
10
21.020008
20
3.2578239
11
21.020008
21
2.7521801
0
LINE
8
top_outsideCutPath
10
21.020008
20
2.7521801
11
21.0229381
21
2.74925
0
LINE
8
top_outsideCutPath
10
21.0229381
20
2.74925
11
21.138008
21
2.74925
0
LINE
8
top_outsideCutPath
10
21.138008
20
2.74925
11
21.138008
21
2.257754
0
LINE
8
top_outsideCutPath
10
21.138008
20
2.257754
11
21.0229381
21
2.257754
0
LINE
8
top_outsideCutPath
10
21.0229381
20
2.257754
11
21.020008
21
2.2548239
0
LINE
8
top_outsideCutPath
10
21.020008
20
2.2548239
11
21.020008
21
1.7491801
0
LINE
8
top_outsideCutPath
10
21.020008
20
1.7491801
11
21.0229381
21
1.74625
0
LINE
8
top_outsideCutPath
10
21.0229381
20
1.74625
11
21.138008
21
1.74625
0
LINE
8
top_outsideCutPath
10
21.138008
20
1.74625
11
21.138008
21
1.254754
0
LINE
8
top_outsideCutPath
10
21.138008
20
1.254754
11
21.0229381
21
1.254754
0
LINE
8
top_outsideCutPath
10
21.0229381
20
1.254754
11
21.020008
21
1.2518239
0
LINE
8
top_outsideCutPath
10
21.020008
20
1.2518239
11
21.020008
21
0.7461801
0
LINE
8
top_outsideCutPath
10
21.020008
20
0.7461801
11
21.0229381
21
0.74325
0
LINE
8
top_outsideCutPath
10
21.0229381
20
0.74325
11
21.138008
21
0.74325
0
LINE
8
top_outsideCutPath
10
21.138008
20
0.74325
11
21.138008
21
0.2459301
0
LINE
8
top_outsideCutPath
10
21.138008
20
0.2459301
11
21.1409381
21
0.243
0
LINE
8
top_outsideCutPath
10
21.1409381
20
0.243
11
21.749758
21
0.243
0
LINE
8
top_outsideCutPath
10
21.749758
20
0.243
11
21.749758
21
0.1279301
0
LINE
8
top_outsideCutPath
10
21.749758
20
0.1279301
11
21.7526881
21
0.125
0
LINE
8
top_outsideCutPath
10
21.7526881
20
0.125
11
22.2583319
21
0.125
0
LINE
8
top_outsideCutPath
10
22.2583319
20
0.125
11
22.261262
21
0.1279301
0
LINE
8
back_outsideCutPath
10
0.739754
20
5.7629341
11
0.739754
21
5.878004
0
LINE
8
back_outsideCutPath
10
0.739754
20
5.878004
11
1.23125
21
5.878004
0
LINE
8
back_outsideCutPath
10
1.23125
20
5.878004
11
1.23125
21
5.7629341
0
LINE
8
back_outsideCutPath
10
1.23125
20
5.7629341
11
1.2341801
21
5.760004
0
LINE
8
back_outsideCutPath
10
1.2341801
20
5.760004
11
1.7398239
21
5.760004
0
LINE
8
back_outsideCutPath
10
1.7398239
20
5.760004
11
1.742754
21
5.7629341
0
LINE
8
back_outsideCutPath
10
1.742754
20
5.7629341
11
1.742754
21
5.878004
0
LINE
8
back_outsideCutPath
10
1.742754
20
5.878004
11
2.23425
21
5.878004
0
LINE
8
back_outsideCutPath
10
2.23425
20
5.878004
11
2.23425
21
5.7629341
0
LINE
8
back_outsideCutPath
10
2.23425
20
5.7629341
11
2.2371801
21
5.760004
0
LINE
8
back_outsideCutPath
10
2.2371801
20
5.760004
11
2.7428239
21
5.760004
0
LINE
8
back_outsideCutPath
10
2.7428239
20
5.760004
11
2.745754
21
5.7629341
0
LINE
8
back_outsideCutPath
10
2.745754
20
5.7629341
11
2.745754
21
5.878004
0
LINE
8
back_outsideCutPath
10
2.745754
20
5.878004
11
3.23725
21
5.878004
0
LINE
8
back_outsideCutPath
10
3.23725
20
5.878004
11
3.23725
21
5.7629341
0
LINE
8
back_outsideCutPath
10
3.23725
20
5.7629341
11
3.2401801
21
5.760004
0
LINE
8
back_outsideCutPath
10
3.2401801
20
5.760004
11
3.7458239
21
5.760004
0
LINE
8
back_outsideCutPath
10
3.7458239
20
5.760004
11
3.748754
21
5.7629341
0
LINE
8
back_outsideCutPath
10
3.748754
20
5.7629341
11
3.748754
21
5.878004
0
LINE
8
back_outsideCutPath
10
3.748754
20
5.878004
11
4.24025
21
5.878004
0
LINE
8
back_outsideCutPath
10
4.24025
20
5.878004
11
4.24025
21
5.7629341
0
LINE
8
back_outsideCutPath
10
4.24025
20
5.7629341
11
4.2431801
21
5.760004
0
LINE
8
back_outsideCutPath
10
4.2431801
20
5.760004
11
4.7488239
21
5.760004
0
LINE
8
back_outsideCutPath
10
4.7488239
20
5.760004
11
4.751754
21
5.7629341
0
LINE
8
back_outsideCutPath
10
4.751754
20
5.7629341
11
4.751754
21
5.878004
0
LINE
8
back_outsideCutPath
10
4.751754
20
5.878004
11
5.24325
21
5.878004
0
LINE
8
back_outsideCutPath
10
5.24325
20
5.878004
11
5.24325
21
5.7629341
0
LINE
8
back_outsideCutPath
10
5.24325
20
5.7629341
11
5.2461801
21
5.760004
0
LINE
8
back_outsideCutPath
10
5.2461801
20
5.760004
11
5.7518239
21
5.760004
0
LINE
8
back_outsideCutPath
10
5.7518239
20
5.760004
11
5.754754
21
5.7629341
0
LINE
8
back_outsideCutPath
10
5.754754
20
5.7629341
11
5.754754
21
5.878004
0
LINE
8
back_outsideCutPath
10
5.754754
20
5.878004
11
6.24625
21
5.878004
0
LINE
8
back_outsideCutPath
10
6.24625
20
5.878004
11
6.24625
21
5.7629341
0
LINE
8
back_outsideCutPath
10
6.24625
20
5.7629341
11
6.2491801
21
5.760004
0
LINE
8
back_outsideCutPath
10
6.2491801
20
5.760004
11
6.7548239
21
5.760004
0
LINE
8
back_outsideCutPath
10
6.7548239
20
5.760004
11
6.757754
21
5.7629341
0
LINE
8
back_outsideCutPath
10
6.757754
20
5.7629341
11
6.757754
21
5.878004
0
LINE
8
back_outsideCutPath
10
6.757754
20
5.878004
11
7.24925
21
5.878004
0
LINE
8
back_outsideCutPath
10
7.24925
20
5.878004
11
7.24925
21
5.7629341
0
LINE
8
back_outsideCutPath
10
7.24925
20
5.7629341
11
7.2521801
21
5.760004
0
LINE
8
back_outsideCutPath
10
7.2521801
20
5.760004
11
7.7578239
21
5.760004
0
LINE
8
back_outsideCutPath
10
7.7578239
20
5.760004
11
7.760754
21
5.7629341
0
LINE
8
back_outsideCutPath
10
7.760754
20
5.7629341
11
7.760754
21
5.878004
0
LINE
8
back_outsideCutPath
10
7.760754
20
5.878004
11
8.25225
21
5.878004
0
LINE
8
back_outsideCutPath
10
8.25225
20
5.878004
11
8.25225
21
5.7629341
0
LINE
8
back_outsideCutPath
10
8.25225
20
5.7629341
11
8.2551801
21
5.760004
0
LINE
8
back_outsideCutPath
10
8.2551801
20
5.760004
11
8.7608239
21
5.760004
0
LINE
8
back_outsideCutPath
10
8.7608239
20
5.760004
11
8.763754
21
5.7629341
0
LINE
8
back_outsideCutPath
10
8.763754
20
5.7629341
11
8.763754
21
5.878004
0
LINE
8
back_outsideCutPath
10
8.763754
20
5.878004
11
9.25525
21
5.878004
0
LINE
8
back_outsideCutPath
10
9.25525
20
5.878004
11
9.25525
21
5.7629341
0
LINE
8
back_outsideCutPath
10
9.25525
20
5.7629341
11
9.2581801
21
5.760004
0
LINE
8
back_outsideCutPath
10
9.2581801
20
5.760004
11
9.7638239
21
5.760004
0
LINE
8
back_outsideCutPath
10
9.7638239
20
5.760004
11
9.766754
21
5.7629341
0
LINE
8
back_outsideCutPath
10
9.766754
20
5.7629341
11
9.766754
21
5.878004
0
LINE
8
back_outsideCutPath
10
9.766754
20
5.878004
11
10.25825
21
5.878004
0
LINE
8
back_outsideCutPath
10
10.25825
20
5.878004
11
10.25825
21
5.7629341
0
LINE
8
back_outsideCutPath
10
10.25825
20
5.7629341
11
10.2611801
21
5.760004
0
LINE
8
back_outsideCutPath
10
10.2611801
20
5.760004
11
10.7668239
21
5.760004
0
LINE
8
back_outsideCutPath
10
10.7668239
20
5.760004
11
10.769754
21
5.7629341
0
LINE
8
back_outsideCutPath
10
10.769754
20
5.7629341
11
10.769754
21
5.878004
0
LINE
8
back_outsideCutPath
10
10.769754
20
5.878004
11
11.26125
21
5.878004
0
LINE
8
back_outsideCutPath
10
11.26125
20
5.878004
11
11.26125
21
5.7629341
0
LINE
8
back_outsideCutPath
10
11.26125
20
5.7629341
11
11.2641801
21
5.760004
0
LINE
8
back_outsideCutPath
10
11.2641801
20
5.760004
11
11.7698239
21
5.760004
0
LINE
8
back_outsideCutPath
10
11.7698239
20
5.760004
11
11.772754
21
5.7629341
0
LINE
8
back_outsideCutPath
10
11.772754
20
5.7629341
11
11.772754
21
5.878004
0
LINE
8
back_outsideCutPath
10
11.772754
20
5.878004
11
12.26425
21
5.878004
0
LINE
8
back_outsideCutPath
10
12.26425
20
5.878004
11
12.26425
21
5.7629341
0
LINE
8
back_outsideCutPath
10
12.26425
20
5.7629341
11
12.2671801
21
5.760004
0
LINE
8
back_outsideCutPath
10
12.2671801
20
5.760004
11
12.7728239
21
5.760004
0
LINE
8
back_outsideCutPath
10
12.7728239
20
5.760004
11
12.775754
21
5.7629341
0
LINE
8
back_outsideCutPath
10
12.775754
20
5.7629341
11
12.775754
21
5.878004
0
LINE
8
back_outsideCutPath
10
12.775754
20
5.878004
11
13.26725
21
5.878004
0
LINE
8
back_outsideCutPath
10
13.26725
20
5.878004
11
13.26725
21
5.7629341
0
LINE
8
back_outsideCutPath
10
13.26725
20
5.7629341
11
13.2701801
21
5.760004
0
LINE
8
back_outsideCutPath
10
13.2701801
20
5.760004
11
13.7758239
21
5.760004
0
LINE
8
back_outsideCutPath
10
13.7758239
20
5.760004
11
13.778754
21
5.7629341
0
LINE
8
back_outsideCutPath
10
13.778754
20
5.7629341
11
13.778754
21
5.878004
0
LINE
8
back_outsideCutPath
10
13.778754
20
5.878004
11
14.27025
21
5.878004
0
LINE
8
back_outsideCutPath
10
14.27025
20
5.878004
11
14.27025
21
5.7629341
0
LINE
8
back_outsideCutPath
10
14.27025
20
5.7629341
11
14.2731801
21
5.760004
0
LINE
8
back_outsideCutPath
10
14.2731801
20
5.760004
11
15.0070739
21
5.760004
0
LINE
8
back_outsideCutPath
10
15.0070739
20
5.760004
11
15.010004
21
5.7629341
0
LINE
8
back_outsideCutPath
10
15.010004
20
5.7629341
11
15.010004
21
6.2603279
0
LINE
8
back_outsideCutPath
10
15.010004
20
6.2603279
11
15.0070739
21
6.263258
0
LINE
8
back_outsideCutPath
10
15.0070739
20
6.263258
11
14.892004
21
6.263258
0
LINE
8
back_outsideCutPath
10
14.892004
20
6.263258
11
14.892004
21
6.754754
0
LINE
8
back_outsideCutPath
10
14.892004
20
6.754754
11
15.0070739
21
6.754754
0
LINE
8
back_outsideCutPath
10
15.0070739
20
6.754754
11
15.010004
21
6.7576841
0
LINE
8
back_outsideCutPath
10
15.010004
20
6.7576841
11
15.010004
21
7.2633279
0
LINE
8
back_outsideCutPath
10
15.010004
20
7.2633279
11
15.0070739
21
7.266258
0
LINE
8
back_outsideCutPath
10
15.0070739
20
7.266258
11
14.892004
21
7.266258
0
LINE
8
back_outsideCutPath
10
14.892004
20
7.266258
11
14.892004
21
7.757754
0
LINE
8
back_outsideCutPath
10
14.892004
20
7.757754
11
15.0070739
21
7.757754
0
LINE
8
back_outsideCutPath
10
15.0070739
20
7.757754
11
15.010004
21
7.7606841
0
LINE
8
back_outsideCutPath
10
15.010004
20
7.7606841
11
15.010004
21
8.2663279
0
LINE
8
back_outsideCutPath
10
15.010004
20
8.2663279
11
15.0070739
21
8.269258
0
LINE
8
back_outsideCutPath
10
15.0070739
20
8.269258
11
14.892004
21
8.269258
0
LINE
8
back_outsideCutPath
10
14.892004
20
8.269258
11
14.892004
21
8.760754
0
LINE
8
back_outsideCutPath
10
14.892004
20
8.760754
11
15.0070739
21
8.760754
0
LINE
8
back_outsideCutPath
10
15.0070739
20
8.760754
11
15.010004
21
8.7636841
0
LINE
8
back_outsideCutPath
10
15.010004
20
8.7636841
11
15.010004
21
9.2693279
0
LINE
8
back_outsideCutPath
10
15.010004
20
9.2693279
11
15.0070739
21
9.272258
0
LINE
8
back_outsideCutPath
10
15.0070739
20
9.272258
11
14.892004
21
9.272258
0
LINE
8
back_outsideCutPath
10
14.892004
20
9.272258
11
14.892004
21
9.763754
0
LINE
8
back_outsideCutPath
10
14.892004
20
9.763754
11
15.0070739
21
9.763754
0
LINE
8
back_outsideCutPath
10
15.0070739
20
9.763754
11
15.010004
21
9.7666841
0
LINE
8
back_outsideCutPath
10
15.010004
20
9.7666841
11
15.010004
21
10.2723279
0
LINE
8
back_outsideCutPath
10
15.010004
20
10.2723279
11
15.0070739
21
10.275258
0
LINE
8
back_outsideCutPath
10
15.0070739
20
10.275258
11
14.892004
21
10.275258
0
LINE
8
back_outsideCutPath
10
14.892004
20
10.275258
11
14.892004
21
10.766754
0
LINE
8
back_outsideCutPath
10
14.892004
20
10.766754
11
15.0070739
21
10.766754
0
LINE
8
back_outsideCutPath
10
15.0070739
20
10.766754
11
15.010004
21
10.7696841
0
LINE
8
back_outsideCutPath
10
15.010004
20
10.7696841
11
15.010004
21
11.2670779
0
LINE
8
back_outsideCutPath
10
15.010004
20
11.2670779
11
15.0070739
21
11.270008
0
LINE
8
back_outsideCutPath
10
15.0070739
20
11.270008
11
14.2731801
21
11.270008
0
LINE
8
back_outsideCutPath
10
14.2731801
20
11.270008
11
14.27025
21
11.2670779
0
LINE
8
back_outsideCutPath
10
14.27025
20
11.2670779
11
14.27025
21
11.152008
0
LINE
8
back_outsideCutPath
10
14.27025
20
11.152008
11
13.778754
21
11.152008
0
LINE
8
back_outsideCutPath
10
13.778754
20
11.152008
11
13.778754
21
11.2670779
0
LINE
8
back_outsideCutPath
10
13.778754
20
11.2670779
11
13.7758239
21
11.270008
0
LINE
8
back_outsideCutPath
10
13.7758239
20
11.270008
11
13.2701801
21
11.270008
0
LINE
8
back_outsideCutPath
10
13.2701801
20
11.270008
11
13.26725
21
11.2670779
0
LINE
8
back_outsideCutPath
10
13.26725
20
11.2670779
11
13.26725
21
11.152008
0
LINE
8
back_outsideCutPath
10
13.26725
20
11.152008
11
12.775754
21
11.152008
0
LINE
8
back_outsideCutPath
10
12.775754
20
11.152008
11
12.775754
21
11.2670779
0
LINE
8
back_outsideCutPath
10
12.775754
20
11.2670779
11
12.7728239
21
11.270008
0
LINE
8
back_outsideCutPath
10
12.7728239
20
11.270008
11
12.2671801
21
11.270008
0
LINE
8
back_outsideCutPath
10
12.2671801
20
11.270008
11
12.26425
21
11.2670779
0
LINE
8
back_outsideCutPath
10
12.26425
20
11.2670779
11
12.26425
21
11.152008
0
LINE
8
back_outsideCutPath
10
12.26425
20
11.152008
11
11.772754
21
11.152008
0
LINE
8
back_outsideCutPath
10
11.772754
20
11.152008
11
11.772754
21
11.2670779
0
LINE
8
back_outsideCutPath
10
11.772754
20
11.2670779
11
11.7698239
21
11.270008
0
LINE
8
back_outsideCutPath
10
11.7698239
20
11.270008
11
11.2641801
21
11.270008
0
LINE
8
back_outsideCutPath
10
11.2641801
20
11.270008
11
11.26125
21
11.2670779
0
LINE
8
back_outsideCutPath
10
11.26125
20
11.2670779
11
11.26125
21
11.152008
0
LINE
8
back_outsideCutPath
10
11.26125
20
11.152008
11
10.769754
21
11.152008
0
LINE
8
back_outsideCutPath
10
10.769754
20
11.152008
11
10.769754
21
11.2670779
0
LINE
8
back_outsideCutPath
10
10.769754
20
11.2670779
11
10.7668239
21
11.270008
0
LINE
8
back_outsideCutPath
10
10.7668239
20
11.270008
11
10.2611801
21
11.270008
0
LINE
8
back_outsideCutPath
10
10.2611801
20
11.270008
11
10.25825
21
11.2670779
0
LINE
8
back_outsideCutPath
10
10.25825
20
11.2670779
11
10.25825
21
11.152008
0
LINE
8
back_outsideCutPath
10
10.25825
20
11.152008
11
9.766754
21
11.152008
0
LINE
8
back_outsideCutPath
10
9.766754
20
11.152008
11
9.766754
21
11.2670779
0
LINE
8
back_outsideCutPath
10
9.766754
20
11.2670779
11
9.7638239
21
11.270008
0
LINE
8
back_outsideCutPath
10
9.7638239
20
11.270008
11
9.2581801
21
11.270008
0
LINE
8
back_outsideCutPath
10
9.2581801
20
11.270008
11
9.25525
21
11.2670779
0
LINE
8
back_outsideCutPath
10
9.25525
20
11.2670779
11
9.25525
21
11.152008
0
LINE
8
back_outsideCutPath
10
9.25525
20
11.152008
11
8.763754
21
11.152008
0
LINE
8
back_outsideCutPath
10
8.763754
20
11.152008
11
8.763754
21
11.2670779
0
LINE
8
back_outsideCutPath
10
8.763754
20
11.2670779
11
8.7608239
21
11.270008
0
LINE
8
back_outsideCutPath
10
8.7608239
20
11.270008
11
8.2551801
21
11.270008
0
LINE
8
back_outsideCutPath
10
8.2551801
20
11.270008
11
8.25225
21
11.2670779
0
LINE
8
back_outsideCutPath
10
8.25225
20
11.2670779
11
8.25225
21
11.152008
0
LINE
8
back_outsideCutPath
10
8.25225
20
11.152008
11
7.760754
21
11.152008
0
LINE
8
back_outsideCutPath
10
7.760754
20
11.152008
11
7.760754
21
11.2670779
0
LINE
8
back_outsideCutPath
10
7.760754
20
11.2670779
11
7.7578239
21
11.270008
0
LINE
8
back_outsideCutPath
10
7.7578239
20
11.270008
11
7.2521801
21
11.270008
0
LINE
8
back_outsideCutPath
10
7.2521801
20
11.270008
11
7.24925
21
11.2670779
0
LINE
8
back_outsideCutPath
10
7.24925
20
11.2670779
11
7.24925
21
11.152008
0
LINE
8
back_outsideCutPath
10
7.24925
20
11.152008
11
6.757754
21
11.152008
0
LINE
8
back_outsideCutPath
10
6.757754
20
11.152008
11
6.757754
21
11.2670779
0
LINE
8
back_outsideCutPath
10
6.757754
20
11.2670779
11
6.7548239
21
11.270008
0
LINE
8
back_outsideCutPath
10
6.7548239
20
11.270008
11
6.2491801
21
11.270008
0
LINE
8
back_outsideCutPath
10
6.2491801
20
11.270008
11
6.24625
21
11.2670779
0
LINE
8
back_outsideCutPath
10
6.24625
20
11.2670779
11
6.24625
21
11.152008
0
LINE
8
back_outsideCutPath
10
6.24625
20
11.152008
11
5.754754
21
11.152008
0
LINE
8
back_outsideCutPath
10
5.754754
20
11.152008
11
5.754754
21
11.2670779
0
LINE
8
back_outsideCutPath
10
5.754754
20
11.2670779
11
5.7518239
21
11.270008
0
LINE
8
back_outsideCutPath
10
5.7518239
20
11.270008
11
5.2461801
21
11.270008
0
LINE
8
back_outsideCutPath
10
5.2461801
20
11.270008
11
5.24325
21
11.2670779
0
LINE
8
back_outsideCutPath
10
5.24325
20
11.2670779
11
5.24325
21
11.152008
0
LINE
8
back_outsideCutPath
10
5.24325
20
11.152008
11
4.751754
21
11.152008
0
LINE
8
back_outsideCutPath
10
4.751754
20
11.152008
11
4.751754
21
11.2670779
0
LINE
8
back_outsideCutPath
10
4.751754
20
11.2670779
11
4.7488239
21
11.270008
0
LINE
8
back_outsideCutPath
10
4.7488239
20
11.270008
11
4.2431801
21
11.270008
0
LINE
8
back_outsideCutPath
10
4.2431801
20
11.270008
11
4.24025
21
11.2670779
0
LINE
8
back_outsideCutPath
10
4.24025
20
11.2670779
11
4.24025
21
11.152008
0
LINE
8
back_outsideCutPath
10
4.24025
20
11.152008
11
3.748754
21
11.152008
0
LINE
8
back_outsideCutPath
10
3.748754
20
11.152008
11
3.748754
21
11.2670779
0
LINE
8
back_outsideCutPath
10
3.748754
20
11.2670779
11
3.7458239
21
11.270008
0
LINE
8
back_outsideCutPath
10
3.7458239
20
11.270008
11
3.2401801
21
11.270008
0
LINE
8
back_outsideCutPath
10
3.2401801
20
11.270008
11
3.23725
21
11.2670779
0
LINE
8
back_outsideCutPath
10
3.23725
20
11.2670779
11
3.23725
21
11.152008
0
LINE
8
back_outsideCutPath
10
3.23725
20
11.152008
11
2.745754
21
11.152008
0
LINE
8
back_outsideCutPath
10
2.745754
20
11.152008
11
2.745754
21
11.2670779
0
LINE
8
back_outsideCutPath
10
2.745754
20
11.2670779
11
2.7428239
21
11.270008
0
LINE
8
back_outsideCutPath
10
2.7428239
20
11.270008
11
2.2371801
21
11.270008
0
LINE
8
back_outsideCutPath
10
2.2371801
20
11.270008
11
2.23425
21
11.2670779
0
LINE
8
back_outsideCutPath
10
2.23425
20
11.2670779
11
2.23425
21
11.152008
0
LINE
8
back_outsideCutPath
10
2.23425
20
11.152008
11
1.742754
21
11.152008
0
LINE
8
back_outsideCutPath
10
1.742754
20
11.152008
11
1.742754
21
11.2670779
0
LINE
8
back_outsideCutPath
10
1.742754
20
11.2670779
11
1.7398239
21
11.270008
0
LINE
8
back_outsideCutPath
10
1.7398239
20
11.270008
11
1.2341801
21
11.270008
0
LINE
8
back_outsideCutPath
10
1.2341801
20
11.270008
11
1.23125
21
11.2670779
0
LINE
8
back_outsideCutPath
10
1.23125
20
11.2670779
11
1.23125
21
11.152008
0
LINE
8
back_outsideCutPath
10
1.23125
20
11.152008
11
0.739754
21
11.152008
0
LINE
8
back_outsideCutPath
10
0.739754
20
11.152008
11
0.739754
21
11.2670779
0
LINE
8
back_outsideCutPath
10
0.739754
20
11.2670779
11
0.7368239
21
11.270008
0
LINE
8
back_outsideCutPath
10
0.7368239
20
11.270008
11
0.0029301
21
11.270008
0
LINE
8
back_outsideCutPath
10
0.0029301
20
11.270008
11
0
21
11.2670779
0
LINE
8
back_outsideCutPath
10
0
20
11.2670779
11
0
21
10.7696841
0
LINE
8
back_outsideCutPath
10
0
20
10.7696841
11
0.0029301
21
10.766754
0
LINE
8
back_outsideCutPath
10
0.0029301
20
10.766754
11
0.118
21
10.766754
0
LINE
8
back_outsideCutPath
10
0.118
20
10.766754
11
0.118
21
10.275258
0
LINE
8
back_outsideCutPath
10
0.118
20
10.275258
11
0.0029301
21
10.275258
0
LINE
8
back_outsideCutPath
10
0.0029301
20
10.275258
11
0
21
10.2723279
0
LINE
8
back_outsideCutPath
10
0
20
10.2723279
11
0
21
9.7666841
0
LINE
8
back_outsideCutPath
10
0
20
9.7666841
11
0.0029301
21
9.763754
0
LINE
8
back_outsideCutPath
10
0.0029301
20
9.763754
11
0.118
21
9.763754
0
LINE
8
back_outsideCutPath
10
0.118
20
9.763754
11
0.118
21
9.272258
0
LINE
8
back_outsideCutPath
10
0.118
20
9.272258
11
0.0029301
21
9.272258
0
LINE
8
back_outsideCutPath
10
0.0029301
20
9.272258
11
0
21
9.2693279
0
LINE
8
back_outsideCutPath
10
0
20
9.2693279
11
0
21
8.7636841
0
LINE
8
back_outsideCutPath
10
0
20
8.7636841
11
0.0029301
21
8.760754
0
LINE
8
back_outsideCutPath
10
0.0029301
20
8.760754
11
0.118
21
8.760754
0
LINE
8
back_outsideCutPath
10
0.118
20
8.760754
11
0.118
21
8.269258
0
LINE
8
back_outsideCutPath
10
0.118
20
8.269258
11
0.0029301
21
8.269258
0
LINE
8
back_outsideCutPath
10
0.0029301
20
8.269258
11
0
21
8.2663279
0
LINE
8
back_outsideCutPath
10
0
20
8.2663279
11
0
21
7.7606841
0
LINE
8
back_outsideCutPath
10
0
20
7.7606841
11
0.0029301
21
7.757754
0
LINE
8
back_outsideCutPath
10
0.0029301
20
7.757754
11
0.118
21
7.757754
0
LINE
8
back_outsideCutPath
10
0.118
20
7.757754
11
0.118
21
7.266258
0
LINE
8
back_outsideCutPath
10
0.118
20
7.266258
11
0.0029301
21
7.266258
0
LINE
8
back_outsideCutPath
10
0.0029301
20
7.266258
11
0
21
7.2633279
0
LINE
8
back_outsideCutPath
10
0
20
7.2633279
11
0
21
6.7576841
0
LINE
8
back_outsideCutPath
10
0
20
6.7576841
11
0.0029301
21
6.754754
0
LINE
8
back_outsideCutPath
10
0.0029301
20
6.754754
11
0.118
21
6.754754
0
LINE
8
back_outsideCutPath
10
0.118
20
6.754754
11
0.118
21
6.263258
0
LINE
8
back_outsideCutPath
10
0.118
20
6.263258
11
0.0029301
21
6.263258
0
LINE
8
back_outsideCutPath
10
0.0029301
20
6.263258
11
0
21
6.2603279
0
LINE
8
back_outsideCutPath
10
0
20
6.2603279
11
0
21
5.7629341
0
LINE
8
back_outsideCutPath
10
0
20
5.7629341
11
0.0029301
21
5.760004
0
LINE
8
back_outsideCutPath
10
0.0029301
20
5.760004
11
0.7368239
21
5.760004
0
LINE
8
back_outsideCutPath
10
0.7368239
20
5.760004
11
0.739754
21
5.7629341
0
LINE
8
right_outsideCutPath
10
15.763258
20
5.7629341
11
15.763258
21
5.878004
0
LINE
8
right_outsideCutPath
10
15.763258
20
5.878004
11
16.254754
21
5.878004
0
LINE
8
right_outsideCutPath
10
16.254754
20
5.878004
11
16.254754
21
5.7629341
0
LINE
8
right_outsideCutPath
10
16.254754
20
5.7629341
11
16.2576841
21
5.760004
0
LINE
8
right_outsideCutPath
10
16.2576841
20
5.760004
11
16.7633279
21
5.760004
0
LINE
8
right_outsideCutPath
10
16.7633279
20
5.760004
11
16.766258
21
5.7629341
0
LINE
8
right_outsideCutPath
10
16.766258
20
5.7629341
11
16.766258
21
5.878004
0
LINE
8
right_outsideCutPath
10
16.766258
20
5.878004
11
17.257754
21
5.878004
0
LINE
8
right_outsideCutPath
10
17.257754
20
5.878004
11
17.257754
21
5.7629341
0
LINE
8
right_outsideCutPath
10
17.257754
20
5.7629341
11
17.2606841
21
5.760004
0
LINE
8
right_outsideCutPath
10
17.2606841
20
5.760004
11
17.7663279
21
5.760004
0
LINE
8
right_outsideCutPath
10
17.7663279
20
5.760004
11
17.769258
21
5.7629341
0
LINE
8
right_outsideCutPath
10
17.769258
20
5.7629341
11
17.769258
21
5.878004
0
LINE
8
right_outsideCutPath
10
17.769258
20
5.878004
11
18.260754
21
5.878004
0
LINE
8
right_outsideCutPath
10
18.260754
20
5.878004
11
18.260754
21
5.7629341
0
LINE
8
right_outsideCutPath
10
18.260754
20
5.7629341
11
18.2636841
21
5.760004
0
LINE
8
right_outsideCutPath
10
18.2636841
20
5.760004
11
18.7693279
21
5.760004
0
LINE
8
right_outsideCutPath
10
18.7693279
20
5.760004
11
18.772258
21
5.7629341
0
LINE
8
right_outsideCutPath
10
18.772258
20
5.7629341
11
18.772258
21
5.878004
0
LINE
8
right_outsideCutPath
10
18.772258
20
5.878004
11
19.263754
21
5.878004
0
LINE
8
right_outsideCutPath
10
19.263754
20
5.878004
11
19.263754
21
5.7629341
0
LINE
8
right_outsideCutPath
10
19.263754
20
5.7629341
11
19.2666841
21
5.760004
0
LINE
8
right_outsideCutPath
10
19.2666841
20
5.760004
11
19.7723279
21
5.760004
0
LINE
8
right_outsideCutPath
10
19.7723279
20
5.760004
11
19.775258
21
5.7629341
0
LINE
8
right_outsideCutPath
10
19.775258
20
5.7629341
11
19.775258
21
5.878004
0
LINE
8
right_outsideCutPath
10
19.775258
20
5.878004
11
20.266754
21
5.878004
0
LINE
8
right_outsideCutPath
10
20.266754
20
5.878004
11
20.266754
21
5.7629341
0
LINE
8
right_outsideCutPath
10
20.266754
20
5.7629341
11
20.2696841
21
5.760004
0
LINE
8
right_outsideCutPath
10
20.2696841
20
5.760004
11
20.7740779
21
5.760004
0
LINE
8
right_outsideCutPath
10
20.7740779
20
5.760004
11
20.777008
21
5.7629341
0
LINE
8
right_outsideCutPath
10
20.777008
20
5.7629341
11
20.777008
21
6.253254
0
LINE
8
right_outsideCutPath
10
20.777008
20
6.253254
11
20.8920779
21
6.253254
0
LINE
8
right_outsideCutPath
10
20.8920779
20
6.253254
11
20.895008
21
6.2561841
0
LINE
8
right_outsideCutPath
10
20.895008
20
6.2561841
11
20.895008
21
6.7618279
0
LINE
8
right_outsideCutPath
10
20.895008
20
6.7618279
11
20.8920779
21
6.764758
0
LINE
8
right_outsideCutPath
10
20.8920779
20
6.764758
11
20.777008
21
6.764758
0
LINE
8
right_outsideCutPath
10
20.777008
20
6.764758
11
20.777008
21
7.256254
0
LINE
8
right_outsideCutPath
10
20.777008
20
7.256254
11
20.8920779
21
7.256254
0
LINE
8
right_outsideCutPath
10
20.8920779
20
7.256254
11
20.895008
21
7.2591841
0
LINE
8
right_outsideCutPath
10
20.895008
20
7.2591841
11
20.895008
21
7.7648279
0
LINE
8
right_outsideCutPath
10
20.895008
20
7.7648279
11
20.8920779
21
7.767758
0
LINE
8
right_outsideCutPath
10
20.8920779
20
7.767758
11
20.777008
21
7.767758
0
LINE
8
right_outsideCutPath
10
20.777008
20
7.767758
11
20.777008
21
8.259254
0
LINE
8
right_outsideCutPath
10
20.777008
20
8.259254
11
20.8920779
21
8.259254
0
LINE
8
right_outsideCutPath
10
20.8920779
20
8.259254
11
20.895008
21
8.2621841
0
LINE
8
right_outsideCutPath
10
20.895008
20
8.2621841
11
20.895008
21
8.7678279
0
LINE
8
right_outsideCutPath
10
20.895008
20
8.7678279
11
20.8920779
21
8.770758
0
LINE
8
right_outsideCutPath
10
20.8920779
20
8.770758
11
20.777008
21
8.770758
0
LINE
8
right_outsideCutPath
10
20.777008
20
8.770758
11
20.777008
21
9.262254
0
LINE
8
right_outsideCutPath
10
20.777008
20
9.262254
11
20.8920779
21
9.262254
0
LINE
8
right_outsideCutPath
10
20.8920779
20
9.262254
11
20.895008
21
9.2651841
0
LINE
8
right_outsideCutPath
10
20.895008
20
9.2651841
11
20.895008
21
9.7708279
0
LINE
8
right_outsideCutPath
10
20.895008
20
9.7708279
11
20.8920779
21
9.773758
0
LINE
8
right_outsideCutPath
10
20.8920779
20
9.773758
11
20.777008
21
9.773758
0
LINE
8
right_outsideCutPath
10
20.777008
20
9.773758
11
20.777008
21
10.265254
0
LINE
8
right_outsideCutPath
10
20.777008
20
10.265254
11
20.8920779
21
10.265254
0
LINE
8
right_outsideCutPath
10
20.8920779
20
10.265254
11
20.895008
21
10.2681841
0
LINE
8
right_outsideCutPath
10
20.895008
20
10.2681841
11
20.895008
21
10.7738279
0
LINE
8
right_outsideCutPath
10
20.895008
20
10.7738279
11
20.8920779
21
10.776758
0
LINE
8
right_outsideCutPath
10
20.8920779
20
10.776758
11
20.777008
21
10.776758
0
LINE
8
right_outsideCutPath
10
20.777008
20
10.776758
11
20.777008
21
11.2670779
0
LINE
8
right_outsideCutPath
10
20.777008
20
11.2670779
11
20.7740779
21
11.270008
0
LINE
8
right_outsideCutPath
10
20.7740779
20
11.270008
11
20.2696841
21
11.270008
0
LINE
8
right_outsideCutPath
10
20.2696841
20
11.270008
11
20.266754
21
11.2670779
0
LINE
8
right_outsideCutPath
10
20.266754
20
11.2670779
11
20.266754
21
11.152008
0
LINE
8
right_outsideCutPath
10
20.266754
20
11.152008
11
19.775258
21
11.152008
0
LINE
8
right_outsideCutPath
10
19.775258
20
11.152008
11
19.775258
21
11.2670779
0
LINE
8
right_outsideCutPath
10
19.775258
20
11.2670779
11
19.7723279
21
11.270008
0
LINE
8
right_outsideCutPath
10
19.7723279
20
11.270008
11
19.2666841
21
11.270008
0
LINE
8
right_outsideCutPath
10
19.2666841
20
11.270008
11
19.263754
21
11.2670779
0
LINE
8
right_outsideCutPath
10
19.263754
20
11.2670779
11
19.263754
21
11.152008
0
LINE
8
right_outsideCutPath
10
19.263754
20
11.152008
11
18.772258
21
11.152008
0
LINE
8
right_outsideCutPath
10
18.772258
20
11.152008
11
18.772258
21
11.2670779
0
LINE
8
right_outsideCutPath
10
18.772258
20
11.2670779
11
18.7693279
21
11.270008
0
LINE
8
right_outsideCutPath
10
18.7693279
20
11.270008
11
18.2636841
21
11.270008
0
LINE
8
right_outsideCutPath
10
18.2636841
20
11.270008
11
18.260754
21
11.2670779
0
LINE
8
right_outsideCutPath
10
18.260754
20
11.2670779
11
18.260754
21
11.152008
0
LINE
8
right_outsideCutPath
10
18.260754
20
11.152008
11
17.769258
21
11.152008
0
LINE
8
right_outsideCutPath
10
17.769258
20
11.152008
11
17.769258
21
11.2670779
0
LINE
8
right_outsideCutPath
10
17.769258
20
11.2670779
11
17.7663279
21
11.270008
0
LINE
8
right_outsideCutPath
10
17.7663279
20
11.270008
11
17.2606841
21
11.270008
0
LINE
8
right_outsideCutPath
10
17.2606841
20
11.270008
11
17.257754
21
11.2670779
0
LINE
8
right_outsideCutPath
10
17.257754
20
11.2670779
11
17.257754
21
11.152008
0
LINE
8
right_outsideCutPath
10
17.257754
20
11.152008
11
16.766258
21
11.152008
0
LINE
8
right_outsideCutPath
10
16.766258
20
11.152008
11
16.766258
21
11.2670779
0
LINE
8
right_outsideCutPath
10
16.766258
20
11.2670779
11
16.7633279
21
11.270008
0
LINE
8
right_outsideCutPath
10
16.7633279
20
11.270008
11
16.2576841
21
11.270008
0
LINE
8
right_outsideCutPath
10
16.2576841
20
11.270008
11
16.254754
21
11.2670779
0
LINE
8
right_outsideCutPath
10
16.254754
20
11.2670779
11
16.254754
21
11.152008
0
LINE
8
right_outsideCutPath
10
16.254754
20
11.152008
11
15.763258
21
11.152008
0
LINE
8
right_outsideCutPath
10
15.763258
20
11.152008
11
15.763258
21
11.2670779
0
LINE
8
right_outsideCutPath
10
15.763258
20
11.2670779
11
15.7603279
21
11.270008
0
LINE
8
right_outsideCutPath
10
15.7603279
20
11.270008
11
15.2559341
21
11.270008
0
LINE
8
right_outsideCutPath
10
15.2559341
20
11.270008
11
15.253004
21
11.2670779
0
LINE
8
right_outsideCutPath
10
15.253004
20
11.2670779
11
15.253004
21
10.776758
0
LINE
8
right_outsideCutPath
10
15.253004
20
10.776758
11
15.1379341
21
10.776758
0
LINE
8
right_outsideCutPath
10
15.1379341
20
10.776758
11
15.135004
21
10.7738279
0
LINE
8
right_outsideCutPath
10
15.135004
20
10.7738279
11
15.135004
21
10.2681841
0
LINE
8
right_outsideCutPath
10
15.135004
20
10.2681841
11
15.1379341
21
10.265254
0
LINE
8
right_outsideCutPath
10
15.1379341
20
10.265254
11
15.253004
21
10.265254
0
LINE
8
right_outsideCutPath
10
15.253004
20
10.265254
11
15.253004
21
9.773758
0
LINE
8
right_outsideCutPath
10
15.253004
20
9.773758
11
15.1379341
21
9.773758
0
LINE
8
right_outsideCutPath
10
15.1379341
20
9.773758
11
15.135004
21
9.7708279
0
LINE
8
right_outsideCutPath
10
15.135004
20
9.7708279
11
15.135004
21
9.2651841
0
LINE
8
right_outsideCutPath
10
15.135004
20
9.2651841
11
15.1379341
21
9.262254
0
LINE
8
right_outsideCutPath
10
15.1379341
20
9.262254
11
15.253004
21
9.262254
0
LINE
8
right_outsideCutPath
10
15.253004
20
9.262254
11
15.253004
21
8.770758
0
LINE
8
right_outsideCutPath
10
15.253004
20
8.770758
11
15.1379341
21
8.770758
0
LINE
8
right_outsideCutPath
10
15.1379341
20
8.770758
11
15.135004
21
8.7678279
0
LINE
8
right_outsideCutPath
10
15.135004
20
8.7678279
11
15.135004
21
8.2621841
0
LINE
8
right_outsideCutPath
10
15.135004
20
8.2621841
11
15.1379341
21
8.259254
0
LINE
8
right_outsideCutPath
10
15.1379341
20
8.259254
11
15.253004
21
8.259254
0
LINE
8
right_outsideCutPath
10
15.253004
20
8.259254
11
15.253004
21
7.767758
0
LINE
8
right_outsideCutPath
10
15.253004
20
7.767758
11
15.1379341
21
7.767758
0
LINE
8
right_outsideCutPath
10
15.1379341
20
7.767758
11
15.135004
21
7.7648279
0
LINE
8
right_outsideCutPath
10
15.135004
20
7.7648279
11
15.135004
21
7.2591841
0
LINE
8
right_outsideCutPath
10
15.135004
20
7.2591841
11
15.1379341
21
7.256254
0
LINE
8
right_outsideCutPath
10
15.1379341
20
7.256254
11
15.253004
21
7.256254
0
LINE
8
right_outsideCutPath
10
15.253004
20
7.256254
11
15.253004
21
6.764758
0
LINE
8
right_outsideCutPath
10
15.253004
20
6.764758
11
15.1379341
21
6.764758
0
LINE
8
right_outsideCutPath
10
15.1379341
20
6.764758
11
15.135004
21
6.7618279
0
LINE
8
right_outsideCutPath
10
15.135004
20
6.7618279
11
15.135004
21
6.2561841
0
LINE
8
right_outsideCutPath
10
15.135004
20
6.2561841
11
15.1379341
21
6.253254
0
LINE
8
right_outsideCutPath
10
15.1379341
20
6.253254
11
15.253004
21
6.253254
0
LINE
8
right_outsideCutPath
10
15.253004
20
6.253254
11
15.253004
21
5.7629341
0
LINE
8
right_outsideCutPath
10
15.253004
20
5.7629341
11
15.2559341
21
5.760004
0
LINE
8
right_outsideCutPath
10
15.2559341
20
5.760004
11
15.7603279
21
5.760004
0
LINE
8
right_outsideCutPath
10
15.7603279
20
5.760004
11
15.763258
21
5.7629341
0
LINE
8
bottom_outsideCutPath
10
22.261262
20
6.0129341
11
22.261262
21
6.128004
0
LINE
8
bottom_outsideCutPath
10
22.261262
20
6.128004
11
22.752758
21
6.128004
0
LINE
8
bottom_outsideCutPath
10
22.752758
20
6.128004
11
22.752758
21
6.0129341
0
LINE
8
bottom_outsideCutPath
10
22.752758
20
6.0129341
11
22.7556881
21
6.010004
0
LINE
8
bottom_outsideCutPath
10
22.7556881
20
6.010004
11
23.2613319
21
6.010004
0
LINE
8
bottom_outsideCutPath
10
23.2613319
20
6.010004
11
23.264262
21
6.0129341
0
LINE
8
bottom_outsideCutPath
10
23.264262
20
6.0129341
11
23.264262
21
6.128004
0
LINE
8
bottom_outsideCutPath
10
23.264262
20
6.128004
11
23.755758
21
6.128004
0
LINE
8
bottom_outsideCutPath
10
23.755758
20
6.128004
11
23.755758
21
6.0129341
0
LINE
8
bottom_outsideCutPath
10
23.755758
20
6.0129341
11
23.7586881
21
6.010004
0
LINE
8
bottom_outsideCutPath
10
23.7586881
20
6.010004
11
24.2643319
21
6.010004
0
LINE
8
bottom_outsideCutPath
10
24.2643319
20
6.010004
11
24.267262
21
6.0129341
0
LINE
8
bottom_outsideCutPath
10
24.267262
20
6.0129341
11
24.267262
21
6.128004
0
LINE
8
bottom_outsideCutPath
10
24.267262
20
6.128004
11
24.758758
21
6.128004
0
LINE
8
bottom_outsideCutPath
10
24.758758
20
6.128004
11
24.758758
21
6.0129341
0
LINE
8
bottom_outsideCutPath
10
24.758758
20
6.0129341
11
24.7616881
21
6.010004
0
LINE
8
bottom_outsideCutPath
10
24.7616881
20
6.010004
11
25.2673319
21
6.010004
0
LINE
8
bottom_outsideCutPath
10
25.2673319
20
6.010004
11
25.270262
21
6.0129341
0
LINE
8
bottom_outsideCutPath
10
25.270262
20
6.0129341
11
25.270262
21
6.128004
0
LINE
8
bottom_outsideCutPath
10
25.270262
20
6.128004
11
25.761758
21
6.128004
0
LINE
8
bottom_outsideCutPath
10
25.761758
20
6.128004
11
25.761758
21
6.0129341
0
LINE
8
bottom_outsideCutPath
10
25.761758
20
6.0129341
11
25.7646881
21
6.010004
0
LINE
8
bottom_outsideCutPath
10
25.7646881
20
6.010004
11
26.2703319
21
6.010004
0
LINE
8
bottom_outsideCutPath
10
26.2703319
20
6.010004
11
26.273262
21
6.0129341
0
LINE
8
bottom_outsideCutPath
10
26.273262
20
6.0129341
11
26.273262
21
6.128004
0
LINE
8
bottom_outsideCutPath
10
26.273262
20
6.128004
11
26.764758
21
6.128004
0
LINE
8
bottom_outsideCutPath
10
26.764758
20
6.128004
11
26.764758
21
6.0129341
0
LINE
8
bottom_outsideCutPath
10
26.764758
20
6.0129341
11
26.7676881
21
6.010004
0
LINE
8
bottom_outsideCutPath
10
26.7676881
20
6.010004
11
27.2733319
21
6.010004
0
LINE
8
bottom_outsideCutPath
10
27.2733319
20
6.010004
11
27.276262
21
6.0129341
0
LINE
8
bottom_outsideCutPath
10
27.276262
20
6.0129341
11
27.276262
21
6.128004
0
LINE
8
bottom_outsideCutPath
10
27.276262
20
6.128004
11
27.767758
21
6.128004
0
LINE
8
bottom_outsideCutPath
10
27.767758
20
6.128004
11
27.767758
21
6.0129341
0
LINE
8
bottom_outsideCutPath
10
27.767758
20
6.0129341
11
27.7706881
21
6.010004
0
LINE
8
bottom_outsideCutPath
10
27.7706881
20
6.010004
11
28.2763319
21
6.010004
0
LINE
8
bottom_outsideCutPath
10
28.2763319
20
6.010004
11
28.279262
21
6.0129341
0
LINE
8
bottom_outsideCutPath
10
28.279262
20
6.0129341
11
28.279262
21
6.128004
0
LINE
8
bottom_outsideCutPath
10
28.279262
20
6.128004
11
28.770758
21
6.128004
0
LINE
8
bottom_outsideCutPath
10
28.770758
20
6.128004
11
28.770758
21
6.0129341
0
LINE
8
bottom_outsideCutPath
10
28.770758
20
6.0129341
11
28.7736881
21
6.010004
0
LINE
8
bottom_outsideCutPath
10
28.7736881
20
6.010004
11
29.2793319
21
6.010004
0
LINE
8
bottom_outsideCutPath
10
29.2793319
20
6.010004
11
29.282262
21
6.0129341
0
LINE
8
bottom_outsideCutPath
10
29.282262
20
6.0129341
11
29.282262
21
6.128004
0
LINE
8
bottom_outsideCutPath
10
29.282262
20
6.128004
11
29.773758
21
6.128004
0
LINE
8
bottom_outsideCutPath
10
29.773758
20
6.128004
11
29.773758
21
6.0129341
0
LINE
8
bottom_outsideCutPath
10
29.773758
20
6.0129341
11
29.7766881
21
6.010004
0
LINE
8
bottom_outsideCutPath
10
29.7766881
20
6.010004
11
30.2823319
21
6.010004
0
LINE
8
bottom_outsideCutPath
10
30.2823319
20
6.010004
11
30.285262
21
6.0129341
0
LINE
8
bottom_outsideCutPath
10
30.285262
20
6.0129341
11
30.285262
21
6.128004
0
LINE
8
bottom_outsideCutPath
10
30.285262
20
6.128004
11
30.776758
21
6.128004
0
LINE
8
bottom_outsideCutPath
10
30.776758
20
6.128004
11
30.776758
21
6.0129341
0
LINE
8
bottom_outsideCutPath
10
30.776758
20
6.0129341
11
30.7796881
21
6.010004
0
LINE
8
bottom_outsideCutPath
10
30.7796881
20
6.010004
11
31.2853319
21
6.010004
0
LINE
8
bottom_outsideCutPath
10
31.2853319
20
6.010004
11
31.288262
21
6.0129341
0
LINE
8
bottom_outsideCutPath
10
31.288262
20
6.0129341
11
31.288262
21
6.128004
0
LINE
8
bottom_outsideCutPath
10
31.288262
20
6.128004
11
31.779758
21
6.128004
0
LINE
8
bottom_outsideCutPath
10
31.779758
20
6.128004
11
31.779758
21
6.0129341
0
LINE
8
bottom_outsideCutPath
10
31.779758
20
6.0129341
11
31.7826881
21
6.010004
0
LINE
8
bottom_outsideCutPath
10
31.7826881
20
6.010004
11
32.2883319
21
6.010004
0
LINE
8
bottom_outsideCutPath
10
32.2883319
20
6.010004
11
32.291262
21
6.0129341
0
LINE
8
bottom_outsideCutPath
10
32.291262
20
6.0129341
11
32.291262
21
6.128004
0
LINE
8
bottom_outsideCutPath
10
32.291262
20
6.128004
11
32.782758
21
6.128004
0
LINE
8
bottom_outsideCutPath
10
32.782758
20
6.128004
11
32.782758
21
6.0129341
0
LINE
8
bottom_outsideCutPath
10
32.782758
20
6.0129341
11
32.7856881
21
6.010004
0
LINE
8
bottom_outsideCutPath
10
32.7856881
20
6.010004
11
33.2913319
21
6.010004
0
LINE
8
bottom_outsideCutPath
10
33.2913319
20
6.010004
11
33.294262
21
6.0129341
0
LINE
8
bottom_outsideCutPath
10
33.294262
20
6.0129341
11
33.294262
21
6.128004
0
LINE
8
bottom_outsideCutPath
10
33.294262
20
6.128004
11
33.785758
21
6.128004
0
LINE
8
bottom_outsideCutPath
10
33.785758
20
6.128004
11
33.785758
21
6.0129341
0
LINE
8
bottom_outsideCutPath
10
33.785758
20
6.0129341
11
33.7886881
21
6.010004
0
LINE
8
bottom_outsideCutPath
10
33.7886881
20
6.010004
11
34.2943319
21
6.010004
0
LINE
8
bottom_outsideCutPath
10
34.2943319
20
6.010004
11
34.297262
21
6.0129341
0
LINE
8
bottom_outsideCutPath
10
34.297262
20
6.0129341
11
34.297262
21
6.128004
0
LINE
8
bottom_outsideCutPath
10
34.297262
20
6.128004
11
34.788758
21
6.128004
0
LINE
8
bottom_outsideCutPath
10
34.788758
20
6.128004
11
34.788758
21
6.0129341
0
LINE
8
bottom_outsideCutPath
10
34.788758
20
6.0129341
11
34.7916881
21
6.010004
0
LINE
8
bottom_outsideCutPath
10
34.7916881
20
6.010004
11
35.2973319
21
6.010004
0
LINE
8
bottom_outsideCutPath
10
35.2973319
20
6.010004
11
35.300262
21
6.0129341
0
LINE
8
bottom_outsideCutPath
10
35.300262
20
6.0129341
11
35.300262
21
6.128004
0
LINE
8
bottom_outsideCutPath
10
35.300262
20
6.128004
11
35.9090819
21
6.128004
0
LINE
8
bottom_outsideCutPath
10
35.9090819
20
6.128004
11
35.912012
21
6.1309341
0
LINE
8
bottom_outsideCutPath
10
35.912012
20
6.1309341
11
35.912012
21
6.628254
0
LINE
8
bottom_outsideCutPath
10
35.912012
20
6.628254
11
36.0270819
21
6.628254
0
LINE
8
bottom_outsideCutPath
10
36.0270819
20
6.628254
11
36.030012
21
6.6311841
0
LINE
8
bottom_outsideCutPath
10
36.030012
20
6.6311841
11
36.030012
21
7.1368279
0
LINE
8
bottom_outsideCutPath
10
36.030012
20
7.1368279
11
36.0270819
21
7.139758
0
LINE
8
bottom_outsideCutPath
10
36.0270819
20
7.139758
11
35.912012
21
7.139758
0
LINE
8
bottom_outsideCutPath
10
35.912012
20
7.139758
11
35.912012
21
7.631254
0
LINE
8
bottom_outsideCutPath
10
35.912012
20
7.631254
11
36.0270819
21
7.631254
0
LINE
8
bottom_outsideCutPath
10
36.0270819
20
7.631254
11
36.030012
21
7.6341841
0
LINE
8
bottom_outsideCutPath
10
36.030012
20
7.6341841
11
36.030012
21
8.1398279
0
LINE
8
bottom_outsideCutPath
10
36.030012
20
8.1398279
11
36.0270819
21
8.142758
0
LINE
8
bottom_outsideCutPath
10
36.0270819
20
8.142758
11
35.912012
21
8.142758
0
LINE
8
bottom_outsideCutPath
10
35.912012
20
8.142758
11
35.912012
21
8.634254
0
LINE
8
bottom_outsideCutPath
10
35.912012
20
8.634254
11
36.0270819
21
8.634254
0
LINE
8
bottom_outsideCutPath
10
36.0270819
20
8.634254
11
36.030012
21
8.6371841
0
LINE
8
bottom_outsideCutPath
10
36.030012
20
8.6371841
11
36.030012
21
9.1428279
0
LINE
8
bottom_outsideCutPath
10
36.030012
20
9.1428279
11
36.0270819
21
9.145758
0
LINE
8
bottom_outsideCutPath
10
36.0270819
20
9.145758
11
35.912012
21
9.145758
0
LINE
8
bottom_outsideCutPath
10
35.912012
20
9.145758
11
35.912012
21
9.637254
0
LINE
8
bottom_outsideCutPath
10
35.912012
20
9.637254
11
36.0270819
21
9.637254
0
LINE
8
bottom_outsideCutPath
10
36.0270819
20
9.637254
11
36.030012
21
9.6401841
0
LINE
8
bottom_outsideCutPath
10
36.030012
20
9.6401841
11
36.030012
21
10.1458279
0
LINE
8
bottom_outsideCutPath
10
36.030012
20
10.1458279
11
36.0270819
21
10.148758
0
LINE
8
bottom_outsideCutPath
10
36.0270819
20
10.148758
11
35.912012
21
10.148758
0
LINE
8
bottom_outsideCutPath
10
35.912012
20
10.148758
11
35.912012
21
10.640254
0
LINE
8
bottom_outsideCutPath
10
35.912012
20
10.640254
11
36.0270819
21
10.640254
0
LINE
8
bottom_outsideCutPath
10
36.0270819
20
10.640254
11
36.030012
21
10.6431841
0
LINE
8
bottom_outsideCutPath
10
36.030012
20
10.6431841
11
36.030012
21
11.1488279
0
LINE
8
bottom_outsideCutPath
10
36.030012
20
11.1488279
11
36.0270819
21
11.151758
0
LINE
8
bottom_outsideCutPath
10
36.0270819
20
11.151758
11
35.912012
21
11.151758
0
LINE
8
bottom_outsideCutPath
10
35.912012
20
11.151758
11
35.912012
21
11.6490779
0
LINE
8
bottom_outsideCutPath
10
35.912012
20
11.6490779
11
35.9090819
21
11.652008
0
LINE
8
bottom_outsideCutPath
10
35.9090819
20
11.652008
11
35.300262
21
11.652008
0
LINE
8
bottom_outsideCutPath
10
35.300262
20
11.652008
11
35.300262
21
11.7670779
0
LINE
8
bottom_outsideCutPath
10
35.300262
20
11.7670779
11
35.2973319
21
11.770008
0
LINE
8
bottom_outsideCutPath
10
35.2973319
20
11.770008
11
34.7916881
21
11.770008
0
LINE
8
bottom_outsideCutPath
10
34.7916881
20
11.770008
11
34.788758
21
11.7670779
0
LINE
8
bottom_outsideCutPath
10
34.788758
20
11.7670779
11
34.788758
21
11.652008
0
LINE
8
bottom_outsideCutPath
10
34.788758
20
11.652008
11
34.297262
21
11.652008
0
LINE
8
bottom_outsideCutPath
10
34.297262
20
11.652008
11
34.297262
21
11.7670779
0
LINE
8
bottom_outsideCutPath
10
34.297262
20
11.7670779
11
34.2943319
21
11.770008
0
LINE
8
bottom_outsideCutPath
10
34.2943319
20
11.770008
11
33.7886881
21
11.770008
0
LINE
8
bottom_outsideCutPath
10
33.7886881
20
11.770008
11
33.785758
21
11.7670779
0
LINE
8
bottom_outsideCutPath
10
33.785758
20
11.7670779
11
33.785758
21
11.652008
0
LINE
8
bottom_outsideCutPath
10
33.785758
20
11.652008
11
33.294262
21
11.652008
0
LINE
8
bottom_outsideCutPath
10
33.294262
20
11.652008
11
33.294262
21
11.7670779
0
LINE
8
bottom_outsideCutPath
10
33.294262
20
11.7670779
11
33.2913319
21
11.770008
0
LINE
8
bottom_outsideCutPath
10
33.2913319
20
11.770008
11
32.7856881
21
11.770008
0
LINE
8
bottom_outsideCutPath
10
32.7856881
20
11.770008
11
32.782758
21
11.7670779
0
LINE
8
bottom_outsideCutPath
10
32.782758
20
11.7670779
11
32.782758
21
11.652008
0
LINE
8
bottom_outsideCutPath
10
32.782758
20
11.652008
11
32.291262
21
11.652008
0
LINE
8
bottom_outsideCutPath
10
32.291262
20
11.652008
11
32.291262
21
11.7670779
0
LINE
8
bottom_outsideCutPath
10
32.291262
20
11.7670779
11
32.2883319
21
11.770008
0
LINE
8
bottom_outsideCutPath
10
32.2883319
20
11.770008
11
31.7826881
21
11.770008
0
LINE
8
bottom_outsideCutPath
10
31.7826881
20
11.770008
11
31.779758
21
11.7670779
0
LINE
8
bottom_outsideCutPath
10
31.779758
20
11.7670779
11
31.779758
21
11.652008
0
LINE
8
bottom_outsideCutPath
10
31.779758
20
11.652008
11
31.288262
21
11.652008
0
LINE
8
bottom_outsideCutPath
10
31.288262
20
11.652008
11
31.288262
21
11.7670779
0
LINE
8
bottom_outsideCutPath
10
31.288262
20
11.7670779
11
31.2853319
21
11.770008
0
LINE
8
bottom_outsideCutPath
10
31.2853319
20
11.770008
11
30.7796881
21
11.770008
0
LINE
8
bottom_outsideCutPath
10
30.7796881
20
11.770008
11
30.776758
21
11.7670779
0
LINE
8
bottom_outsideCutPath
10
30.776758
20
11.7670779
11
30.776758
21
11.652008
0
LINE
8
bottom_outsideCutPath
10
30.776758
20
11.652008
11
30.285262
21
11.652008
0
LINE
8
bottom_outsideCutPath
10
30.285262
20
11.652008
11
30.285262
21
11.7670779
0
LINE
8
bottom_outsideCutPath
10
30.285262
20
11.7670779
11
30.2823319
21
11.770008
0
LINE
8
bottom_outsideCutPath
10
30.2823319
20
11.770008
11
29.7766881
21
11.770008
0
LINE
8
bottom_outsideCutPath
10
29.7766881
20
11.770008
11
29.773758
21
11.7670779
0
LINE
8
bottom_outsideCutPath
10
29.773758
20
11.7670779
11
29.773758
21
11.652008
0
LINE
8
bottom_outsideCutPath
10
29.773758
20
11.652008
11
29.282262
21
11.652008
0
LINE
8
bottom_outsideCutPath
10
29.282262
20
11.652008
11
29.282262
21
11.7670779
0
LINE
8
bottom_outsideCutPath
10
29.282262
20
11.7670779
11
29.2793319
21
11.770008
0
LINE
8
bottom_outsideCutPath
10
29.2793319
20
11.770008
11
28.7736881
21
11.770008
0
LINE
8
bottom_outsideCutPath
10
28.7736881
20
11.770008
11
28.770758
21
11.7670779
0
LINE
8
bottom_outsideCutPath
10
28.770758
20
11.7670779
11
28.770758
21
11.652008
0
LINE
8
bottom_outsideCutPath
10
28.770758
20
11.652008
11
28.279262
21
11.652008
0
LINE
8
bottom_outsideCutPath
10
28.279262
20
11.652008
11
28.279262
21
11.7670779
0
LINE
8
bottom_outsideCutPath
10
28.279262
20
11.7670779
11
28.2763319
21
11.770008
0
LINE
8
bottom_outsideCutPath
10
28.2763319
20
11.770008
11
27.7706881
21
11.770008
0
LINE
8
bottom_outsideCutPath
10
27.7706881
20
11.770008
11
27.767758
21
11.7670779
0
LINE
8
bottom_outsideCutPath
10
27.767758
20
11.7670779
11
27.767758
21
11.652008
0
LINE
8
bottom_outsideCutPath
10
27.767758
20
11.652008
11
27.276262
21
11.652008
0
LINE
8
bottom_outsideCutPath
10
27.276262
20
11.652008
11
27.276262
21
11.7670779
0
LINE
8
bottom_outsideCutPath
10
27.276262
20
11.7670779
11
27.2733319
21
11.770008
0
LINE
8
bottom_outsideCutPath
10
27.2733319
20
11.770008
11
26.7676881
21
11.770008
0
LINE
8
bottom_outsideCutPath
10
26.7676881
20
11.770008
11
26.764758
21
11.7670779
0
LINE
8
bottom_outsideCutPath
10
26.764758
20
11.7670779
11
26.764758
21
11.652008
0
LINE
8
bottom_outsideCutPath
10
26.764758
20
11.652008
11
26.273262
21
11.652008
0
LINE
8
bottom_outsideCutPath
10
26.273262
20
11.652008
11
26.273262
21
11.7670779
0
LINE
8
bottom_outsideCutPath
10
26.273262
20
11.7670779
11
26.2703319
21
11.770008
0
LINE
8
bottom_outsideCutPath
10
26.2703319
20
11.770008
11
25.7646881
21
11.770008
0
LINE
8
bottom_outsideCutPath
10
25.7646881
20
11.770008
11
25.761758
21
11.7670779
0
LINE
8
bottom_outsideCutPath
10
25.761758
20
11.7670779
11
25.761758
21
11.652008
0
LINE
8
bottom_outsideCutPath
10
25.761758
20
11.652008
11
25.270262
21
11.652008
0
LINE
8
bottom_outsideCutPath
10
25.270262
20
11.652008
11
25.270262
21
11.7670779
0
LINE
8
bottom_outsideCutPath
10
25.270262
20
11.7670779
11
25.2673319
21
11.770008
0
LINE
8
bottom_outsideCutPath
10
25.2673319
20
11.770008
11
24.7616881
21
11.770008
0
LINE
8
bottom_outsideCutPath
10
24.7616881
20
11.770008
11
24.758758
21
11.7670779
0
LINE
8
bottom_outsideCutPath
10
24.758758
20
11.7670779
11
24.758758
21
11.652008
0
LINE
8
bottom_outsideCutPath
10
24.758758
20
11.652008
11
24.267262
21
11.652008
0
LINE
8
bottom_outsideCutPath
10
24.267262
20
11.652008
11
24.267262
21
11.7670779
0
LINE
8
bottom_outsideCutPath
10
24.267262
20
11.7670779
11
24.2643319
21
11.770008
0
LINE
8
bottom_outsideCutPath
10
24.2643319
20
11.770008
11
23.7586881
21
11.770008
0
LINE
8
bottom_outsideCutPath
10
23.7586881
20
11.770008
11
23.755758
21
11.7670779
0
LINE
8
bottom_outsideCutPath
10
23.755758
20
11.7670779
11
23.755758
21
11.652008
0
LINE
8
bottom_outsideCutPath
10
23.755758
20
11.652008
11
23.264262
21
11.652008
0
LINE
8
bottom_outsideCutPath
10
23.264262
20
11.652008
11
23.264262
21
11.7670779
0
LINE
8
bottom_outsideCutPath
10
23.264262
20
11.7670779
11
23.2613319
21
11.770008
0
LINE
8
bottom_outsideCutPath
10
23.2613319
20
11.770008
11
22.7556881
21
11.770008
0
LINE
8
bottom_outsideCutPath
10
22.7556881
20
11.770008
11
22.752758
21
11.7670779
0
LINE
8
bottom_outsideCutPath
10
22.752758
20
11.7670779
11
22.752758
21
11.652008
0
LINE
8
bottom_outsideCutPath
10
22.752758
20
11.652008
11
22.261262
21
11.652008
0
LINE
8
bottom_outsideCutPath
10
22.261262
20
11.652008
11
22.261262
21
11.7670779
0
LINE
8
bottom_outsideCutPath
10
22.261262
20
11.7670779
11
22.2583319
21
11.770008
0
LINE
8
bottom_outsideCutPath
10
22.2583319
20
11.770008
11
21.7526881
21
11.770008
0
LINE
8
bottom_outsideCutPath
10
21.7526881
20
11.770008
11
21.749758
21
11.7670779
0
LINE
8
bottom_outsideCutPath
10
21.749758
20
11.7670779
11
21.749758
21
11.652008
0
LINE
8
bottom_outsideCutPath
10
21.749758
20
11.652008
11
21.1409381
21
11.652008
0
LINE
8
bottom_outsideCutPath
10
21.1409381
20
11.652008
11
21.138008
21
11.6490779
0
LINE
8
bottom_outsideCutPath
10
21.138008
20
11.6490779
11
21.138008
21
11.151758
0
LINE
8
bottom_outsideCutPath
10
21.138008
20
11.151758
11
21.0229381
21
11.151758
0
LINE
8
bottom_outsideCutPath
10
21.0229381
20
11.151758
11
21.020008
21
11.1488279
0
LINE
8
bottom_outsideCutPath
10
21.020008
20
11.1488279
11
21.020008
21
10.6431841
0
LINE
8
bottom_outsideCutPath
10
21.020008
20
10.6431841
11
21.0229381
21
10.640254
0
LINE
8
bottom_outsideCutPath
10
21.0229381
20
10.640254
11
21.138008
21
10.640254
0
LINE
8
bottom_outsideCutPath
10
21.138008
20
10.640254
11
21.138008
21
10.148758
0
LINE
8
bottom_outsideCutPath
10
21.138008
20
10.148758
11
21.0229381
21
10.148758
0
LINE
8
bottom_outsideCutPath
10
21.0229381
20
10.148758
11
21.020008
21
10.1458279
0
LINE
8
bottom_outsideCutPath
10
21.020008
20
10.1458279
11
21.020008
21
9.6401841
0
LINE
8
bottom_outsideCutPath
10
21.020008
20
9.6401841
11
21.0229381
21
9.637254
0
LINE
8
bottom_outsideCutPath
10
21.0229381
20
9.637254
11
21.138008
21
9.637254
0
LINE
8
bottom_outsideCutPath
10
21.138008
20
9.637254
11
21.138008
21
9.145758
0
LINE
8
bottom_outsideCutPath
10
21.138008
20
9.145758
11
21.0229381
21
9.145758
0
LINE
8
bottom_outsideCutPath
10
21.0229381
20
9.145758
11
21.020008
21
9.1428279
0
LINE
8
bottom_outsideCutPath
10
21.020008
20
9.1428279
11
21.020008
21
8.6371841
0
LINE
8
bottom_outsideCutPath
10
21.020008
20
8.6371841
11
21.0229381
21
8.634254
0
LINE
8
bottom_outsideCutPath
10
21.0229381
20
8.634254
11
21.138008
21
8.634254
0
LINE
8
bottom_outsideCutPath
10
21.138008
20
8.634254
11
21.138008
21
8.142758
0
LINE
8
bottom_outsideCutPath
10
21.138008
20
8.142758
11
21.0229381
21
8.142758
0
LINE
8
bottom_outsideCutPath
10
21.0229381
20
8.142758
11
21.020008
21
8.1398279
0
LINE
8
bottom_outsideCutPath
10
21.020008
20
8.1398279
11
21.020008
21
7.6341841
0
LINE
8
bottom_outsideCutPath
10
21.020008
20
7.6341841
11
21.0229381
21
7.631254
0
LINE
8
bottom_outsideCutPath
10
21.0229381
20
7.631254
11
21.138008
21
7.631254
0
LINE
8
bottom_outsideCutPath
10
21.138008
20
7.631254
11
21.138008
21
7.139758
0
LINE
8
bottom_outsideCutPath
10
21.138008
20
7.139758
11
21.0229381
21
7.139758
0
LINE
8
bottom_outsideCutPath
10
21.0229381
20
7.139758
11
21.020008
21
7.1368279
0
LINE
8
bottom_outsideCutPath
10
21.020008
20
7.1368279
11
21.020008
21
6.6311841
0
LINE
8
bottom_outsideCutPath
10
21.020008
20
6.6311841
11
21.0229381
21
6.628254
0
LINE
8
bottom_outsideCutPath
10
21.0229381
20
6.628254
11
21.138008
21
6.628254
0
LINE
8
bottom_outsideCutPath
10
21.138008
20
6.628254
11
21.138008
21
6.1309341
0
LINE
8
bottom_outsideCutPath
10
21.138008
20
6.1309341
11
21.1409381
21
6.128004
0
LINE
8
bottom_outsideCutPath
10
21.1409381
20
6.128004
11
21.749758
21
6.128004
0
LINE
8
bottom_outsideCutPath
10
21.749758
20
6.128004
11
21.749758
21
6.0129341
0
LINE
8
bottom_outsideCutPath
10
21.749758
20
6.0129341
11
21.7526881
21
6.010004
0
LINE
8
bottom_outsideCutPath
10
21.7526881
20
6.010004
11
22.2583319
21
6.010004
0
LINE
8
bottom_outsideCutPath
10
22.2583319
20
6.010004
11
22.261262
21
6.0129341
0
ENDSEC
0
EOF