<svg width="36.03in" height="11.645in" viewBox="0 0 36.03 11.645" xmlns="http://www.w3.org/2000/svg" version="1.1" preserveAspectRatio="xMidYMid meet"><g id="svgGroup" stroke-linecap="round" fill-rule="evenodd" font-size="9pt" stroke="#000" stroke-width="0.25mm" fill="none" style="stroke:#000;stroke-width:0.25mm;fill:none"><path d="M 0.74 11.642 L 0.74 11.527 L 1.231 11.527 L 1.231 11.642 L 1.234 11.645 L 1.74 11.645 L 1.743 11.642 L 1.743 11.527 L 2.234 11.527 L 2.234 11.642 L 2.237 11.645 L 2.743 11.645 L 2.746 11.642 L 2.746 11.527 L 3.237 11.527 L 3.237 11.642 L 3.24 11.645 L 3.746 11.645 L 3.749 11.642 L 3.749 11.527 L 4.24 11.527 L 4.24 11.642 L 4.243 11.645 L 4.749 11.645 L 4.752 11.642 L 4.752 11.527 L 5.243 11.527 L 5.243 11.642 L 5.246 11.645 L 5.752 11.645 L 5.755 11.642 L 5.755 11.527 L 6.246 11.527 L 6.246 11.642 L 6.249 11.645 L 6.755 11.645 L 6.758 11.642 L 6.758 11.527 L 7.249 11.527 L 7.249 11.642 L 7.252 11.645 L 7.758 11.645 L 7.761 11.642 L 7.761 11.527 L 8.252 11.527 L 8.252 11.642 L 8.255 11.645 L 8.761 11.645 L 8.764 11.642 L 8.764 11.527 L 9.255 11.527 L 9.255 11.642 L 9.258 11.645 L 9.764 11.645 L 9.767 11.642 L 9.767 11.527 L 10.258 11.527 L 10.258 11.642 L 10.261 11.645 L 10.767 11.645 L 10.77 11.642 L 10.77 11.527 L 11.261 11.527 L 11.261 11.642 L 11.264 11.645 L 11.77 11.645 L 11.773 11.642 L 11.773 11.527 L 12.264 11.527 L 12.264 11.642 L 12.267 11.645 L 12.773 11.645 L 12.776 11.642 L 12.776 11.527 L 13.267 11.527 L 13.267 11.642 L 13.27 11.645 L 13.776 11.645 L 13.779 11.642 L 13.779 11.527 L 14.27 11.527 L 14.27 11.642 L 14.273 11.645 L 15.007 11.645 L 15.01 11.642 L 15.01 11.145 L 15.007 11.142 L 14.892 11.142 L 14.892 10.65 L 15.007 10.65 L 15.01 10.647 L 15.01 10.142 L 15.007 10.139 L 14.892 10.139 L 14.892 9.647 L 15.007 9.647 L 15.01 9.644 L 15.01 9.139 L 15.007 9.136 L 14.892 9.136 L 14.892 8.644 L 15.007 8.644 L 15.01 8.641 L 15.01 8.136 L 15.007 8.133 L 14.892 8.133 L 14.892 7.641 L 15.007 7.641 L 15.01 7.638 L 15.01 7.133 L 15.007 7.13 L 14.892 7.13 L 14.892 6.638 L 15.007 6.638 L 15.01 6.635 L 15.01 6.138 L 15.007 6.135 L 14.273 6.135 L 14.27 6.138 L 14.27 6.253 L 13.779 6.253 L 13.779 6.138 L 13.776 6.135 L 13.27 6.135 L 13.267 6.138 L 13.267 6.253 L 12.776 6.253 L 12.776 6.138 L 12.773 6.135 L 12.267 6.135 L 12.264 6.138 L 12.264 6.253 L 11.773 6.253 L 11.773 6.138 L 11.77 6.135 L 11.264 6.135 L 11.261 6.138 L 11.261 6.253 L 10.77 6.253 L 10.77 6.138 L 10.767 6.135 L 10.261 6.135 L 10.258 6.138 L 10.258 6.253 L 9.767 6.253 L 9.767 6.138 L 9.764 6.135 L 9.258 6.135 L 9.255 6.138 L 9.255 6.253 L 8.764 6.253 L 8.764 6.138 L 8.761 6.135 L 8.255 6.135 L 8.252 6.138 L 8.252 6.253 L 7.761 6.253 L 7.761 6.138 L 7.758 6.135 L 7.252 6.135 L 7.249 6.138 L 7.249 6.253 L 6.758 6.253 L 6.758 6.138 L 6.755 6.135 L 6.249 6.135 L 6.246 6.138 L 6.246 6.253 L 5.755 6.253 L 5.755 6.138 L 5.752 6.135 L 5.246 6.135 L 5.243 6.138 L 5.243 6.253 L 4.752 6.253 L 4.752 6.138 L 4.749 6.135 L 4.243 6.135 L 4.24 6.138 L 4.24 6.253 L 3.749 6.253 L 3.749 6.138 L 3.746 6.135 L 3.24 6.135 L 3.237 6.138 L 3.237 6.253 L 2.746 6.253 L 2.746 6.138 L 2.743 6.135 L 2.237 6.135 L 2.234 6.138 L 2.234 6.253 L 1.743 6.253 L 1.743 6.138 L 1.74 6.135 L 1.234 6.135 L 1.231 6.138 L 1.231 6.253 L 0.74 6.253 L 0.74 6.138 L 0.737 6.135 L 0.003 6.135 L 0 6.138 L 0 6.635 L 0.003 6.638 L 0.118 6.638 L 0.118 7.13 L 0.003 7.13 L 0 7.133 L 0 7.638 L 0.003 7.641 L 0.118 7.641 L 0.118 8.133 L 0.003 8.133 L 0 8.136 L 0 8.641 L 0.003 8.644 L 0.118 8.644 L 0.118 9.136 L 0.003 9.136 L 0 9.139 L 0 9.644 L 0.003 9.647 L 0.118 9.647 L 0.118 10.139 L 0.003 10.139 L 0 10.142 L 0 10.647 L 0.003 10.65 L 0.118 10.65 L 0.118 11.142 L 0.003 11.142 L 0 11.145 L 0 11.642 L 0.003 11.645 L 0.737 11.645 L 0.74 11.642 Z" id="front_outsideCutPath" stroke="#000000" stroke-width="0.001" style="stroke:#000000;stroke-width:0.001" vector-effect="non-scaling-stroke"/><path d="M 15.763 11.642 L 15.763 11.527 L 16.255 11.527 L 16.255 11.642 L 16.258 11.645 L 16.763 11.645 L 16.766 11.642 L 16.766 11.527 L 17.258 11.527 L 17.258 11.642 L 17.261 11.645 L 17.766 11.645 L 17.769 11.642 L 17.769 11.527 L 18.261 11.527 L 18.261 11.642 L 18.264 11.645 L 18.769 11.645 L 18.772 11.642 L 18.772 11.527 L 19.264 11.527 L 19.264 11.642 L 19.267 11.645 L 19.772 11.645 L 19.775 11.642 L 19.775 11.527 L 20.267 11.527 L 20.267 11.642 L 20.27 11.645 L 20.774 11.645 L 20.777 11.642 L 20.777 11.152 L 20.892 11.152 L 20.895 11.149 L 20.895 10.643 L 20.892 10.64 L 20.777 10.64 L 20.777 10.149 L 20.892 10.149 L 20.895 10.146 L 20.895 9.64 L 20.892 9.637 L 20.777 9.637 L 20.777 9.146 L 20.892 9.146 L 20.895 9.143 L 20.895 8.637 L 20.892 8.634 L 20.777 8.634 L 20.777 8.143 L 20.892 8.143 L 20.895 8.14 L 20.895 7.634 L 20.892 7.631 L 20.777 7.631 L 20.777 7.14 L 20.892 7.14 L 20.895 7.137 L 20.895 6.631 L 20.892 6.628 L 20.777 6.628 L 20.777 6.138 L 20.774 6.135 L 20.27 6.135 L 20.267 6.138 L 20.267 6.253 L 19.775 6.253 L 19.775 6.138 L 19.772 6.135 L 19.267 6.135 L 19.264 6.138 L 19.264 6.253 L 18.772 6.253 L 18.772 6.138 L 18.769 6.135 L 18.264 6.135 L 18.261 6.138 L 18.261 6.253 L 17.769 6.253 L 17.769 6.138 L 17.766 6.135 L 17.261 6.135 L 17.258 6.138 L 17.258 6.253 L 16.766 6.253 L 16.766 6.138 L 16.763 6.135 L 16.258 6.135 L 16.255 6.138 L 16.255 6.253 L 15.763 6.253 L 15.763 6.138 L 15.76 6.135 L 15.256 6.135 L 15.253 6.138 L 15.253 6.628 L 15.138 6.628 L 15.135 6.631 L 15.135 7.137 L 15.138 7.14 L 15.253 7.14 L 15.253 7.631 L 15.138 7.631 L 15.135 7.634 L 15.135 8.14 L 15.138 8.143 L 15.253 8.143 L 15.253 8.634 L 15.138 8.634 L 15.135 8.637 L 15.135 9.143 L 15.138 9.146 L 15.253 9.146 L 15.253 9.637 L 15.138 9.637 L 15.135 9.64 L 15.135 10.146 L 15.138 10.149 L 15.253 10.149 L 15.253 10.64 L 15.138 10.64 L 15.135 10.643 L 15.135 11.149 L 15.138 11.152 L 15.253 11.152 L 15.253 11.642 L 15.256 11.645 L 15.76 11.645 L 15.763 11.642 Z" id="left_outsideCutPath" stroke="#000000" stroke-width="0.001" style="stroke:#000000;stroke-width:0.001" vector-effect="non-scaling-stroke"/><path d="M 22.261 11.642 L 22.261 11.527 L 22.753 11.527 L 22.753 11.642 L 22.756 11.645 L 23.261 11.645 L 23.264 11.642 L 23.264 11.527 L 23.756 11.527 L 23.756 11.642 L 23.759 11.645 L 24.264 11.645 L 24.267 11.642 L 24.267 11.527 L 24.759 11.527 L 24.759 11.642 L 24.762 11.645 L 25.267 11.645 L 25.27 11.642 L 25.27 11.527 L 25.762 11.527 L 25.762 11.642 L 25.765 11.645 L 26.27 11.645 L 26.273 11.642 L 26.273 11.527 L 26.765 11.527 L 26.765 11.642 L 26.768 11.645 L 27.273 11.645 L 27.276 11.642 L 27.276 11.527 L 27.768 11.527 L 27.768 11.642 L 27.771 11.645 L 28.276 11.645 L 28.279 11.642 L 28.279 11.527 L 28.771 11.527 L 28.771 11.642 L 28.774 11.645 L 29.279 11.645 L 29.282 11.642 L 29.282 11.527 L 29.774 11.527 L 29.774 11.642 L 29.777 11.645 L 30.282 11.645 L 30.285 11.642 L 30.285 11.527 L 30.777 11.527 L 30.777 11.642 L 30.78 11.645 L 31.285 11.645 L 31.288 11.642 L 31.288 11.527 L 31.78 11.527 L 31.78 11.642 L 31.783 11.645 L 32.288 11.645 L 32.291 11.642 L 32.291 11.527 L 32.783 11.527 L 32.783 11.642 L 32.786 11.645 L 33.291 11.645 L 33.294 11.642 L 33.294 11.527 L 33.786 11.527 L 33.786 11.642 L 33.789 11.645 L 34.294 11.645 L 34.297 11.642 L 34.297 11.527 L 34.789 11.527 L 34.789 11.642 L 34.792 11.645 L 35.297 11.645 L 35.3 11.642 L 35.3 11.527 L 35.909 11.527 L 35.912 11.524 L 35.912 11.027 L 36.027 11.027 L 36.03 11.024 L 36.03 10.518 L 36.027 10.515 L 35.912 10.515 L 35.912 10.024 L 36.027 10.024 L 36.03 10.021 L 36.03 9.515 L 36.027 9.512 L 35.912 9.512 L 35.912 9.021 L 36.027 9.021 L 36.03 9.018 L 36.03 8.512 L 36.027 8.509 L 35.912 8.509 L 35.912 8.018 L 36.027 8.018 L 36.03 8.015 L 36.03 7.509 L 36.027 7.506 L 35.912 7.506 L 35.912 7.015 L 36.027 7.015 L 36.03 7.012 L 36.03 6.506 L 36.027 6.503 L 35.912 6.503 L 35.912 6.006 L 35.909 6.003 L 35.3 6.003 L 35.3 5.888 L 35.297 5.885 L 34.792 5.885 L 34.789 5.888 L 34.789 6.003 L 34.297 6.003 L 34.297 5.888 L 34.294 5.885 L 33.789 5.885 L 33.786 5.888 L 33.786 6.003 L 33.294 6.003 L 33.294 5.888 L 33.291 5.885 L 32.786 5.885 L 32.783 5.888 L 32.783 6.003 L 32.291 6.003 L 32.291 5.888 L 32.288 5.885 L 31.783 5.885 L 31.78 5.888 L 31.78 6.003 L 31.288 6.003 L 31.288 5.888 L 31.285 5.885 L 30.78 5.885 L 30.777 5.888 L 30.777 6.003 L 30.285 6.003 L 30.285 5.888 L 30.282 5.885 L 29.777 5.885 L 29.774 5.888 L 29.774 6.003 L 29.282 6.003 L 29.282 5.888 L 29.279 5.885 L 28.774 5.885 L 28.771 5.888 L 28.771 6.003 L 28.279 6.003 L 28.279 5.888 L 28.276 5.885 L 27.771 5.885 L 27.768 5.888 L 27.768 6.003 L 27.276 6.003 L 27.276 5.888 L 27.273 5.885 L 26.768 5.885 L 26.765 5.888 L 26.765 6.003 L 26.273 6.003 L 26.273 5.888 L 26.27 5.885 L 25.765 5.885 L 25.762 5.888 L 25.762 6.003 L 25.27 6.003 L 25.27 5.888 L 25.267 5.885 L 24.762 5.885 L 24.759 5.888 L 24.759 6.003 L 24.267 6.003 L 24.267 5.888 L 24.264 5.885 L 23.759 5.885 L 23.756 5.888 L 23.756 6.003 L 23.264 6.003 L 23.264 5.888 L 23.261 5.885 L 22.756 5.885 L 22.753 5.888 L 22.753 6.003 L 22.261 6.003 L 22.261 5.888 L 22.258 5.885 L 21.753 5.885 L 21.75 5.888 L 21.75 6.003 L 21.141 6.003 L 21.138 6.006 L 21.138 6.503 L 21.023 6.503 L 21.02 6.506 L 21.02 7.012 L 21.023 7.015 L 21.138 7.015 L 21.138 7.506 L 21.023 7.506 L 21.02 7.509 L 21.02 8.015 L 21.023 8.018 L 21.138 8.018 L 21.138 8.509 L 21.023 8.509 L 21.02 8.512 L 21.02 9.018 L 21.023 9.021 L 21.138 9.021 L 21.138 9.512 L 21.023 9.512 L 21.02 9.515 L 21.02 10.021 L 21.023 10.024 L 21.138 10.024 L 21.138 10.515 L 21.023 10.515 L 21.02 10.518 L 21.02 11.024 L 21.023 11.027 L 21.138 11.027 L 21.138 11.524 L 21.141 11.527 L 21.75 11.527 L 21.75 11.642 L 21.753 11.645 L 22.258 11.645 L 22.261 11.642 Z" id="top_outsideCutPath" stroke="#000000" stroke-width="0.001" style="stroke:#000000;stroke-width:0.001" vector-effect="non-scaling-stroke"/><path d="M 0.74 6.007 L 0.74 5.892 L 1.231 5.892 L 1.231 6.007 L 1.234 6.01 L 1.74 6.01 L 1.743 6.007 L 1.743 5.892 L 2.234 5.892 L 2.234 6.007 L 2.237 6.01 L 2.743 6.01 L 2.746 6.007 L 2.746 5.892 L 3.237 5.892 L 3.237 6.007 L 3.24 6.01 L 3.746 6.01 L 3.749 6.007 L 3.749 5.892 L 4.24 5.892 L 4.24 6.007 L 4.243 6.01 L 4.749 6.01 L 4.752 6.007 L 4.752 5.892 L 5.243 5.892 L 5.243 6.007 L 5.246 6.01 L 5.752 6.01 L 5.755 6.007 L 5.755 5.892 L 6.246 5.892 L 6.246 6.007 L 6.249 6.01 L 6.755 6.01 L 6.758 6.007 L 6.758 5.892 L 7.249 5.892 L 7.249 6.007 L 7.252 6.01 L 7.758 6.01 L 7.761 6.007 L 7.761 5.892 L 8.252 5.892 L 8.252 6.007 L 8.255 6.01 L 8.761 6.01 L 8.764 6.007 L 8.764 5.892 L 9.255 5.892 L 9.255 6.007 L 9.258 6.01 L 9.764 6.01 L 9.767 6.007 L 9.767 5.892 L 10.258 5.892 L 10.258 6.007 L 10.261 6.01 L 10.767 6.01 L 10.77 6.007 L 10.77 5.892 L 11.261 5.892 L 11.261 6.007 L 11.264 6.01 L 11.77 6.01 L 11.773 6.007 L 11.773 5.892 L 12.264 5.892 L 12.264 6.007 L 12.267 6.01 L 12.773 6.01 L 12.776 6.007 L 12.776 5.892 L 13.267 5.892 L 13.267 6.007 L 13.27 6.01 L 13.776 6.01 L 13.779 6.007 L 13.779 5.892 L 14.27 5.892 L 14.27 6.007 L 14.273 6.01 L 15.007 6.01 L 15.01 6.007 L 15.01 5.51 L 15.007 5.507 L 14.892 5.507 L 14.892 5.015 L 15.007 5.015 L 15.01 5.012 L 15.01 4.507 L 15.007 4.504 L 14.892 4.504 L 14.892 4.012 L 15.007 4.012 L 15.01 4.009 L 15.01 3.504 L 15.007 3.501 L 14.892 3.501 L 14.892 3.009 L 15.007 3.009 L 15.01 3.006 L 15.01 2.501 L 15.007 2.498 L 14.892 2.498 L 14.892 2.006 L 15.007 2.006 L 15.01 2.003 L 15.01 1.498 L 15.007 1.495 L 14.892 1.495 L 14.892 1.003 L 15.007 1.003 L 15.01 1 L 15.01 0.503 L 15.007 0.5 L 14.273 0.5 L 14.27 0.503 L 14.27 0.618 L 13.779 0.618 L 13.779 0.503 L 13.776 0.5 L 13.27 0.5 L 13.267 0.503 L 13.267 0.618 L 12.776 0.618 L 12.776 0.503 L 12.773 0.5 L 12.267 0.5 L 12.264 0.503 L 12.264 0.618 L 11.773 0.618 L 11.773 0.503 L 11.77 0.5 L 11.264 0.5 L 11.261 0.503 L 11.261 0.618 L 10.77 0.618 L 10.77 0.503 L 10.767 0.5 L 10.261 0.5 L 10.258 0.503 L 10.258 0.618 L 9.767 0.618 L 9.767 0.503 L 9.764 0.5 L 9.258 0.5 L 9.255 0.503 L 9.255 0.618 L 8.764 0.618 L 8.764 0.503 L 8.761 0.5 L 8.255 0.5 L 8.252 0.503 L 8.252 0.618 L 7.761 0.618 L 7.761 0.503 L 7.758 0.5 L 7.252 0.5 L 7.249 0.503 L 7.249 0.618 L 6.758 0.618 L 6.758 0.503 L 6.755 0.5 L 6.249 0.5 L 6.246 0.503 L 6.246 0.618 L 5.755 0.618 L 5.755 0.503 L 5.752 0.5 L 5.246 0.5 L 5.243 0.503 L 5.243 0.618 L 4.752 0.618 L 4.752 0.503 L 4.749 0.5 L 4.243 0.5 L 4.24 0.503 L 4.24 0.618 L 3.749 0.618 L 3.749 0.503 L 3.746 0.5 L 3.24 0.5 L 3.237 0.503 L 3.237 0.618 L 2.746 0.618 L 2.746 0.503 L 2.743 0.5 L 2.237 0.5 L 2.234 0.503 L 2.234 0.618 L 1.743 0.618 L 1.743 0.503 L 1.74 0.5 L 1.234 0.5 L 1.231 0.503 L 1.231 0.618 L 0.74 0.618 L 0.74 0.503 L 0.737 0.5 L 0.003 0.5 L 0 0.503 L 0 1 L 0.003 1.003 L 0.118 1.003 L 0.118 1.495 L 0.003 1.495 L 0 1.498 L 0 2.003 L 0.003 2.006 L 0.118 2.006 L 0.118 2.498 L 0.003 2.498 L 0 2.501 L 0 3.006 L 0.003 3.009 L 0.118 3.009 L 0.118 3.501 L 0.003 3.501 L 0 3.504 L 0 4.009 L 0.003 4.012 L 0.118 4.012 L 0.118 4.504 L 0.003 4.504 L 0 4.507 L 0 5.012 L 0.003 5.015 L 0.118 5.015 L 0.118 5.507 L 0.003 5.507 L 0 5.51 L 0 6.007 L 0.003 6.01 L 0.737 6.01 L 0.74 6.007 Z" id="back_outsideCutPath" stroke="#000000" stroke-width="0.001" style="stroke:#000000;stroke-width:0.001" vector-effect="non-scaling-stroke"/><path d="M 15.763 6.007 L 15.763 5.892 L 16.255 5.892 L 16.255 6.007 L 16.258 6.01 L 16.763 6.01 L 16.766 6.007 L 16.766 5.892 L 17.258 5.892 L 17.258 6.007 L 17.261 6.01 L 17.766 6.01 L 17.769 6.007 L 17.769 5.892 L 18.261 5.892 L 18.261 6.007 L 18.264 6.01 L 18.769 6.01 L 18.772 6.007 L 18.772 5.892 L 19.264 5.892 L 19.264 6.007 L 19.267 6.01 L 19.772 6.01 L 19.775 6.007 L 19.775 5.892 L 20.267 5.892 L 20.267 6.007 L 20.27 6.01 L 20.774 6.01 L 20.777 6.007 L 20.777 5.517 L 20.892 5.517 L 20.895 5.514 L 20.895 5.008 L 20.892 5.005 L 20.777 5.005 L 20.777 4.514 L 20.892 4.514 L 20.895 4.511 L 20.895 4.005 L 20.892 4.002 L 20.777 4.002 L 20.777 3.511 L 20.892 3.511 L 20.895 3.508 L 20.895 3.002 L 20.892 2.999 L 20.777 2.999 L 20.777 2.508 L 20.892 2.508 L 20.895 2.505 L 20.895 1.999 L 20.892 1.996 L 20.777 1.996 L 20.777 1.505 L 20.892 1.505 L 20.895 1.502 L 20.895 0.996 L 20.892 0.993 L 20.777 0.993 L 20.777 0.503 L 20.774 0.5 L 20.27 0.5 L 20.267 0.503 L 20.267 0.618 L 19.775 0.618 L 19.775 0.503 L 19.772 0.5 L 19.267 0.5 L 19.264 0.503 L 19.264 0.618 L 18.772 0.618 L 18.772 0.503 L 18.769 0.5 L 18.264 0.5 L 18.261 0.503 L 18.261 0.618 L 17.769 0.618 L 17.769 0.503 L 17.766 0.5 L 17.261 0.5 L 17.258 0.503 L 17.258 0.618 L 16.766 0.618 L 16.766 0.503 L 16.763 0.5 L 16.258 0.5 L 16.255 0.503 L 16.255 0.618 L 15.763 0.618 L 15.763 0.503 L 15.76 0.5 L 15.256 0.5 L 15.253 0.503 L 15.253 0.993 L 15.138 0.993 L 15.135 0.996 L 15.135 1.502 L 15.138 1.505 L 15.253 1.505 L 15.253 1.996 L 15.138 1.996 L 15.135 1.999 L 15.135 2.505 L 15.138 2.508 L 15.253 2.508 L 15.253 2.999 L 15.138 2.999 L 15.135 3.002 L 15.135 3.508 L 15.138 3.511 L 15.253 3.511 L 15.253 4.002 L 15.138 4.002 L 15.135 4.005 L 15.135 4.511 L 15.138 4.514 L 15.253 4.514 L 15.253 5.005 L 15.138 5.005 L 15.135 5.008 L 15.135 5.514 L 15.138 5.517 L 15.253 5.517 L 15.253 6.007 L 15.256 6.01 L 15.76 6.01 L 15.763 6.007 Z" id="right_outsideCutPath" stroke="#000000" stroke-width="0.001" style="stroke:#000000;stroke-width:0.001" vector-effect="non-scaling-stroke"/><path d="M 22.261 5.757 L 22.261 5.642 L 22.753 5.642 L 22.753 5.757 L 22.756 5.76 L 23.261 5.76 L 23.264 5.757 L 23.264 5.642 L 23.756 5.642 L 23.756 5.757 L 23.759 5.76 L 24.264 5.76 L 24.267 5.757 L 24.267 5.642 L 24.759 5.642 L 24.759 5.757 L 24.762 5.76 L 25.267 5.76 L 25.27 5.757 L 25.27 5.642 L 25.762 5.642 L 25.762 5.757 L 25.765 5.76 L 26.27 5.76 L 26.273 5.757 L 26.273 5.642 L 26.765 5.642 L 26.765 5.757 L 26.768 5.76 L 27.273 5.76 L 27.276 5.757 L 27.276 5.642 L 27.768 5.642 L 27.768 5.757 L 27.771 5.76 L 28.276 5.76 L 28.279 5.757 L 28.279 5.642 L 28.771 5.642 L 28.771 5.757 L 28.774 5.76 L 29.279 5.76 L 29.282 5.757 L 29.282 5.642 L 29.774 5.642 L 29.774 5.757 L 29.777 5.76 L 30.282 5.76 L 30.285 5.757 L 30.285 5.642 L 30.777 5.642 L 30.777 5.757 L 30.78 5.76 L 31.285 5.76 L 31.288 5.757 L 31.288 5.642 L 31.78 5.642 L 31.78 5.757 L 31.783 5.76 L 32.288 5.76 L 32.291 5.757 L 32.291 5.642 L 32.783 5.642 L 32.783 5.757 L 32.786 5.76 L 33.291 5.76 L 33.294 5.757 L 33.294 5.642 L 33.786 5.642 L 33.786 5.757 L 33.789 5.76 L 34.294 5.76 L 34.297 5.757 L 34.297 5.642 L 34.789 5.642 L 34.789 5.757 L 34.792 5.76 L 35.297 5.76 L 35.3 5.757 L 35.3 5.642 L 35.909 5.642 L 35.912 5.639 L 35.912 5.142 L 36.027 5.142 L 36.03 5.139 L 36.03 4.633 L 36.027 4.63 L 35.912 4.63 L 35.912 4.139 L 36.027 4.139 L 36.03 4.136 L 36.03 3.63 L 36.027 3.627 L 35.912 3.627 L 35.912 3.136 L 36.027 3.136 L 36.03 3.133 L 36.03 2.627 L 36.027 2.624 L 35.912 2.624 L 35.912 2.133 L 36.027 2.133 L 36.03 2.13 L 36.03 1.624 L 36.027 1.621 L 35.912 1.621 L 35.912 1.13 L 36.027 1.13 L 36.03 1.127 L 36.03 0.621 L 36.027 0.618 L 35.912 0.618 L 35.912 0.121 L 35.909 0.118 L 35.3 0.118 L 35.3 0.003 L 35.297 0 L 34.792 0 L 34.789 0.003 L 34.789 0.118 L 34.297 0.118 L 34.297 0.003 L 34.294 0 L 33.789 0 L 33.786 0.003 L 33.786 0.118 L 33.294 0.118 L 33.294 0.003 L 33.291 0 L 32.786 0 L 32.783 0.003 L 32.783 0.118 L 32.291 0.118 L 32.291 0.003 L 32.288 0 L 31.783 0 L 31.78 0.003 L 31.78 0.118 L 31.288 0.118 L 31.288 0.003 L 31.285 0 L 30.78 0 L 30.777 0.003 L 30.777 0.118 L 30.285 0.118 L 30.285 0.003 L 30.282 0 L 29.777 0 L 29.774 0.003 L 29.774 0.118 L 29.282 0.118 L 29.282 0.003 L 29.279 0 L 28.774 0 L 28.771 0.003 L 28.771 0.118 L 28.279 0.118 L 28.279 0.003 L 28.276 0 L 27.771 0 L 27.768 0.003 L 27.768 0.118 L 27.276 0.118 L 27.276 0.003 L 27.273 0 L 26.768 0 L 26.765 0.003 L 26.765 0.118 L 26.273 0.118 L 26.273 0.003 L 26.27 0 L 25.765 0 L 25.762 0.003 L 25.762 0.118 L 25.27 0.118 L 25.27 0.003 L 25.267 0 L 24.762 0 L 24.759 0.003 L 24.759 0.118 L 24.267 0.118 L 24.267 0.003 L 24.264 0 L 23.759 0 L 23.756 0.003 L 23.756 0.118 L 23.264 0.118 L 23.264 0.003 L 23.261 0 L 22.756 0 L 22.753 0.003 L 22.753 0.118 L 22.261 0.118 L 22.261 0.003 L 22.258 0 L 21.753 0 L 21.75 0.003 L 21.75 0.118 L 21.141 0.118 L 21.138 0.121 L 21.138 0.618 L 21.023 0.618 L 21.02 0.621 L 21.02 1.127 L 21.023 1.13 L 21.138 1.13 L 21.138 1.621 L 21.023 1.621 L 21.02 1.624 L 21.02 2.13 L 21.023 2.133 L 21.138 2.133 L 21.138 2.624 L 21.023 2.624 L 21.02 2.627 L 21.02 3.133 L 21.023 3.136 L 21.138 3.136 L 21.138 3.627 L 21.023 3.627 L 21.02 3.63 L 21.02 4.136 L 21.023 4.139 L 21.138 4.139 L 21.138 4.63 L 21.023 4.63 L 21.02 4.633 L 21.02 5.139 L 21.023 5.142 L 21.138 5.142 L 21.138 5.639 L 21.141 5.642 L 21.75 5.642 L 21.75 5.757 L 21.753 5.76 L 22.258 5.76 L 22.261 5.757 Z" id="bottom_outsideCutPath" stroke="#000000" stroke-width="0.001" style="stroke:#000000;stroke-width:0.001" vector-effect="non-scaling-stroke"/></g></svg>